<svg xmlns="http://www.w3.org/2000/svg"><defs><font id="AcuminPro-Semibold" horiz-adv-x="400"><font-face font-family="Acumin Pro" font-weight="600" panose-1="2 11 7 4 2 2 2 2 2 4" ascent="735" descent="-265" x-height="514" cap-height="692" bbox="-203 -262 1269 1049" underline-thickness="50" underline-position="-200" unicode-range="U+0020-FB02"/><glyph glyph-name="f_f" unicode="ff" horiz-adv-x="606" d="M378 419H210V0H86v419H8v95h78v51q0 176 161 176 37 0 55-7v-98q-20 5-36 5-56 0-56-77v-50h168v51q0 176 161 176 37 0 55-7v-98q-20 5-36 5-56 0-56-77v-50h94v-95h-94V0H378v419z"/><glyph glyph-name=".notdef" horiz-adv-x="500" d="M0 0v700h500V0H0zm250 395l170 255H80zm30-45L450 95v510zM80 50h340L250 305zM50 605V95l170 255z"/><glyph glyph-name=".null" horiz-adv-x="0"/><glyph glyph-name="nonmarkingreturn" horiz-adv-x="333"/><glyph glyph-name="space" horiz-adv-x="246"/><glyph glyph-name="exclam" unicode="!" horiz-adv-x="317" d="M236 244H135l-16 327v121h133V570zm9-244H123v156h122V0z"/><glyph glyph-name="quotedbl" unicode="&quot;" horiz-adv-x="399" d="M151 447H62L49 642v89h113v-90zm186 0h-89l-11 195v89h113v-90z"/><glyph glyph-name="numbersign" unicode="#" horiz-adv-x="619" d="M285 0l44 182H214L170 0H81l45 182H46v96h104l32 132H96v96h110l41 165h86l-40-165h116l40 165h86l-40-165h74l-1-96h-96l-32-132h83v-96H417L373 0h-88zm68 278l32 132H270l-32-132h115z"/><glyph glyph-name="dollar" unicode="$" horiz-adv-x="541" d="M319-86H213v82Q128 9 79.5 58T25 180h123q9-44 41-69t80-25q56 0 83 23.5t27 62.5q0 41-26.5 65.5T252 283q-118 34-165.5 80T39 483q0 72 47 119t122 59v66h105v-66q86-12 127.5-59T488 492H365q-6 22-14 37t-32.5 29-61.5 14q-49 0-71.5-23T163 495q0-38 27-58.5T298 393q112-31 158.5-79.5T503 186q0-81-49-129.5T319-4v-82z"/><glyph glyph-name="percent" unicode="%" horiz-adv-x="911" d="M211 670q79 0 126-49.5T384 482q0-85-46-137.5T210 292q-81 0-127.5 49.5T36 481q0 82 46 135.5T211 670zm0-81q-36 0-56-27.5T135 482q0-51 20-80t56-29q77 0 77 109 0 107-77 107zM299 0h-95l413 659h95zm407 365q80 0 126.5-49T879 177q0-85-46-137T705-13q-81 0-127.5 50.5T531 177q0 81 46 134.5T706 365zm0-81q-35 0-55.5-27.5T630 177q0-51 20-80t56-29q77 0 77 109 0 107-77 107z"/><glyph glyph-name="ampersand" unicode="&amp;" horiz-adv-x="769" d="M274 96q39 0 67 14.5t60 51.5L249 310q-40-28-57.5-54.5T174 194q0-40 27-69t73-29zm322 337h128L543 181 729 0H567l-93 91q-44-51-92.5-76T261-10q-103 0-159 56.5T46 179q0 59 31 103.5T188 375q-37 40-55.5 73T114 523q0 77 51.5 128T303 702q84 0 133.5-48.5T486 536q0-51-30-90.5T355 365l114-111zM303 614q-34 0-54-22.5T229 532q0-26 15.5-49.5T295 425q46 30 63 55t17 54q0 33-18.5 56.5T303 614z"/><glyph glyph-name="quotesingle" unicode="'" horiz-adv-x="202" d="M152 447H50L40 642v89h123v-90z"/><glyph glyph-name="parenleft" unicode="(" horiz-adv-x="361" d="M202 730h121Q167 523 167 284q0-249 156-458H202Q54 28 54 285q0 239 148 445z"/><glyph glyph-name="parenright" unicode=")" horiz-adv-x="361" d="M158-174H38Q194 33 194 272q0 249-156 458h120q148-202 148-459 0-241-148-445z"/><glyph glyph-name="asterisk" unicode="*" horiz-adv-x="425" d="M168 692h88l-16-150 112 95 49-80-145-60 144-61-48-80-112 96 16-152h-89l17 152-111-96-48 80 143 61-144 60 49 81 110-96z"/><glyph glyph-name="plus" unicode="+" horiz-adv-x="706" d="M301 562h106V336h223V230H407V0H301v230H77v106h224v226z"/><glyph glyph-name="comma" unicode="," horiz-adv-x="250" d="M103-115H5Q65 20 78 166h127Q187-7 103-115z"/><glyph glyph-name="hyphen" unicode="-" horiz-adv-x="383" d="M55 312h273V202H55v110z"/><glyph glyph-name="period" unicode="." horiz-adv-x="234" d="M184 0H51v166h133V0z"/><glyph glyph-name="slash" unicode="/" horiz-adv-x="460" d="M144-51H38l278 753h105z"/><glyph glyph-name="zero" unicode="0" horiz-adv-x="580" d="M293 670q66 0 114-26.5t75.5-74.5 40-106.5T535 333q0-70-12-128T484.5 96t-76-79.5T290-12q-68 0-117.5 27.5T96 92.5 57 200 45 329q0 69 13 128t41 108 77.5 77T293 670zm0-100q-67 0-93-61.5T174 330q0-52 4.5-90.5t16-75 36-56T291 89t60 18.5 35.5 55T402 238t4 95q0 52-4.5 91t-16 74-35 53.5T293 570z"/><glyph glyph-name="one" unicode="1" horiz-adv-x="387" d="M293 0H167v513q-22-12-60-23.5T42 475v94q93 19 162 91h89V0z"/><glyph glyph-name="two" unicode="2" horiz-adv-x="544" d="M498 0H43v8q0 83 46 156.5T238 314q78 58 102 86.5t24 72.5q0 46-23.5 72.5T270 572q-50 0-75-27t-33-79H41q8 90 66.5 147T270 670q77 0 128-29.5t71-71.5 20-94q0-70-33.5-115T327 246q-116-85-136-141h323z"/><glyph glyph-name="three" unicode="3" horiz-adv-x="556" d="M168 493H49q9 72 62.5 124.5T272 670q104 0 158.5-51T485 494q0-99-83-135v-2q45-16 77.5-55T512 195q0-85-58.5-146T271-12Q156-12 98.5 44.5T34 178h122q8-41 38-67t81-26q55 0 83 31t28 81q0 108-120 108h-55v97h48q55 0 79 20.5t24 65.5q0 39-24 61.5T268 572q-48 0-70-21.5T168 493z"/><glyph glyph-name="four" unicode="4" horiz-adv-x="555" d="M452 0H335v155H34v110l283 393h135V257h81l-12-102h-69V0zM335 257v134q0 92 3 155-24-51-191-289h188z"/><glyph glyph-name="five" unicode="5" horiz-adv-x="562" d="M502 658l-18-103H217q-4-34-23-147 44 42 125 42 93 0 147-60.5T520 231q0-105-59.5-174T280-12q-96 0-159 48T46 170h125q22-85 112-85 55 0 83.5 36.5T395 221q0 129-110 129-48 0-73-18.5T172 277L59 293q31 144 56 365h387z"/><glyph glyph-name="six" unicode="6" horiz-adv-x="568" d="M509 504H388q-17 70-93 70-120 0-127-196 51 72 155 72 92 0 148.5-61T528 231q0-106-63-174.5T293-12Q45-12 45 321q0 69 13 128.5T99 560t79.5 80.5T301 670q97 0 149.5-50T509 504zM290 88q56 0 84.5 37.5T403 221q0 57-26 93.5T291 351q-54 0-84-32t-30-94q0-22 5.5-44.5t18-44 35.5-35T290 88z"/><glyph glyph-name="seven" unicode="7" horiz-adv-x="488" d="M19 658h448v-94q-85-119-152.5-272.5T227 0H99q19 135 91 294.5T339 554H19v104z"/><glyph glyph-name="eight" unicode="8" horiz-adv-x="573" d="M281-12q-103 0-171 54T42 188q0 60 33 101.5t79 60.5q-85 48-85 138 0 83 58 132.5T291 670q98 0 157-49.5T507 489q0-99-87-133 45-16 78-59.5T531 192q0-97-69-150.5T281-12zm8 98q53 0 85 27.5t32 80.5q0 52-32 79t-87 27q-58 0-89-29t-31-77 33-78 89-30zm-1 487q-100 0-100-89 0-37 26-60t75-23q99 0 99 82 0 41-26 65.5T288 573z"/><glyph glyph-name="nine" unicode="9" horiz-adv-x="562" d="M49 157h125q22-70 100-70 37 0 61.5 20.5t35.5 57 15.5 65.5 5.5 67q-41-64-144-64-97 0-153 59.5T39 444q0 97 63.5 161T274 669q85 0 141-42.5T493 518t22-154q0-375-247-375-101 0-154.5 49T49 157zm225 414q-53 0-81-33.5T165 450q0-55 29.5-87t79.5-32q110 0 110 116 0 27-7 52t-33.5 48.5T274 571z"/><glyph glyph-name="colon" unicode=":" horiz-adv-x="280" d="M204 0H76v159h128V0zm0 351H76v160h128V351z"/><glyph glyph-name="semicolon" unicode=";" horiz-adv-x="283" d="M108-115H10Q75 23 83 166h126q-6-82-35-157.5T108-115zm104 459H80v167h132V344z"/><glyph glyph-name="less" unicode="&lt;" horiz-adv-x="615" d="M80 233v100l455 236V455L195 284l340-177V-7z"/><glyph glyph-name="equal" unicode="=" horiz-adv-x="713" d="M80 210h553V105H80v105zm0 254h553V358H80v106z"/><glyph glyph-name="greater" unicode="&gt;" horiz-adv-x="615" d="M535 329V229L80-7v115l341 171L80 455v114z"/><glyph glyph-name="question" unicode="?" horiz-adv-x="516" d="M324 215H195v17q0 48 22 89t77 90q58 52 58 112 0 34-21 57.5T269 604q-82 0-94-96H53q2 25 9 49.5T85 609t39.5 47 62 33 85.5 13q107-1 156.5-56.5T478 520q0-50-20-89t-74-88q-60-56-60-118v-10zm0-215H195v156h129V0z"/><glyph glyph-name="at" unicode="@" horiz-adv-x="939" d="M676-42l21-79q-90-56-240-56-174 0-287 111T57 226q0 197 122.5 321T500 671q165 0 275.5-92.5T886 319q0-132-63.5-210.5T653 30q-98 0-111 67-53-67-136-67-65 0-104.5 45.5T262 205q0 111 60.5 188.5T469 471q47 0 74.5-18.5T579 406l15 55h109l-59-272q-8-41-.5-56t33.5-15q49 0 81.5 54.5T791 315q0 124-80.5 197.5T498 586q-154 0-246-96.5T160 226Q159 92 242.5 2T463-88q127 0 213 46zM488 385q-48 0-78.5-54T379 209q0-90 61-90 77 0 105 128 32 138-57 138z"/><glyph glyph-name="A" unicode="A" horiz-adv-x="678" d="M464 176H203L142 0H14l239 692h162L664 0H527zM232 284h202q-92 268-104 311h-1q-18-68-97-311z"/><glyph glyph-name="B" unicode="B" horiz-adv-x="665" d="M85 0v692h290q113 0 169-50.5T600 516q0-56-26-95t-66-55q44-16 78.5-56.5T621 206q0-92-65.5-149T384 0H85zm128 414h145q113 0 113 89 0 41-28 64t-78 23H213V414zm0-102V102h147q128 0 128 107 0 48-33.5 75.5T353 312H213z"/><glyph glyph-name="C" unicode="C" horiz-adv-x="703" d="M529 207h130q-23-99-96.5-157.5T369-9Q214-9 132 89.5T50 343q0 98 34.5 177.5t110 130.5T375 702q124 0 196.5-62T659 483H529q-34 115-159 115-64 0-107-36.5t-61-91T184 347q0-105 46-179t144-74q113 0 155 113z"/><glyph glyph-name="D" unicode="D" horiz-adv-x="731" d="M85 0v692h265q150 0 240.5-92.5T681 354q0-155-91.5-254.5T345 0H85zm130 586V106h124q103 0 155.5 67.5T547 353q0 99-52 166t-156 67H215z"/><glyph glyph-name="E" unicode="E" horiz-adv-x="611" d="M547 414V307H212V107h369L565 0H85v692h477V584H212V414h335z"/><glyph glyph-name="F" unicode="F" horiz-adv-x="580" d="M85 0v692h470V584H212V396h321V288H212V0H85z"/><glyph glyph-name="G" unicode="G" horiz-adv-x="743" d="M673 382V0h-96q-8 31-11 77-60-88-206-88T132 87 50 338q0 160 88 262t245 102q124 0 201.5-61T676 486H547q-35 112-166 112-103 0-150-71.5T184 344q0-107 48-178.5T380 94q49 0 83.5 15.5t51.5 42 24 55 7 61.5v7H380v107h293z"/><glyph glyph-name="H" unicode="H" horiz-adv-x="737" d="M85 0v692h130V415h307v277h129V0H522v308H215V0H85z"/><glyph glyph-name="I" unicode="I" horiz-adv-x="300" d="M85 692h130V0H85v692z"/><glyph glyph-name="J" unicode="J" horiz-adv-x="391" d="M310 692V215q0-119-45-172T116-10q-56 0-87 8v104q26-4 67-4 51 0 68 28.5t17 80.5v485h129z"/><glyph glyph-name="K" unicode="K" horiz-adv-x="663" d="M85 0v692h129V372q26 30 141 153t155 167h157L382 403 678 0H522L292 319l-78-74V0H85z"/><glyph glyph-name="L" unicode="L" horiz-adv-x="578" d="M85 0v692h130V107h350L550 0H85z"/><glyph glyph-name="M" unicode="M" horiz-adv-x="880" d="M669 0v272q0 202 5 329h-5Q641 483 483 0H371q-14 49-57 195.5T242.5 443 200 603h-4q9-122 9-346V0H85v692h193q123-378 157-535h2q20 101 171 535h186V0H669z"/><glyph glyph-name="N" unicode="N" horiz-adv-x="751" d="M205 0H85v692h164q14-24 102.5-176T489 277.5 553 157h1q-7 78-7 307v228h119V0H512Q253 447 200 558h-1q6-80 6-325V0z"/><glyph glyph-name="O" unicode="O" horiz-adv-x="760" d="M385 702q149 0 237.5-97.5T711 349q0-153-88-256T376-10Q222-10 136 90.5T50 346t90 255.5T385 702zm-6-107q-98 0-146.5-67.5T184 349q0-110 51-181t146-71q100 0 147.5 70.5T576 347q0 110-49.5 179T379 595z"/><glyph glyph-name="P" unicode="P" horiz-adv-x="645" d="M85 0v692h278q108 0 174-56.5T603 482q0-104-68.5-159.5T359 267H215V0H85zm130 587V372h130q127 0 127 107 0 54-34 81t-89 27H215z"/><glyph glyph-name="Q" unicode="Q" horiz-adv-x="763" d="M385 702q149 0 237.5-97.5T711 349q0-179-111-279L760-41l-76-87L490 7q-53-17-114-17-154 0-240 100.5T50 346t90 255.5T385 702zm-6-107q-98 0-146.5-67.5T184 349q0-110 51-181t146-71q100 0 147.5 70.5T576 347q0 110-49.5 179T379 595z"/><glyph glyph-name="R" unicode="R" horiz-adv-x="655" d="M326 286H213V0H85v692h293q108 0 167.5-52.5T605 503q0-64-30.5-105T498 340q93-29 93-174v-32q0-103 10-134H477q-13 32-13 153v12q0 66-27.5 93.5T326 286zM213 587V391h134q66 0 96 24.5t30 74.5q0 97-121 97H213z"/><glyph glyph-name="S" unicode="S" horiz-adv-x="625" d="M36 199h131Q192 90 323 90q126 0 126 94 0 46-33.5 72T290 303q-129 31-179 79T61 505q0 88 64.5 142.5T307 702q123 0 186.5-56.5T565 507H434q-18 96-131 96-52 0-80.5-21.5T194 519q0-40 30.5-61.5T342 416q139-33 189.5-85.5T582 199q0-94-69.5-151T313-9Q187-9 118 48T36 199z"/><glyph glyph-name="T" unicode="T" horiz-adv-x="578" d="M224 0v584H10v108h558V584H354V0H224z"/><glyph glyph-name="U" unicode="U" horiz-adv-x="722" d="M77 692h130V278q0-99 43.5-141.5T362 94q153 0 153 184v414h130V285Q645-9 360-9 77-9 77 281v411z"/><glyph glyph-name="V" unicode="V" horiz-adv-x="661" d="M403 0H250L4 692h139l109-329q57-170 76-255h2q16 68 80 253l114 331h133z"/><glyph glyph-name="W" unicode="W" horiz-adv-x="946" d="M334 0H198L19 692h138q20-94 52-241t45.5-213T273 137h1q13 65 70 279.5T416 692h119q119-453 136-549h1q10 63 34 165.5t57 232T801 692h127L735 0H600q-11 43-64.5 251.5T469 522h-1Q453 445 334 0z"/><glyph glyph-name="X" unicode="X" horiz-adv-x="599" d="M607 0H457L297 258h-1L133 0H-8l231 349L-1 692h151l152-243h1l156 243h139L373 361z"/><glyph glyph-name="Y" unicode="Y" horiz-adv-x="610" d="M368 0H238v248q0 10-6 21L-8 692h147q125-235 170-330 31 70 172 330h137L373 269q-5-7-5-20V0z"/><glyph glyph-name="Z" unicode="Z" horiz-adv-x="610" d="M30 0v96l393 488H48v108h523V586L188 107h401L572 0H30z"/><glyph glyph-name="bracketleft" unicode="[" horiz-adv-x="353" d="M316-174H80v904h236v-94H187V-79h129v-95z"/><glyph glyph-name="backslash" unicode="\" horiz-adv-x="460" d="M316-51L38 702h105L421-51H316z"/><glyph glyph-name="bracketright" unicode="]" horiz-adv-x="353" d="M37 730h236v-904H37v94h129v715H37v95z"/><glyph glyph-name="asciicircum" unicode="^" horiz-adv-x="494" d="M461 306h-96L245 576 129 306H33l168 363h92z"/><glyph glyph-name="underscore" unicode="_" horiz-adv-x="531" d="M0-78h530v-51H0v51z"/><glyph glyph-name="grave" unicode="`" d="M7 741h150l119-150H164z"/><glyph glyph-name="a" unicode="a" horiz-adv-x="549" d="M480 352V126q0-96 7-126H368q-6 16-8 56-39-68-149-68-86 0-130.5 47T36 148q0 85 64 127.5T280 318h78v35q0 37-19 59.5T268 435q-47 0-65-17.5T179 366H60q6 71 56.5 116T273 526q207-2 207-174zM359 225v15h-67q-68 0-99.5-20.5T161 155q0-33 21.5-54.5T244 79q69 0 92 38.5T359 225z"/><glyph glyph-name="b" unicode="b" horiz-adv-x="591" d="M68 170v561h124V453q43 73 153 73 99 0 154.5-72.5T555 267q0-119-59-199T331-12q-99 0-140 67 0-23-5-55H67q1 56 1 170zm360 94q0 73-30 117t-89 44q-66 0-94.5-42.5T186 255q0-167 121-167 58 0 89.5 47.5T428 264z"/><glyph glyph-name="c" unicode="c" horiz-adv-x="527" d="M377 163h123q-17-75-71-125T275-12Q162-12 99.5 60.5T37 254q0 116 66 194t179 78q58 0 102-19t67.5-48.5 35-57.5 13.5-54H378q-17 80-99 80-55 0-85-45t-30-124q0-83 30-127.5T278 86q74 0 99 77z"/><glyph glyph-name="d" unicode="d" horiz-adv-x="591" d="M401 731h124V143q0-95 1-143H406q-5 38-5 60-40-72-152-72-97 0-155 72T36 252q0 121 63 197.5T269 526q54 0 87-16.5t45-38.5v260zM164 256q0-80 32-123.5T284 89q71 0 96 46t25 125q0 83-23.5 124T288 425q-60 0-92-44.5T164 256z"/><glyph glyph-name="e" unicode="e" horiz-adv-x="544" d="M508 231H161q0-61 30.5-102.5T277 87q45 0 66.5 16.5T378 150h125q-8-28-22.5-53T440 45.5t-69-42T273-12Q156-12 96 64T36 250q0 124 62.5 200T279 526q62 0 108.5-21.5T460 446t38-80 12-91q0-29-2-44zm-344 79h221q-1 56-27 90.5T278 435q-102 0-114-125z"/><glyph glyph-name="f" unicode="f" horiz-adv-x="313" d="M210 0H86v419H8v95h78v51q0 81 39 128.5T245 741q43 0 63-6V635q-18 4-35 4-35 0-49-18.5T210 556v-42h94v-95h-94V0z"/><glyph glyph-name="g" unicode="g" horiz-adv-x="587" d="M521 366V57q0-130-58-198t-191-68q-63 0-108.5 16T95-151t-33.5 51T48-48h126q19-68 103-68 71 0 96.5 41T399 53v30Q356 5 249 5 152 5 94 75.5T36 256q0 121 63.5 195.5T260 526q62 0 96-22t43-48q2 28 5 58h118q-1-40-1-148zM164 261q0-71 33-113t86-42q66 0 93 41.5T403 266q0 80-24.5 119.5T286 425q-56 0-89-43t-33-121z"/><glyph glyph-name="h" unicode="h" horiz-adv-x="584" d="M68 731h124V448q49 78 152 78 75 0 123.5-48T516 329V0H393v310q0 114-93 114-59 0-83.5-38T192 276V0H68v731z"/><glyph glyph-name="i" unicode="i" horiz-adv-x="260" d="M68 0v514h124V0H68zm124 610H68v121h124V610z"/><glyph glyph-name="j" unicode="j" horiz-adv-x="260" d="M68 514h124V1q0-114-33.5-162T30-209q-18 0-40 2v101H5q37 0 50 18t13 65v537zm124 96H68v121h124V610z"/><glyph glyph-name="k" unicode="k" horiz-adv-x="539" d="M192 731V288q16 21 194 226h144L346 318 548 0H406L262 238l-70-67V0H68v731h124z"/><glyph glyph-name="l" unicode="l" horiz-adv-x="260" d="M192 0H68v731h124V0z"/><glyph glyph-name="m" unicode="m" horiz-adv-x="863" d="M68 0v382q0 89-1 132h119q3-18 5-67 48 79 145 79 52 0 86.5-23t49.5-60q55 83 160 83 72 0 117.5-46.5T795 337V0H673v322q0 103-84 103-96 0-96-131V0H371v318q0 106-82 106-98 0-98-138V0H68z"/><glyph glyph-name="n" unicode="n" horiz-adv-x="584" d="M69 0v385q0 90-1 129h120q5-23 5-72 42 84 153 84 78 0 124.5-51T517 328V0H393v314q0 110-91 110-109 0-109-142V0H69z"/><glyph glyph-name="o" unicode="o" horiz-adv-x="570" d="M289 526q111 0 178-73.5T534 258q0-118-67-194T283-12q-115 0-181 75T36 256q0 120 67.5 195T289 526zm-5-99q-58 0-90-43.5T162 257q0-78 33-124t91-46 89.5 45T407 256q0 83-31.5 127T284 427z"/><glyph glyph-name="p" unicode="p" horiz-adv-x="588" d="M192-199H68v589q0 83-1 124h120q5-38 5-70 46 82 155 82 89 0 147-70t58-186q0-132-63.5-207T328-12q-98 0-136 64v-251zm234 464q0 75-30.5 117.5T309 425q-65 0-94-41.5T186 257q0-83 27-126t90-43q60 0 91.5 46T426 265z"/><glyph glyph-name="q" unicode="q" horiz-adv-x="589" d="M401-199V61q-42-73-150-73-92 0-153.5 69T36 252q0 123 65 198.5T263 526q59 0 93-20t45-46q0 24 4 54h117q0-23-.5-70t-.5-71v-572H401zM164 256q0-76 30-121.5T284 89q67 0 93 43t26 127q0 85-25 125.5T286 425q-60 0-91-45.5T164 256z"/><glyph glyph-name="r" unicode="r" horiz-adv-x="380" d="M68 0v375q0 101-1 139h122q3-18 3-95 19 48 62 77t106 30V406q-84 1-126-37t-42-136V0H68z"/><glyph glyph-name="s" unicode="s" horiz-adv-x="501" d="M30 152h122q19-72 107-72 83 0 83 59 0 29-21.5 44.5T238 214q-113 27-151 64t-38 96q0 64 49 108t151 44 152.5-45.5T456 373H337q-13 64-93 64-73 0-73-53 0-23 21-36.5t84-28.5q116-26 154.5-66.5T469 148q0-69-54.5-114.5T255-12 95 33 30 152z"/><glyph glyph-name="t" unicode="t" horiz-adv-x="348" d="M13 419v95h82v143h124V514h105v-95H219V149q0-33 12-47t44-14q25 0 37 2V3Q283-7 222-7q-68 0-97.5 34.5T95 131v288H13z"/><glyph glyph-name="u" unicode="u" horiz-adv-x="575" d="M507 514V150q0-109 1-150H387q-2 11-4 65-42-77-146-77-78 0-124.5 47T66 178v336h124V203q0-112 88-112 57 0 81 34.5T383 242v272h124z"/><glyph glyph-name="v" unicode="v" horiz-adv-x="509" d="M8 514h134q96-319 112-403h1q12 68 121 403h124L316 0H184z"/><glyph glyph-name="w" unicode="w" horiz-adv-x="791" d="M20 514h131q80-334 91-402h1q18 98 99 402h117q86-354 92-396h1q30 135 96 396h124L617 0H484q-87 371-89 383h-1q-9-62-93-383H167z"/><glyph glyph-name="x" unicode="x" horiz-adv-x="481" d="M1 514h138q33-57 63.5-108.5T240 342h1q74 125 103 172h138L313 269 482 0H341q-89 157-103 183h-1Q223 154 135 0H-2l164 253z"/><glyph glyph-name="y" unicode="y" horiz-adv-x="506" d="M7 514h133q107-336 120-401h1q24 100 114 401h124L322-18q-38-113-79-152t-128-39q-32 0-63 4v102q22-2 39-2 42 0 65 19t40 69z"/><glyph glyph-name="z" unicode="z" horiz-adv-x="477" d="M28 0v95l269 320H42v99h395v-98L174 100h280L438 0H28z"/><glyph glyph-name="braceleft" unicode="{" horiz-adv-x="380" d="M26 230v98q66 0 87 24.5t21 79.5v119q0 88 49.5 133.5T314 730h29v-88h-15q-44 0-62.5-25T247 543V432q0-134-106-152 106-19 106-155V16q0-102 84-102h12v-89h-29q-77 0-128.5 43T134 3v123q0 53-21 78t-87 26z"/><glyph glyph-name="bar" unicode="|" horiz-adv-x="304" d="M97 781h110V-261H97V781z"/><glyph glyph-name="braceright" unicode="}" horiz-adv-x="380" d="M343 326v-98q-66 0-87-25t-21-80V4q0-88-49.5-133.5T55-175H26v89h14q45 0 63.5 24.5T122 12v111q0 134 106 152-106 19-106 155v109q0 103-84 103H26v88h29q77 0 128.5-43T235 552V429q0-53 21-78t87-25z"/><glyph glyph-name="asciitilde" unicode="~" horiz-adv-x="686" d="M176 197H86v35q-1 75 34 109t88 34q43 0 96-22t97.5-44 66.5-22 32.5 14.5T511 352v17h89v-24q0-154-122-154-41 0-93 22t-96.5 44-68.5 22q-44 0-44-62v-20z"/><glyph glyph-name="uni00A0" horiz-adv-x="246"/><glyph glyph-name="exclamdown" unicode="¡" horiz-adv-x="275" d="M72 269h101l16-326v-121H56v121zm-9 245h122V358H63v156z"/><glyph glyph-name="cent" unicode="¢" horiz-adv-x="549" d="M395 238h123q-12-63-56-106.5T349 74v-86H244v85q-91 14-144 81.5T47 322q0 95 52.5 165.5T245 573v66h104v-67q84-14 124.5-63.5T518 405H395q-23 76-104 76-59 0-89-43.5T172 326q0-69 30-114t88-45q79 0 105 71z"/><glyph glyph-name="sterling" unicode="£" horiz-adv-x="532" d="M501 0H35v97q41 21 56 63.5T106 281v8H23v90h78q-2 40-2 70 0 100 50 160t149 60q53 0 92-16.5t60-44 31-55 12-57.5H374q-12 73-77 73-41 0-58-27.5T222 460q0-31 2-81h144v-90H226q0-127-45-183h335z"/><glyph glyph-name="currency" unicode="¤" horiz-adv-x="553" d="M279 558q64 0 115-34l71 74 66-70-73-75q24-48 24-106 0-60-25-110l74-76-66-71-71 74q-49-34-117-34-64 0-114 33L93 90l-67 71 73 74q-26 47-26 109 0 61 27 109l-74 75 67 70 71-73q53 33 115 33zm-2-92q-49 0-76.5-31.5T173 345q0-64 30.5-94.5T277 220q102 0 102 126 0 57-26.5 88.5T277 466z"/><glyph glyph-name="yen" unicode="¥" horiz-adv-x="497" d="M435 147H305V0H181v147H53v77h128v59H53v77h109L-11 658h140q111-216 120-243h1q10 25 123 243h129L324 360h111v-77H305v-59h130v-77z"/><glyph glyph-name="brokenbar" unicode="¦" horiz-adv-x="248" d="M77 179h102v-358H77v358zm0 510h102V333H77v356z"/><glyph glyph-name="section" unicode="§" horiz-adv-x="585" d="M505 524H388q-18 70-99 70-42 0-63.5-18T204 528q0-32 24-48.5t96-44.5q4-2 7-3l6-2q103-41 150-87.5T534 222q0-91-75-149 39-35 39-104 0-82-58-128.5T282-206q-102 0-163 45T48-35h122q18-79 114-79t96 72q0 35-27 56T242 65q-111 39-155.5 84T42 266q0 45 23.5 84.5T128 414q-39 37-39 101 0 75 55 123t151 48q56 0 98-15.5t65-41.5 34-52 13-53zM153 287q0-34 20.5-57.5T261 182q93-36 126-55 35 28 35 76 0 39-23.5 63.5T309 321q-73 29-107 46-49-31-49-80z"/><glyph glyph-name="dieresis" unicode="¨" d="M155 609H53v121h102V609zm192 0H245v121h102V609z"/><glyph glyph-name="copyright" unicode="©" horiz-adv-x="783" d="M475 283l82 1q-14-61-55-97t-110-36q-80 0-130 54.5T212 347q0 84 49 141t132 58q75 0 117-40.5t48-92.5h-81q-20 63-85 63-41 0-67.5-33T298 351q0-60 26-94.5t69-34.5q62 0 82 61zm-87 417q146 0 243.5-100T729 346 631.5 91 388-10q-149 0-246 98.5T45 346q0 152 98 253t245 101zm-1-59q-121 0-199-80t-78-217q0-127 79-210.5T387 50q121 0 198.5 79.5T663 345q0 130-78 213t-198 83z"/><glyph glyph-name="ordfeminine" unicode="ª" horiz-adv-x="369" d="M325 484V344q0-61 1-83l-88-1q-1 8-2 22.5t-1 16.5q-31-44-98-44-54 0-85 29.5T21 360q0 110 158 110h52v20q0 50-52 50-27 0-38.5-11.5T126 496H36q5 44 38 75t108 31q143 0 143-118zm-91-81v10h-46q-72 0-72-44 0-43 50-43 68 0 68 77z"/><glyph glyph-name="guillemotleft" unicode="«" horiz-adv-x="583" d="M314 456L166 260 314 64H204L54 260l150 196h110zm215 0L380 260 529 64H418L268 260l150 196h111z"/><glyph glyph-name="logicalnot" unicode="¬" horiz-adv-x="713" d="M77 415h553V76H523v234H77v105z"/><glyph glyph-name="uni00AD" unicode="­" horiz-adv-x="383" d="M55 312h273V202H55v110z"/><glyph glyph-name="registered" unicode="®" horiz-adv-x="355" d="M163 450h-48v166h78q69 0 69-48 0-31-28-39 23-9 23-43 0-16 2-36h-48q-4 9-4 34 0 15-5.5 21t-20.5 6h-18v-61zm2 132v-37h22q24 0 24 20 0 17-25 17h-21zm20 120q74 0 120.5-50T352 530q0-77-46-125.5T185 356q-72 0-119.5 50T18 530t46.5 123T185 702zm-1-38q-58 0-92-38.5T58 529q0-56 36.5-95t90.5-39q60 0 93 36.5t33 97.5q0 60-35 97.5T184 664z"/><glyph glyph-name="macron" unicode="¯" d="M54 706h292v-94H54v94z"/><glyph glyph-name="degree" unicode="°" horiz-adv-x="335" d="M170 681q64 0 102-39.5t38-97.5q0-64-40.5-102.5T168 403q-62 0-100 38.5T30 540q0 61 40 101t100 40zm-1-57q-33 0-52.5-23.5T97 541q0-35 20-58t52-23q35 0 54.5 23t19.5 60q0 33-19.5 57T169 624z"/><glyph glyph-name="plusminus" unicode="±" horiz-adv-x="713" d="M308 681h98V470h227v-96H406V161h-98v213H80v96h228v211zM634 0H81v96h553V0z"/><glyph glyph-name="two.sups" unicode="²" horiz-adv-x="372" d="M341 428H36v7q0 60 29 105t95 86q50 29 64.5 42.5T239 704q0 50-54 50-51 0-61-59H32q5 60 46.5 97.5T189 830q78 0 114-38t36-85q0-46-23-72.5T234 576q-71-40-85-73h205z"/><glyph glyph-name="three.sups" unicode="³" horiz-adv-x="384" d="M150 598v78h30q60 0 60 38 0 44-57 44-52 0-64-48H32q2 18 9.5 36T65 784.5t47.5 33T187 830q72 0 110-31.5t38-79.5q0-31-17-50t-39-27q28-9 50.5-32.5T352 546q0-49-38.5-85.5T190 424q-48 0-82.5 13.5t-51 35-24 40T24 549h93q5-22 23.5-37.5T191 496q29 0 45.5 14t16.5 37q0 51-66 51h-37z"/><glyph glyph-name="acute" unicode="´" d="M247 741h149L239 591H128z"/><glyph glyph-name="uni00B5" unicode="µ" horiz-adv-x="570" d="M253-10q-44 0-70 26 3-64 5-217H65v715h124V202q0-109 86-109 104 0 104 138v283h124V152q0-126 2-152H385q-4 12-6 67-20-40-49.5-58.5T253-10z"/><glyph glyph-name="paragraph" unicode="¶" horiz-adv-x="625" d="M503-154h-89v287H298q-121-1-186.5 65.5T46 388q0 117 62.5 186T287 643h126q6 58 6 59h85q-1-19-1-69v-787zM368 227h45v330h-46q-26 0-43.5-13T298 505t-10.5-48.5T284 399q0-26 .5-37.5t2.5-37 7-38.5 14-29 24-23 36-7z"/><glyph glyph-name="periodcentered" unicode="·" horiz-adv-x="234" d="M184 200H51v166h133V200z"/><glyph glyph-name="cedilla" unicode="¸" d="M181 10l80-10-42-48q90-21 90-94 0-30-12.5-51t-34-31.5-43-15T174-244q-48 0-74 11v70q24-7 59-7 47 0 47 28 0 36-92 38v32z"/><glyph glyph-name="one.sups" unicode="¹" horiz-adv-x="261" d="M198 428H99v288q-36-13-75-11v72q61 8 108 53h66V428z"/><glyph glyph-name="ordmasculine" unicode="º" horiz-adv-x="393" d="M199 602q78 0 123-47.5T367 429q-1-83-49-128.5T194 255q-75 0-121.5 47T26 427q0 80 47.5 127.5T199 602zm-3-69q-36 0-55.5-27T121 428q0-47 20-75.5t55-28.5q77 0 77 106-3 103-77 103z"/><glyph glyph-name="guillemotright" unicode="»" horiz-adv-x="583" d="M269 64l148 196-148 196h109l151-196L378 64H269zM54 64l149 196L54 456h111l149-196L165 64H54z"/><glyph glyph-name="onequarter" unicode="¼" horiz-adv-x="810" d="M202 1h-87l423 658h87zm5 260h-99v288q-36-13-75-11v72q61 8 108 53h66V261zM720 0h-90v97H436v71l168 228h116V168h59l-7-71h-52V0zM524 168h106v60q0 58 3 94 0-1-109-154z"/><glyph glyph-name="onehalf" unicode="½" horiz-adv-x="841" d="M203 0h-87l423 658h87zm7 261h-99v288q-36-13-75-11v72q61 8 108 53h66V261zM798 0H493v7q0 60 29 105t95 86q50 29 64.5 42.5T696 276q0 50-54 50-51 0-61-59h-92q5 60 46.5 97.5T646 402q78 0 114-38t36-85q0-46-23-72.5T691 148q-71-40-85-73h205z"/><glyph glyph-name="threequarters" unicode="¾" horiz-adv-x="897" d="M313 1h-87l423 658h87zm498-1h-90v97H527v71l168 228h116V168h59l-7-71h-52V0zM615 168h106v60q0 58 3 94 0-1-109-154zM163 431v78h30q60 0 60 38 0 44-57 44-52 0-64-48H45q2 18 9.5 36T78 617.5t47.5 33T200 663q72 0 110-31.5t38-79.5q0-31-17-50t-39-27q28-9 50.5-32.5T365 379q0-49-38.5-85.5T203 257q-48 0-82.5 13.5t-51 35-24 40T37 382h93q5-22 23.5-37.5T204 329q29 0 45.5 14t16.5 37q0 51-66 51h-37z"/><glyph glyph-name="questiondown" unicode="¿" horiz-adv-x="473" d="M25-8q0 51 20 93t71 89q35 32 49 57.5t14 57.5v10h129v-20q0-46-21.5-84.5T209 103q-35-32-48.5-56.5T147-7q0-34 23-59t65-25q93 0 104 110h110q-2-88-54-147.5T229-188q-104 1-154 53.5T25-8zm154 522h129V358H179v156z"/><glyph glyph-name="Agrave" unicode="À" horiz-adv-x="678" d="M464 176H203L142 0H14l239 692h162L664 0H527zM232 284h202q-92 268-104 311h-1q-18-68-97-311zM112 890h156l128-139H279z"/><glyph glyph-name="Aacute" unicode="Á" horiz-adv-x="678" d="M464 176H203L142 0H14l239 692h162L664 0H527zM232 284h202q-92 268-104 311h-1q-18-68-97-311zm178 606h154L389 751H270z"/><glyph glyph-name="Acircumflex" unicode="Â" horiz-adv-x="678" d="M464 176H203L142 0H14l239 692h162L664 0H527zM232 284h202q-92 268-104 311h-1q-18-68-97-311zm42 603h124l128-136H408l-73 75-74-75H142z"/><glyph glyph-name="Atilde" unicode="Ã" horiz-adv-x="678" d="M464 176H203L142 0H14l239 692h162L664 0H527zM232 284h202q-92 268-104 311h-1q-18-68-97-311zm8 476h-82v30q0 56 23.5 80t68.5 24q37 0 90-24t66-24q28 0 28 38v9h80v-23q0-64-24-89.5T419 755q-30 0-84 24t-69 24q-26 0-26-28v-15z"/><glyph glyph-name="Adieresis" unicode="Ä" horiz-adv-x="678" d="M464 176H203L142 0H14l239 692h162L664 0H527zM232 284h202q-92 268-104 311h-1q-18-68-97-311zm56 479H186v121h102V763zm198 0H384v121h102V763z"/><glyph glyph-name="Aring" unicode="Å" horiz-adv-x="678" d="M464 176H203L142 0H14l239 692h162L664 0H527zM232 284h202q-92 268-104 311h-1q-18-68-97-311zm102 444q-53 0-85 28.5T217 828q0 44 31 73t85 29 85-28 31-72q0-45-31.5-73.5T334 728zm-2 55q24 0 37 13.5t13 32.5-12.5 33-36.5 14q-25 0-37-13.5T284 830t12-33 36-14z"/><glyph glyph-name="AE" unicode="Æ" horiz-adv-x="982" d="M387 692h546V583H583V415h335V307H583V109h369L936 0H456v210H234L109 0H-28zm-95-373h164v275h-2z"/><glyph glyph-name="Ccedilla" unicode="Ç" horiz-adv-x="703" d="M529 207h130q-19-86-78-142T427-5l-38-43q90-21 90-94 0-30-12.5-51t-34-31.5-43-15T344-244q-48 0-74 11v70q24-7 59-7 47 0 47 28 0 36-92 38v32l52 64Q197 3 123.5 99.5T50 343q0 98 34.5 177.5t110 130.5T375 702q124 0 196.5-62T659 483H529q-34 115-159 115-64 0-107-36.5t-61-91T184 347q0-105 46-179t144-74q113 0 155 113z"/><glyph glyph-name="Egrave" unicode="È" horiz-adv-x="611" d="M547 414V307H212V107h369L565 0H85v692h477V584H212V414h335zM118 895h156l128-139H285z"/><glyph glyph-name="Eacute" unicode="É" horiz-adv-x="611" d="M547 414V307H212V107h369L565 0H85v692h477V584H212V414h335zM395 894h154L374 755H255z"/><glyph glyph-name="Ecircumflex" unicode="Ê" horiz-adv-x="611" d="M547 414V307H212V107h369L565 0H85v692h477V584H212V414h335zM265 890h124l128-136H399l-73 75-74-75H133z"/><glyph glyph-name="Edieresis" unicode="Ë" horiz-adv-x="611" d="M547 414V307H212V107h369L565 0H85v692h477V584H212V414h335zM277 765H175v121h102V765zm198 0H373v121h102V765z"/><glyph glyph-name="Igrave" unicode="Ì" horiz-adv-x="300" d="M85 692h130V0H85v692zM-71 892H85l128-139H96z"/><glyph glyph-name="Iacute" unicode="Í" horiz-adv-x="300" d="M85 692h130V0H85v692zm142 198h154L206 751H87z"/><glyph glyph-name="Icircumflex" unicode="Î" horiz-adv-x="300" d="M85 692h130V0H85v692zm5 195h124l128-136H224l-73 75-74-75H-42z"/><glyph glyph-name="Idieresis" unicode="Ï" horiz-adv-x="300" d="M85 692h130V0H85v692zm17 71H0v121h102V763zm198 0H198v121h102V763z"/><glyph glyph-name="Eth" unicode="Ð" horiz-adv-x="740" d="M17 401h78v291h265q150 0 240.5-92.5T691 354q0-155-91.5-254.5T355 0H95v310H17v91zm208 185V401h158v-91H225V106h124q103 0 155.5 67.5T557 353q0 99-52 166t-156 67H225z"/><glyph glyph-name="Ntilde" unicode="Ñ" horiz-adv-x="751" d="M205 0H85v692h164q14-24 102.5-176T489 277.5 553 157h1q-7 78-7 307v228h119V0H512Q253 447 200 558h-1q6-80 6-325V0zm75 760h-82v30q0 56 23.5 80t68.5 24q37 0 90-24t66-24q28 0 28 38v9h80v-23q0-64-24-89.5T459 755q-30 0-84 24t-69 24q-26 0-26-28v-15z"/><glyph glyph-name="Ograve" unicode="Ò" horiz-adv-x="760" d="M385 702q149 0 237.5-97.5T711 349q0-153-88-256T376-10Q222-10 136 90.5T50 346t90 255.5T385 702zm-6-107q-98 0-146.5-67.5T184 349q0-110 51-181t146-71q100 0 147.5 70.5T576 347q0 110-49.5 179T379 595zM168 902h156l128-139H335z"/><glyph glyph-name="Oacute" unicode="Ó" horiz-adv-x="760" d="M385 702q149 0 237.5-97.5T711 349q0-153-88-256T376-10Q222-10 136 90.5T50 346t90 255.5T385 702zm-6-107q-98 0-146.5-67.5T184 349q0-110 51-181t146-71q100 0 147.5 70.5T576 347q0 110-49.5 179T379 595zm74 303h154L432 759H313z"/><glyph glyph-name="Ocircumflex" unicode="Ô" horiz-adv-x="760" d="M385 702q149 0 237.5-97.5T711 349q0-153-88-256T376-10Q222-10 136 90.5T50 346t90 255.5T385 702zm-6-107q-98 0-146.5-67.5T184 349q0-110 51-181t146-71q100 0 147.5 70.5T576 347q0 110-49.5 179T379 595zm-59 294h124l128-136H454l-73 75-74-75H188z"/><glyph glyph-name="Otilde" unicode="Õ" horiz-adv-x="760" d="M385 702q149 0 237.5-97.5T711 349q0-153-88-256T376-10Q222-10 136 90.5T50 346t90 255.5T385 702zm-6-107q-98 0-146.5-67.5T184 349q0-110 51-181t146-71q100 0 147.5 70.5T576 347q0 110-49.5 179T379 595zm-95 167h-82v30q0 56 23.5 80t68.5 24q37 0 90-24t66-24q28 0 28 38v9h80v-23q0-64-24-89.5T463 757q-30 0-84 24t-69 24q-26 0-26-28v-15z"/><glyph glyph-name="Odieresis" unicode="Ö" horiz-adv-x="760" d="M385 702q149 0 237.5-97.5T711 349q0-153-88-256T376-10Q222-10 136 90.5T50 346t90 255.5T385 702zm-6-107q-98 0-146.5-67.5T184 349q0-110 51-181t146-71q100 0 147.5 70.5T576 347q0 110-49.5 179T379 595zm-47 170H230v121h102V765zm198 0H428v121h102V765z"/><glyph glyph-name="multiply" unicode="×" horiz-adv-x="713" d="M630 72L561 0 357 213 153 0 84 72l205 212L84 498l67 70 206-213 205 213 68-70-205-214z"/><glyph glyph-name="Oslash" unicode="Ø" horiz-adv-x="760" d="M385 702q97 0 172-44l25 34h88l-56-78q100-97 100-265 0-74-21.5-138t-62-113.5-106-78.5T376-10q-104 0-180 51L166 0H78l63 87Q50 187 50 346q0 152 90.5 254T385 702zM180 349q0-89 38-157l273 374q-46 32-112 32-95 0-147-68t-52-181zM381 93q100 0 150 72t50 182q0 104-41 167L264 135q50-42 117-42z"/><glyph glyph-name="Ugrave" unicode="Ù" horiz-adv-x="722" d="M77 692h130V278q0-99 43.5-141.5T362 94q153 0 153 184v414h130V285Q645-9 360-9 77-9 77 281v411zm72 198h156l128-139H316z"/><glyph glyph-name="Uacute" unicode="Ú" horiz-adv-x="722" d="M77 692h130V278q0-99 43.5-141.5T362 94q153 0 153 184v414h130V285Q645-9 360-9 77-9 77 281v411zm354 198h154L410 751H291z"/><glyph glyph-name="Ucircumflex" unicode="Û" horiz-adv-x="722" d="M77 692h130V278q0-99 43.5-141.5T362 94q153 0 153 184v414h130V285Q645-9 360-9 77-9 77 281v411zm224 199h124l128-136H435l-73 75-74-75H169z"/><glyph glyph-name="Udieresis" unicode="Ü" horiz-adv-x="722" d="M77 692h130V278q0-99 43.5-141.5T362 94q153 0 153 184v414h130V285Q645-9 360-9 77-9 77 281v411zm236 71H211v121h102V763zm198 0H409v121h102V763z"/><glyph glyph-name="Yacute" unicode="Ý" horiz-adv-x="610" d="M368 0H238v248q0 10-6 21L-8 692h147q125-235 170-330 31 70 172 330h137L373 269q-5-7-5-20V0zm10 885h154L357 746H238z"/><glyph glyph-name="Thorn" unicode="Þ" horiz-adv-x="649" d="M85 0v692h130V561h146q118 0 179.5-58T602 355q0-99-66-156.5T354 141H215V0H85zm130 456V246h131q127 0 127 107 0 50-33 76.5T348 456H215z"/><glyph glyph-name="germandbls" unicode="ß" horiz-adv-x="613" d="M313 742q122 0 180.5-57.5T554 546q0-23-1-33L397 406v-1l69-50q64-46 89.5-88t25.5-95q0-81-52.5-131T382-9q-97 0-151 42v114q61-59 144-59 44 0 64 20.5t20 50.5q0 27-14.5 49T389 260l-85 62q-43 32-43.5 70t43.5 68l124 85q1 40-25 70t-93 30q-57 0-88-28.5T191 517V0H67v526q0 114 67.5 165T313 742z"/><glyph glyph-name="agrave" unicode="à" horiz-adv-x="549" d="M480 352V126q0-96 7-126H368q-6 16-8 56-39-68-149-68-86 0-130.5 47T36 148q0 85 64 127.5T280 318h78v35q0 37-19 59.5T268 435q-47 0-65-17.5T179 366H60q6 71 56.5 116T273 526q207-2 207-174zM359 225v15h-67q-68 0-99.5-20.5T161 155q0-33 21.5-54.5T244 79q69 0 92 38.5T359 225zM78 741h150l119-150H235z"/><glyph glyph-name="aacute" unicode="á" horiz-adv-x="549" d="M480 352V126q0-96 7-126H368q-6 16-8 56-39-68-149-68-86 0-130.5 47T36 148q0 85 64 127.5T280 318h78v35q0 37-19 59.5T268 435q-47 0-65-17.5T179 366H60q6 71 56.5 116T273 526q207-2 207-174zM359 225v15h-67q-68 0-99.5-20.5T161 155q0-33 21.5-54.5T244 79q69 0 92 38.5T359 225zm-37 516h149L314 591H203z"/><glyph glyph-name="acircumflex" unicode="â" horiz-adv-x="549" d="M480 352V126q0-96 7-126H368q-6 16-8 56-39-68-149-68-86 0-130.5 47T36 148q0 85 64 127.5T280 318h78v35q0 37-19 59.5T268 435q-47 0-65-17.5T179 366H60q6 71 56.5 116T273 526q207-2 207-174zM359 225v15h-67q-68 0-99.5-20.5T161 155q0-33 21.5-54.5T244 79q69 0 92 38.5T359 225zM220 731h109l115-150H330l-57 83-53-83H106z"/><glyph glyph-name="atilde" unicode="ã" horiz-adv-x="549" d="M480 352V126q0-96 7-126H368q-6 16-8 56-39-68-149-68-86 0-130.5 47T36 148q0 85 64 127.5T280 318h78v35q0 37-19 59.5T268 435q-47 0-65-17.5T179 366H60q6 71 56.5 116T273 526q207-2 207-174zM359 225v15h-67q-68 0-99.5-20.5T161 155q0-33 21.5-54.5T244 79q69 0 92 38.5T359 225zM190 594h-81v31q0 105 89 105 32 0 77.5-22.5T334 685q27 0 27 37v9h80v-24q0-115-93-115-34 0-77 22t-57 22q-24 0-24-27v-15z"/><glyph glyph-name="adieresis" unicode="ä" horiz-adv-x="549" d="M480 352V126q0-96 7-126H368q-6 16-8 56-39-68-149-68-86 0-130.5 47T36 148q0 85 64 127.5T280 318h78v35q0 37-19 59.5T268 435q-47 0-65-17.5T179 366H60q6 71 56.5 116T273 526q207-2 207-174zM359 225v15h-67q-68 0-99.5-20.5T161 155q0-33 21.5-54.5T244 79q69 0 92 38.5T359 225zM230 609H128v121h102V609zm192 0H320v121h102V609z"/><glyph glyph-name="aring" unicode="å" horiz-adv-x="549" d="M480 352V126q0-96 7-126H368q-6 16-8 56-39-68-149-68-86 0-130.5 47T36 148q0 85 64 127.5T280 318h78v35q0 37-19 59.5T268 435q-47 0-65-17.5T179 366H60q6 71 56.5 116T273 526q207-2 207-174zM359 225v15h-67q-68 0-99.5-20.5T161 155q0-33 21.5-54.5T244 79q69 0 92 38.5T359 225zm-83 344q-53 0-85 28.5T159 669q0 44 31 73t85 29 85-28 31-72q0-45-31.5-73.5T276 569zm-2 55q24 0 37 13.5t13 32.5-12.5 33-36.5 14q-25 0-37-13.5T226 671t12-33 36-14z"/><glyph glyph-name="ae" unicode="æ" horiz-adv-x="865" d="M702 152h124Q782-10 593-10q-132 0-188 85-58-85-185-85-89 0-136.5 45.5T36 147q0 167 280 167h47v39q0 85-82 85-42 0-61.5-18T194 368H62q6 75 61 115.5T271 524q131 0 169-66 55 66 165 66 113 0 169-70.5T830 283v-50H479q-1-66 30.5-107.5T598 84q44 0 67.5 16.5T702 152zm-339 69v12h-53q-74 0-111.5-17.5T161 155q0-29 22-50t63-21q117 0 117 137zm118 93h227q-4 117-110 118-53 1-82.5-31T481 314z"/><glyph glyph-name="ccedilla" unicode="ç" horiz-adv-x="527" d="M377 163h123q-14-62-54-108.5T334-6l-36-42q90-21 90-94 0-30-12.5-51t-34-31.5-43-15T253-244q-48 0-74 11v70q25-7 59-7 47 0 47 28 0 36-92 38v32l50 62Q145 0 91 71T37 254q0 116 66 194t179 78q58 0 102-19t67.5-48.5 35-57.5 13.5-54H378q-17 80-99 80-55 0-85-45t-30-124q0-83 30-127.5T278 86q74 0 99 77z"/><glyph glyph-name="egrave" unicode="è" horiz-adv-x="544" d="M508 231H161q0-61 30.5-102.5T277 87q45 0 66.5 16.5T378 150h125q-8-28-22.5-53T440 45.5t-69-42T273-12Q156-12 96 64T36 250q0 124 62.5 200T279 526q62 0 108.5-21.5T460 446t38-80 12-91q0-29-2-44zm-344 79h221q-1 56-27 90.5T278 435q-102 0-114-125zM79 741h150l119-150H236z"/><glyph glyph-name="eacute" unicode="é" horiz-adv-x="544" d="M508 231H161q0-61 30.5-102.5T277 87q45 0 66.5 16.5T378 150h125q-8-28-22.5-53T440 45.5t-69-42T273-12Q156-12 96 64T36 250q0 124 62.5 200T279 526q62 0 108.5-21.5T460 446t38-80 12-91q0-29-2-44zm-344 79h221q-1 56-27 90.5T278 435q-102 0-114-125zm158 431h149L314 591H203z"/><glyph glyph-name="ecircumflex" unicode="ê" horiz-adv-x="544" d="M508 231H161q0-61 30.5-102.5T277 87q45 0 66.5 16.5T378 150h125q-8-28-22.5-53T440 45.5t-69-42T273-12Q156-12 96 64T36 250q0 124 62.5 200T279 526q62 0 108.5-21.5T460 446t38-80 12-91q0-29-2-44zm-344 79h221q-1 56-27 90.5T278 435q-102 0-114-125zm63 421h109l115-150H337l-57 83-53-83H113z"/><glyph glyph-name="edieresis" unicode="ë" horiz-adv-x="544" d="M508 231H161q0-61 30.5-102.5T277 87q45 0 66.5 16.5T378 150h125q-8-28-22.5-53T440 45.5t-69-42T273-12Q156-12 96 64T36 250q0 124 62.5 200T279 526q62 0 108.5-21.5T460 446t38-80 12-91q0-29-2-44zm-344 79h221q-1 56-27 90.5T278 435q-102 0-114-125zm70 299H132v121h102V609zm192 0H324v121h102V609z"/><glyph glyph-name="igrave" unicode="ì" horiz-adv-x="260" d="M68 0v514h124V0H68zM-82 741H68l119-150H75z"/><glyph glyph-name="iacute" unicode="í" horiz-adv-x="260" d="M68 0v514h124V0H68zm123 741h149L183 591H72z"/><glyph glyph-name="icircumflex" unicode="î" horiz-adv-x="260" d="M68 0v514h124V0H68zm7 731h109l115-150H185l-57 83-53-83H-39z"/><glyph glyph-name="idieresis" unicode="ï" horiz-adv-x="260" d="M68 0v514h124V0H68zm17 609H-17v121H85V609zm192 0H175v121h102V609z"/><glyph glyph-name="eth" unicode="ð" horiz-adv-x="556" d="M97 649v93q114-10 204-58l105 74 34-55-81-56q161-122 161-351 0-155-68-231.5T272-12Q159-12 95.5 60.5T32 246t69 180.5T279 494q49 0 82-19-31 68-92 109l-119-83-34 53 91 64q-50 21-110 31zm187-253q-57 0-91.5-43T158 241q0-67 31-111t88-44q59 0 88.5 49.5T395 273q0 123-111 123z"/><glyph glyph-name="ntilde" unicode="ñ" horiz-adv-x="584" d="M69 0v385q0 90-1 129h120q5-23 5-72 42 84 153 84 78 0 124.5-51T517 328V0H393v314q0 110-91 110-109 0-109-142V0H69zm136 600h-81v31q0 105 89 105 32 0 77.5-22.5T349 691q27 0 27 37v9h80v-24q0-115-93-115-34 0-77 22t-57 22q-24 0-24-27v-15z"/><glyph glyph-name="ograve" unicode="ò" horiz-adv-x="570" d="M289 526q111 0 178-73.5T534 258q0-118-67-194T283-12q-115 0-181 75T36 256q0 120 67.5 195T289 526zm-5-99q-58 0-90-43.5T162 257q0-78 33-124t91-46 89.5 45T407 256q0 83-31.5 127T284 427zM88 741h150l119-150H245z"/><glyph glyph-name="oacute" unicode="ó" horiz-adv-x="570" d="M289 526q111 0 178-73.5T534 258q0-118-67-194T283-12q-115 0-181 75T36 256q0 120 67.5 195T289 526zm-5-99q-58 0-90-43.5T162 257q0-78 33-124t91-46 89.5 45T407 256q0 83-31.5 127T284 427zm49 314h149L325 591H214z"/><glyph glyph-name="ocircumflex" unicode="ô" horiz-adv-x="570" d="M289 526q111 0 178-73.5T534 258q0-118-67-194T283-12q-115 0-181 75T36 256q0 120 67.5 195T289 526zm-5-99q-58 0-90-43.5T162 257q0-78 33-124t91-46 89.5 45T407 256q0 83-31.5 127T284 427zm-55 304h109l115-150H339l-57 83-53-83H115z"/><glyph glyph-name="otilde" unicode="õ" horiz-adv-x="570" d="M289 526q111 0 178-73.5T534 258q0-118-67-194T283-12q-115 0-181 75T36 256q0 120 67.5 195T289 526zm-5-99q-58 0-90-43.5T162 257q0-78 33-124t91-46 89.5 45T407 256q0 83-31.5 127T284 427zm-85 167h-81v31q0 105 89 105 32 0 77.5-22.5T343 685q27 0 27 37v9h80v-24q0-115-93-115-34 0-77 22t-57 22q-24 0-24-27v-15z"/><glyph glyph-name="odieresis" unicode="ö" horiz-adv-x="570" d="M289 526q111 0 178-73.5T534 258q0-118-67-194T283-12q-115 0-181 75T36 256q0 120 67.5 195T289 526zm-5-99q-58 0-90-43.5T162 257q0-78 33-124t91-46 89.5 45T407 256q0 83-31.5 127T284 427zm-45 182H137v121h102V609zm192 0H329v121h102V609z"/><glyph glyph-name="divide" unicode="÷" horiz-adv-x="713" d="M410 0H303v135h107V0zm223 230H80v106h553V230zM410 429H303v136h107V429z"/><glyph glyph-name="oslash" unicode="ø" horiz-adv-x="570" d="M289 526q76 0 134-36l20 27h69l-46-63q69-75 69-198 0-122-69-195T282-13q-75 0-133 36l-24-33H57l50 68q-72 75-72 196 0 125 70.5 198.5T289 526zm-4-93q-62 0-95-45t-33-130q0-62 20-105l185 254q-31 26-77 26zm1-353q59 0 93 45.5T413 254q0 62-17 105L211 107q30-27 75-27z"/><glyph glyph-name="ugrave" unicode="ù" horiz-adv-x="575" d="M507 514V150q0-109 1-150H387q-2 11-4 65-42-77-146-77-78 0-124.5 47T66 178v336h124V203q0-112 88-112 57 0 81 34.5T383 242v272h124zM91 741h150l119-150H248z"/><glyph glyph-name="uacute" unicode="ú" horiz-adv-x="575" d="M507 514V150q0-109 1-150H387q-2 11-4 65-42-77-146-77-78 0-124.5 47T66 178v336h124V203q0-112 88-112 57 0 81 34.5T383 242v272h124zM337 741h149L329 591H218z"/><glyph glyph-name="ucircumflex" unicode="û" horiz-adv-x="575" d="M507 514V150q0-109 1-150H387q-2 11-4 65-42-77-146-77-78 0-124.5 47T66 178v336h124V203q0-112 88-112 57 0 81 34.5T383 242v272h124zM232 731h109l115-150H342l-57 83-53-83H118z"/><glyph glyph-name="udieresis" unicode="ü" horiz-adv-x="575" d="M507 514V150q0-109 1-150H387q-2 11-4 65-42-77-146-77-78 0-124.5 47T66 178v336h124V203q0-112 88-112 57 0 81 34.5T383 242v272h124zm-265 95H140v121h102V609zm192 0H332v121h102V609z"/><glyph glyph-name="yacute" unicode="ý" horiz-adv-x="506" d="M7 514h133q107-336 120-401h1q24 100 114 401h124L322-18q-38-113-79-152t-128-39q-32 0-63 4v102q22-2 39-2 42 0 65 19t40 69zm295 227h149L294 591H183z"/><glyph glyph-name="thorn" unicode="þ" horiz-adv-x="588" d="M192-201H68v932h124V449q47 75 152 75 90 0 149-68t59-187q0-130-65.5-205T321-11q-89 0-129 61v-251zm234 465q0 78-33 118.5T306 423q-62 0-91-47t-29-119q0-167 116-167 57 0 90.5 44.5T426 264z"/><glyph glyph-name="ydieresis" unicode="ÿ" horiz-adv-x="506" d="M7 514h133q107-336 120-401h1q24 100 114 401h124L322-18q-38-113-79-152t-128-39q-32 0-63 4v102q22-2 39-2 42 0 65 19t40 69zm201 95H106v121h102V609zm192 0H298v121h102V609z"/><glyph glyph-name="Amacron" unicode="Ā" horiz-adv-x="678" d="M464 176H203L142 0H14l239 692h162L664 0H527zM232 284h202q-92 268-104 311h-1q-18-68-97-311zm-44 572h298v-90H188v90z"/><glyph glyph-name="amacron" unicode="ā" horiz-adv-x="549" d="M480 352V126q0-96 7-126H368q-6 16-8 56-39-68-149-68-86 0-130.5 47T36 148q0 85 64 127.5T280 318h78v35q0 37-19 59.5T268 435q-47 0-65-17.5T179 366H60q6 71 56.5 116T273 526q207-2 207-174zM359 225v15h-67q-68 0-99.5-20.5T161 155q0-33 21.5-54.5T244 79q69 0 92 38.5T359 225zM129 706h292v-94H129v94z"/><glyph glyph-name="Abreve" unicode="Ă" horiz-adv-x="678" d="M464 176H203L142 0H14l239 692h162L664 0H527zM232 284h202q-92 268-104 311h-1q-18-68-97-311zm-61 602h89q5-27 25.5-43.5T337 826q66 0 78 60h88q-8-60-49.5-100.5T336 745q-79 0-119.5 41.5T171 886z"/><glyph glyph-name="abreve" unicode="ă" horiz-adv-x="549" d="M480 352V126q0-96 7-126H368q-6 16-8 56-39-68-149-68-86 0-130.5 47T36 148q0 85 64 127.5T280 318h78v35q0 37-19 59.5T268 435q-47 0-65-17.5T179 366H60q6 71 56.5 116T273 526q207-2 207-174zM359 225v15h-67q-68 0-99.5-20.5T161 155q0-33 21.5-54.5T244 79q69 0 92 38.5T359 225zM120 726h87q15-58 68-58 32 0 46.5 15t21.5 43h86q-8-63-46.5-103.5T273 582q-74 0-111.5 42T120 726z"/><glyph glyph-name="Aogonek" unicode="Ą" horiz-adv-x="678" d="M464 176H203L142 0H14l239 692h162L664 0h-10q-63-49-63-95 0-22 14-34t38-12q31 0 50 6v-87q-31-15-86-15-59 0-92.5 30T481-123q0 65 60 123h-14zM232 284h202q-92 268-104 311h-1q-18-68-97-311z"/><glyph glyph-name="aogonek" unicode="ą" horiz-adv-x="549" d="M480 352V126q0-96 7-126h-2q-63-49-63-95 0-22 14-34t38-12q30 0 50 6v-87q-31-15-86-15-59 0-92.5 30T312-123q0 65 60 123h-4q-6 16-8 56-39-68-149-68-86 0-130.5 47T36 148q0 85 64 127.5T280 318h78v35q0 37-19 59.5T268 435q-47 0-65-17.5T179 366H60q6 71 56.5 116T273 526q207-2 207-174zM359 225v15h-67q-68 0-99.5-20.5T161 155q0-33 21.5-54.5T244 79q69 0 92 38.5T359 225z"/><glyph glyph-name="Cacute" unicode="Ć" horiz-adv-x="703" d="M529 207h130q-23-99-96.5-157.5T369-9Q214-9 132 89.5T50 343q0 98 34.5 177.5t110 130.5T375 702q124 0 196.5-62T659 483H529q-34 115-159 115-64 0-107-36.5t-61-91T184 347q0-105 46-179t144-74q113 0 155 113zM428 893h154L407 754H288z"/><glyph glyph-name="cacute" unicode="ć" horiz-adv-x="527" d="M377 163h123q-17-75-71-125T275-12Q162-12 99.5 60.5T37 254q0 116 66 194t179 78q58 0 102-19t67.5-48.5 35-57.5 13.5-54H378q-17 80-99 80-55 0-85-45t-30-124q0-83 30-127.5T278 86q74 0 99 77zm-54 578h149L315 591H204z"/><glyph glyph-name="Ccircumflex" unicode="Ĉ" horiz-adv-x="703" d="M529 207h130q-23-99-96.5-157.5T369-9Q214-9 132 89.5T50 343q0 98 34.5 177.5t110 130.5T375 702q124 0 196.5-62T659 483H529q-34 115-159 115-64 0-107-36.5t-61-91T184 347q0-105 46-179t144-74q113 0 155 113zM305 888h124l128-136H439l-73 75-74-75H173z"/><glyph glyph-name="ccircumflex" unicode="ĉ" horiz-adv-x="527" d="M377 163h123q-17-75-71-125T275-12Q162-12 99.5 60.5T37 254q0 116 66 194t179 78q58 0 102-19t67.5-48.5 35-57.5 13.5-54H378q-17 80-99 80-55 0-85-45t-30-124q0-83 30-127.5T278 86q74 0 99 77zM226 731h109l115-150H336l-57 83-53-83H112z"/><glyph glyph-name="Cdotaccent" unicode="Ċ" horiz-adv-x="703" d="M529 207h130q-23-99-96.5-157.5T369-9Q214-9 132 89.5T50 343q0 98 34.5 177.5t110 130.5T375 702q124 0 196.5-62T659 483H529q-34 115-159 115-64 0-107-36.5t-61-91T184 347q0-105 46-179t144-74q113 0 155 113zM427 771H303v121h124V771z"/><glyph glyph-name="cdotaccent" unicode="ċ" horiz-adv-x="527" d="M377 163h123q-17-75-71-125T275-12Q162-12 99.5 60.5T37 254q0 116 66 194t179 78q58 0 102-19t67.5-48.5 35-57.5 13.5-54H378q-17 80-99 80-55 0-85-45t-30-124q0-83 30-127.5T278 86q74 0 99 77zm-35 446H220v121h122V609z"/><glyph glyph-name="Ccaron" unicode="Č" horiz-adv-x="703" d="M529 207h130q-23-99-96.5-157.5T369-9Q214-9 132 89.5T50 343q0 98 34.5 177.5t110 130.5T375 702q124 0 196.5-62T659 483H529q-34 115-159 115-64 0-107-36.5t-61-91T184 347q0-105 46-179t144-74q113 0 155 113zm-97 545H313L182 888h118l73-75 74 75h119z"/><glyph glyph-name="ccaron" unicode="č" horiz-adv-x="527" d="M377 163h123q-17-75-71-125T275-12Q162-12 99.5 60.5T37 254q0 116 66 194t179 78q58 0 102-19t67.5-48.5 35-57.5 13.5-54H378q-17 80-99 80-55 0-85-45t-30-124q0-83 30-127.5T278 86q74 0 99 77zm-41 418H225L112 731h113l57-83 54 83h114z"/><glyph glyph-name="Dcaron" unicode="Ď" horiz-adv-x="731" d="M85 0v692h265q150 0 240.5-92.5T681 354q0-155-91.5-254.5T345 0H85zm130 586V106h124q103 0 155.5 67.5T547 353q0 99-52 166t-156 67H215zm175 167H271L140 889h118l73-75 74 75h119z"/><glyph glyph-name="dcaron" unicode="ď" horiz-adv-x="646" d="M401 731h124V143q0-95 1-143H406q-5 38-5 60-40-72-152-72-97 0-155 72T36 252q0 121 63 197.5T269 526q54 0 87-16.5t45-38.5v260zM164 256q0-80 32-123.5T284 89q71 0 96 46t25 125q0 83-23.5 124T288 425q-60 0-92-44.5T164 256zm504 211h-83l-5 264h93z"/><glyph glyph-name="Dcroat" unicode="Đ" horiz-adv-x="740" d="M17 401h78v291h265q150 0 240.5-92.5T691 354q0-155-91.5-254.5T355 0H95v310H17v91zm208 185V401h158v-91H225V106h124q103 0 155.5 67.5T557 353q0 99-52 166t-156 67H225z"/><glyph glyph-name="dcroat" unicode="đ" horiz-adv-x="591" d="M401 731h124v-74h65v-76h-65V143q0-95 1-143H406q-5 38-5 66-22-39-57.5-58.5T246-12q-98 0-154 74.5T36 248q0 115 63.5 192.5T269 518q55 0 88-17t44-40v120H174v76h227v74zM164 256q0-77 32-122t86-45q123 0 123 171 0 156-115 156-57 0-91.5-41.5T164 256z"/><glyph glyph-name="Emacron" unicode="Ē" horiz-adv-x="611" d="M547 414V307H212V107h369L565 0H85v692h477V584H212V414h335zM177 862h298v-90H177v90z"/><glyph glyph-name="emacron" unicode="ē" horiz-adv-x="544" d="M508 231H161q0-61 30.5-102.5T277 87q45 0 66.5 16.5T378 150h125q-8-28-22.5-53T440 45.5t-69-42T273-12Q156-12 96 64T36 250q0 124 62.5 200T279 526q62 0 108.5-21.5T460 446t38-80 12-91q0-29-2-44zm-344 79h221q-1 56-27 90.5T278 435q-102 0-114-125zm-28 396h292v-94H136v94z"/><glyph glyph-name="Ebreve" unicode="Ĕ" horiz-adv-x="611" d="M547 414V307H212V107h369L565 0H85v692h477V584H212V414h335zM161 888h89q5-27 25.5-43.5T327 828q66 0 78 60h88q-8-60-49.5-100.5T326 747q-79 0-119.5 41.5T161 888z"/><glyph glyph-name="ebreve" unicode="ĕ" horiz-adv-x="544" d="M508 231H161q0-61 30.5-102.5T277 87q45 0 66.5 16.5T378 150h125q-8-28-22.5-53T440 45.5t-69-42T273-12Q156-12 96 64T36 250q0 124 62.5 200T279 526q62 0 108.5-21.5T460 446t38-80 12-91q0-29-2-44zm-344 79h221q-1 56-27 90.5T278 435q-102 0-114-125zm-37 416h87q14-58 68-58 32 0 46.5 15t21.5 43h86q-8-63-46.5-103.5T280 582q-74 0-111.5 42T127 726z"/><glyph glyph-name="Edotaccent" unicode="Ė" horiz-adv-x="611" d="M547 414V307H212V107h369L565 0H85v692h477V584H212V414h335zM387 765H263v121h124V765z"/><glyph glyph-name="edotaccent" unicode="ė" horiz-adv-x="544" d="M508 231H161q0-61 30.5-102.5T277 87q45 0 66.5 16.5T378 150h125q-8-28-22.5-53T440 45.5t-69-42T273-12Q156-12 96 64T36 250q0 124 62.5 200T279 526q62 0 108.5-21.5T460 446t38-80 12-91q0-29-2-44zm-344 79h221q-1 56-27 90.5T278 435q-102 0-114-125zm179 299H221v121h122V609z"/><glyph glyph-name="Eogonek" unicode="Ę" horiz-adv-x="611" d="M547 414V307H212V107h369L565 0h-30q-63-49-63-95 0-22 14-34t38-12q30 0 50 6v-87q-31-15-86-15-59 0-92.5 30T362-123q0 65 60 123H85v692h477V584H212V414h335z"/><glyph glyph-name="eogonek" unicode="ę" horiz-adv-x="544" d="M508 231H161q0-61 30.5-102.5T277 87q45 0 66.5 16.5T378 150h125Q474 50 386 10q-62-50-62-94 0-22 14-34t38-12q31 0 50 6v-87q-31-15-86-15-59 0-92.5 30T214-112q0 51 40 101Q146-5 91 70T36 250q0 124 62.5 200T279 526q62 0 108.5-21.5T460 446t38-80 12-91q0-29-2-44zm-344 79h221q-1 56-27 90.5T278 435q-102 0-114-125z"/><glyph glyph-name="Ecaron" unicode="Ě" horiz-adv-x="611" d="M547 414V307H212V107h369L565 0H85v692h477V584H212V414h335zM383 751H264L133 887h118l73-75 74 75h119z"/><glyph glyph-name="ecaron" unicode="ě" horiz-adv-x="544" d="M508 231H161q0-61 30.5-102.5T277 87q45 0 66.5 16.5T378 150h125q-8-28-22.5-53T440 45.5t-69-42T273-12Q156-12 96 64T36 250q0 124 62.5 200T279 526q62 0 108.5-21.5T460 446t38-80 12-91q0-29-2-44zm-344 79h221q-1 56-27 90.5T278 435q-102 0-114-125zm173 271H226L113 731h113l57-83 54 83h114z"/><glyph glyph-name="Gcircumflex" unicode="Ĝ" horiz-adv-x="743" d="M673 382V0h-96q-8 31-11 77-60-88-206-88T132 87 50 338q0 160 88 262t245 102q124 0 201.5-61T676 486H547q-35 112-166 112-103 0-150-71.5T184 344q0-107 48-178.5T380 94q49 0 83.5 15.5t51.5 42 24 55 7 61.5v7H380v107h293zM314 887h124l128-136H448l-73 75-74-75H182z"/><glyph glyph-name="gcircumflex" unicode="ĝ" horiz-adv-x="587" d="M521 366V57q0-130-58-198t-191-68q-63 0-108.5 16T95-151t-33.5 51T48-48h126q19-68 103-68 71 0 96.5 41T399 53v30Q356 5 249 5 152 5 94 75.5T36 256q0 121 63.5 195.5T260 526q62 0 96-22t43-48q2 28 5 58h118q-1-40-1-148zM164 261q0-71 33-113t86-42q66 0 93 41.5T403 266q0 80-24.5 119.5T286 425q-56 0-89-43t-33-121zm74 470h109l115-150H348l-57 83-53-83H124z"/><glyph glyph-name="Gbreve" unicode="Ğ" horiz-adv-x="743" d="M673 382V0h-96q-8 31-11 77-60-88-206-88T132 87 50 338q0 160 88 262t245 102q124 0 201.5-61T676 486H547q-35 112-166 112-103 0-150-71.5T184 344q0-107 48-178.5T380 94q49 0 83.5 15.5t51.5 42 24 55 7 61.5v7H380v107h293zM209 895h89q5-27 25.5-43.5T375 835q66 0 78 60h88q-8-60-49.5-100.5T374 754q-79 0-119.5 41.5T209 895z"/><glyph glyph-name="gbreve" unicode="ğ" horiz-adv-x="587" d="M521 366V57q0-130-58-198t-191-68q-63 0-108.5 16T95-151t-33.5 51T48-48h126q19-68 103-68 71 0 96.5 41T399 53v30Q356 5 249 5 152 5 94 75.5T36 256q0 121 63.5 195.5T260 526q62 0 96-22t43-48q2 28 5 58h118q-1-40-1-148zM164 261q0-71 33-113t86-42q66 0 93 41.5T403 266q0 80-24.5 119.5T286 425q-56 0-89-43t-33-121zm-26 465h87q15-58 68-58 32 0 46.5 15t21.5 43h86q-8-63-46.5-103.5T291 582q-74 0-111.5 42T138 726z"/><glyph glyph-name="Gdotaccent" unicode="Ġ" horiz-adv-x="743" d="M673 382V0h-96q-8 31-11 77-60-88-206-88T132 87 50 338q0 160 88 262t245 102q124 0 201.5-61T676 486H547q-35 112-166 112-103 0-150-71.5T184 344q0-107 48-178.5T380 94q49 0 83.5 15.5t51.5 42 24 55 7 61.5v7H380v107h293zM436 762H312v121h124V762z"/><glyph glyph-name="gdotaccent" unicode="ġ" horiz-adv-x="587" d="M521 366V57q0-130-58-198t-191-68q-63 0-108.5 16T95-151t-33.5 51T48-48h126q19-68 103-68 71 0 96.5 41T399 53v30Q356 5 249 5 152 5 94 75.5T36 256q0 121 63.5 195.5T260 526q62 0 96-22t43-48q2 28 5 58h118q-1-40-1-148zM164 261q0-71 33-113t86-42q66 0 93 41.5T403 266q0 80-24.5 119.5T286 425q-56 0-89-43t-33-121zm190 348H232v121h122V609z"/><glyph glyph-name="uni0122" unicode="Ģ" horiz-adv-x="743" d="M673 382V0h-96q-8 31-11 77-60-88-206-88T132 87 50 338q0 160 88 262t245 102q124 0 201.5-61T676 486H547q-35 112-166 112-103 0-150-71.5T184 344q0-107 48-178.5T380 94q49 0 83.5 15.5t51.5 42 24 55 7 61.5v7H380v107h293zM377-258h-99q49 110 55 207h124q-5-53-28.5-114.5T377-258z"/><glyph glyph-name="uni0123" unicode="ģ" horiz-adv-x="587" d="M294 786h108q-55-126-61-199H220q10 103 74 199zm227-420V57q0-130-58-198t-191-68q-63 0-108.5 16T95-151t-33.5 51T48-48h126q19-68 103-68 71 0 96.5 41T399 53v30Q356 5 249 5 152 5 94 75.5T36 256q0 121 63.5 195.5T260 526q62 0 96-22t43-48q2 28 5 58h118q-1-40-1-148zM164 261q0-71 33-113t86-42q66 0 93 41.5T403 266q0 80-24.5 119.5T286 425q-56 0-89-43t-33-121z"/><glyph glyph-name="Hcircumflex" unicode="Ĥ" horiz-adv-x="737" d="M85 0v692h130V415h307v277h129V0H522v308H215V0H85zm223 887h124l128-136H442l-73 75-74-75H176z"/><glyph glyph-name="hcircumflex" unicode="ĥ" horiz-adv-x="584" d="M52 897h157l107-116H193l-63 61-61-61H-54zm16-166h124V448q49 78 152 78 75 0 123.5-48T516 329V0H393v310q0 114-93 114-59 0-83.5-38T192 276V0H68v731z"/><glyph glyph-name="Hbar" unicode="Ħ" horiz-adv-x="737" d="M23 595h62v97h130v-97h307v97h129v-97h63v-89h-63V0H522v308H215V0H85v506H23v89zm192-180h307v91H215v-91z"/><glyph glyph-name="hbar" unicode="ħ" horiz-adv-x="584" d="M68 731h124v-74h208v-76H192V439q49 79 155 79 75 0 122-46.5T516 321V0H393v302q0 113-92 113-109 0-109-142V0H68v581h-81v76h81v74z"/><glyph glyph-name="Itilde" unicode="Ĩ" horiz-adv-x="300" d="M85 692h130V0H85v692zm-31 68h-82v30q0 56 23.5 80T64 894q37 0 90-24t66-24q28 0 28 38v9h80v-23q0-64-24-89.5T233 755q-30 0-84 24t-69 24q-26 0-26-28v-15z"/><glyph glyph-name="itilde" unicode="ĩ" horiz-adv-x="260" d="M68 0v514h124V0H68zM45 594h-81v31q0 105 89 105 32 0 77.5-22.5T189 685q27 0 27 37v9h80v-24q0-115-93-115-34 0-77 22t-57 22q-24 0-24-27v-15z"/><glyph glyph-name="Imacron" unicode="Ī" horiz-adv-x="300" d="M85 692h130V0H85v692zM1 856h298v-90H1v90z"/><glyph glyph-name="imacron" unicode="ī" horiz-adv-x="260" d="M68 0v514h124V0H68zm-84 706h292v-94H-16v94z"/><glyph glyph-name="Iogonek" unicode="Į" horiz-adv-x="300" d="M85 692h130V0h-8q-63-49-63-95 0-22 14-34t38-12q30 0 50 6v-87q-31-15-86-15-59 0-92.5 30T34-123Q34-58 94 0h-9v692z"/><glyph glyph-name="iogonek" unicode="į" horiz-adv-x="260" d="M68 0v514h124V0h-5q-63-49-63-95 0-22 14-34t38-12q31 0 50 6v-87q-31-15-86-15-59 0-92.5 30T14-123Q14-58 74 0h-6zm124 610H68v121h124V610z"/><glyph glyph-name="Idotaccent" unicode="İ" horiz-adv-x="300" d="M85 692h130V0H85v692zm127 70H88v121h124V762z"/><glyph glyph-name="dotlessi" unicode="ı" horiz-adv-x="260" d="M68 0v514h124V0H68z"/><glyph glyph-name="Jcircumflex" unicode="Ĵ" horiz-adv-x="391" d="M310 692V215q0-119-45-172T116-10q-56 0-87 8v104q26-4 67-4 51 0 68 28.5t17 80.5v485h129zM185 887h124l128-136H319l-73 75-74-75H53z"/><glyph glyph-name="jcircumflex" unicode="ĵ" horiz-adv-x="260" d="M68 514h124V1q0-114-33.5-162T30-209q-18 0-40 2v101H6q36 0 49 18.5T68-23v537zm7 217h109l115-150H185l-57 83-53-83H-39z"/><glyph glyph-name="uni0136" unicode="Ķ" horiz-adv-x="663" d="M85 0v692h129V372q26 30 141 153t155 167h157L382 403 678 0H522L292 319l-78-74V0H85zm249-258h-99q49 110 55 207h124q-5-53-28.5-114.5T334-258z"/><glyph glyph-name="uni0137" unicode="ķ" horiz-adv-x="539" d="M192 731V288q16 21 194 226h144L346 318 548 0H406L262 238l-70-67V0H68v731h124zm78-989h-99q49 110 55 207h124q-5-53-28.5-114.5T270-258z"/><glyph glyph-name="kgreenlandic" unicode="ĸ" horiz-adv-x="536" d="M192 514V283q23 30 96 117.5T382 514h144q-36-40-105.5-113.5T337 311q36-52 108-160.5T545 0H403q-16 25-70 108t-78 122l-63-64V0H68v514h124z"/><glyph glyph-name="Lacute" unicode="Ĺ" horiz-adv-x="578" d="M85 0v692h130V107h350L550 0H85zm142 891h154L206 752H87z"/><glyph glyph-name="lacute" unicode="ĺ" horiz-adv-x="260" d="M187 910h153L185 785H68zm5-910H68v731h124V0z"/><glyph glyph-name="uni013B" unicode="Ļ" horiz-adv-x="578" d="M85 0v692h130V107h350L550 0H85zm227-258h-99q49 110 55 207h124q-5-53-28.5-114.5T312-258z"/><glyph glyph-name="uni013C" unicode="ļ" horiz-adv-x="260" d="M192 0H68v731h124V0zm-79-258H14Q63-148 69-51h124q-5-53-28.5-114.5T113-258z"/><glyph glyph-name="Lcaron" unicode="Ľ" horiz-adv-x="578" d="M85 0v692h130V107h350L550 0H85zm361 429h-83l-5 264h93z"/><glyph glyph-name="lcaron" unicode="ľ" horiz-adv-x="328" d="M192 0H68v731h124V0zm149 467h-83l-5 264h93z"/><glyph glyph-name="Ldot" unicode="Ŀ" horiz-adv-x="578" d="M485 306H359v159h126V306zM85 0v692h130V107h350L550 0H85z"/><glyph glyph-name="ldot" unicode="ŀ" horiz-adv-x="329" d="M348 355H237v159h111V355zM192 0H68v731h124V0z"/><glyph glyph-name="Lslash" unicode="Ł" horiz-adv-x="588" d="M371 426l-146-66V107h350L560 0H95v302l-85-38v88l85 38v302h130V449l146 66v-89z"/><glyph glyph-name="lslash" unicode="ł" horiz-adv-x="273" d="M198 0H74v317l-60-31v102l60 32v311h124V485l69 36V417l-69-36V0z"/><glyph glyph-name="Nacute" unicode="Ń" horiz-adv-x="751" d="M205 0H85v692h164q14-24 102.5-176T489 277.5 553 157h1q-7 78-7 307v228h119V0H512Q253 447 200 558h-1q6-80 6-325V0zm244 890h154L428 751H309z"/><glyph glyph-name="nacute" unicode="ń" horiz-adv-x="584" d="M69 0v385q0 90-1 129h120q5-23 5-72 42 84 153 84 78 0 124.5-51T517 328V0H393v314q0 110-91 110-109 0-109-142V0H69zm272 741h149L333 591H222z"/><glyph glyph-name="uni0145" unicode="Ņ" horiz-adv-x="751" d="M205 0H85v692h164q14-24 102.5-176T489 277.5 553 157h1q-7 78-7 307v228h119V0H512Q253 447 200 558h-1q6-80 6-325V0zm165-258h-99q49 110 55 207h124q-5-53-28.5-114.5T370-258z"/><glyph glyph-name="uni0146" unicode="ņ" horiz-adv-x="584" d="M69 0v385q0 90-1 129h120q5-23 5-72 42 84 153 84 78 0 124.5-51T517 328V0H393v314q0 110-91 110-109 0-109-142V0H69zm205-258h-99q49 110 55 207h124q-5-53-28.5-114.5T274-258z"/><glyph glyph-name="Ncaron" unicode="Ň" horiz-adv-x="751" d="M205 0H85v692h164q14-24 102.5-176T489 277.5 553 157h1q-7 78-7 307v228h119V0H512Q253 447 200 558h-1q6-80 6-325V0zm232 749H318L187 885h118l73-75 74 75h119z"/><glyph glyph-name="ncaron" unicode="ň" horiz-adv-x="584" d="M69 0v385q0 90-1 129h120q5-23 5-72 42 84 153 84 78 0 124.5-51T517 328V0H393v314q0 110-91 110-109 0-109-142V0H69zm277 588H235L122 738h113l57-83 54 83h114z"/><glyph glyph-name="napostrophe" unicode="ŉ" horiz-adv-x="584" d="M95 578H5q29 92 33 206h117q-3-54-19.5-112T95 578zM69 0v385q0 90-1 129h120q5-23 5-72 42 84 153 84 78 0 124.5-51T517 328V0H393v314q0 110-91 110-109 0-109-142V0H69z"/><glyph glyph-name="Omacron" unicode="Ō" horiz-adv-x="760" d="M385 702q149 0 237.5-97.5T711 349q0-153-88-256T376-10Q222-10 136 90.5T50 346t90 255.5T385 702zm-6-107q-98 0-146.5-67.5T184 349q0-110 51-181t146-71q100 0 147.5 70.5T576 347q0 110-49.5 179T379 595zM231 862h298v-90H231v90z"/><glyph glyph-name="omacron" unicode="ō" horiz-adv-x="570" d="M289 526q111 0 178-73.5T534 258q0-118-67-194T283-12q-115 0-181 75T36 256q0 120 67.5 195T289 526zm-5-99q-58 0-90-43.5T162 257q0-78 33-124t91-46 89.5 45T407 256q0 83-31.5 127T284 427zM138 706h292v-94H138v94z"/><glyph glyph-name="Ohungarumlaut" unicode="Ő" horiz-adv-x="760" d="M385 702q149 0 237.5-97.5T711 349q0-153-88-256T376-10Q222-10 136 90.5T50 346t90 255.5T385 702zm-6-107q-98 0-146.5-67.5T184 349q0-110 51-181t146-71q100 0 147.5 70.5T576 347q0 110-49.5 179T379 595zm-56 296h133L311 753H211zm201 0h132L511 753H411z"/><glyph glyph-name="ohungarumlaut" unicode="ő" horiz-adv-x="570" d="M289 526q111 0 178-73.5T534 258q0-118-67-194T283-12q-115 0-181 75T36 256q0 120 67.5 195T289 526zm-5-99q-58 0-90-43.5T162 257q0-78 33-124t91-46 89.5 45T407 256q0 83-31.5 127T284 427zm-65 153h-95l100 152h125zm197 0h-95l100 152h125z"/><glyph glyph-name="OE" unicode="Œ" horiz-adv-x="1026" d="M977 692V582H647V415h314V306H647V109h349L980 0H553q-4 0-27-2.5T473.5-7 413-9Q236-8 143 91T50 345q0 70 24.5 132.5T145 590t119.5 79T428 698q61 0 133-6h416zM521 105v479q-26 9-97 9-108 0-174-64t-66-181q0-113 63.5-181.5T420 98q68 0 101 7z"/><glyph glyph-name="oe" unicode="œ" horiz-adv-x="917" d="M646-12q-116 0-177 83-68-83-186-83-115 0-181 75T36 256q0 120 67.5 195T289 526q119 0 182-84 64 84 180 84 115 0 173-72.5T882 281q0-35-1-50H534q0-62 30.5-103T649 87q73 0 102 63h124q-8-28-23-53t-40.5-51.5-68.5-42T646-12zM284 427q-58 0-90-43.5T162 257q0-78 33-124t91-46 89.5 45T407 256q0 83-31.5 127T284 427zm253-117h220q-1 56-27.5 90T651 435q-53 1-81-33t-33-92z"/><glyph glyph-name="Racute" unicode="Ŕ" horiz-adv-x="655" d="M326 286H213V0H85v692h293q108 0 167.5-52.5T605 503q0-64-30.5-105T498 340q93-29 93-174v-32q0-103 10-134H477q-13 32-13 153v12q0 66-27.5 93.5T326 286zM213 587V391h134q66 0 96 24.5t30 74.5q0 97-121 97H213zm187 303h154L379 751H260z"/><glyph glyph-name="racute" unicode="ŕ" horiz-adv-x="380" d="M68 0v375q0 101-1 139h122q3-18 3-95 19 48 62 77t106 30V406q-84 1-126-37t-42-136V0H68zm186 741h149L246 591H135z"/><glyph glyph-name="uni0156" unicode="Ŗ" horiz-adv-x="655" d="M326 286H213V0H85v692h293q108 0 167.5-52.5T605 503q0-64-30.5-105T498 340q93-29 93-174v-32q0-103 10-134H477q-13 32-13 153v12q0 66-27.5 93.5T326 286zM213 587V391h134q66 0 96 24.5t30 74.5q0 97-121 97H213zm114-845h-99q49 110 55 207h124q-5-53-28.5-114.5T327-258z"/><glyph glyph-name="uni0157" unicode="ŗ" horiz-adv-x="380" d="M68 0v375q0 101-1 139h122q3-18 3-95 19 48 62 77t106 30V406q-84 1-126-37t-42-136V0H68zm45-258H14Q63-148 69-51h124q-5-53-28.5-114.5T113-258z"/><glyph glyph-name="Rcaron" unicode="Ř" horiz-adv-x="655" d="M326 286H213V0H85v692h293q108 0 167.5-52.5T605 503q0-64-30.5-105T498 340q93-29 93-174v-32q0-103 10-134H477q-13 32-13 153v12q0 66-27.5 93.5T326 286zM213 587V391h134q66 0 96 24.5t30 74.5q0 97-121 97H213zm176 164H270L139 887h118l73-75 74 75h119z"/><glyph glyph-name="rcaron" unicode="ř" horiz-adv-x="380" d="M68 0v375q0 101-1 139h122q3-18 3-95 19 48 62 77t106 30V406q-84 1-126-37t-42-136V0H68zm194 581H151L38 731h113l57-83 54 83h114z"/><glyph glyph-name="Sacute" unicode="Ś" horiz-adv-x="625" d="M36 199h131Q192 90 323 90q126 0 126 94 0 46-33.5 72T290 303q-129 31-179 79T61 505q0 88 64.5 142.5T307 702q123 0 186.5-56.5T565 507H434q-18 96-131 96-52 0-80.5-21.5T194 519q0-40 30.5-61.5T342 416q139-33 189.5-85.5T582 199q0-94-69.5-151T313-9Q187-9 118 48T36 199zm349 694h154L364 754H245z"/><glyph glyph-name="sacute" unicode="ś" horiz-adv-x="501" d="M30 152h122q19-72 107-72 83 0 83 59 0 29-21.5 44.5T238 214q-113 27-151 64t-38 96q0 64 49 108t151 44 152.5-45.5T456 373H337q-13 64-93 64-73 0-73-53 0-23 21-36.5t84-28.5q116-26 154.5-66.5T469 148q0-69-54.5-114.5T255-12 95 33 30 152zm268 589h149L290 591H179z"/><glyph glyph-name="Scircumflex" unicode="Ŝ" horiz-adv-x="625" d="M36 199h131Q192 90 323 90q126 0 126 94 0 46-33.5 72T290 303q-129 31-179 79T61 505q0 88 64.5 142.5T307 702q123 0 186.5-56.5T565 507H434q-18 96-131 96-52 0-80.5-21.5T194 519q0-40 30.5-61.5T342 416q139-33 189.5-85.5T582 199q0-94-69.5-151T313-9Q187-9 118 48T36 199zm216 688h124l128-136H386l-73 75-74-75H120z"/><glyph glyph-name="scircumflex" unicode="ŝ" horiz-adv-x="501" d="M30 152h122q19-72 107-72 83 0 83 59 0 29-21.5 44.5T238 214q-113 27-151 64t-38 96q0 64 49 108t151 44 152.5-45.5T456 373H337q-13 64-93 64-73 0-73-53 0-23 21-36.5t84-28.5q116-26 154.5-66.5T469 148q0-69-54.5-114.5T255-12 95 33 30 152zm166 579h109l115-150H306l-57 83-53-83H82z"/><glyph glyph-name="uni015E" unicode="Ş" horiz-adv-x="625" d="M36 199h131Q192 90 323 90q126 0 126 94 0 46-33.5 72T290 303q-129 31-179 79T61 505q0 88 64.5 142.5T307 702q123 0 186.5-56.5T565 507H434q-18 96-131 96-52 0-80.5-21.5T194 519q0-40 30.5-61.5T342 416q139-33 189.5-85.5T582 199q0-83-55-138T368-6l-37-42q90-21 90-94 0-30-12.5-51t-34-31.5-43-15T286-244q-48 0-74 11v70q24-7 59-7 47 0 47 28 0 36-92 38v32l52 64Q169 0 108.5 55.5T36 199z"/><glyph glyph-name="uni015F" unicode="ş" horiz-adv-x="501" d="M30 152h122q19-72 107-72 83 0 83 59 0 29-21.5 44.5T238 214q-113 27-151 64t-38 96q0 64 49 108t151 44 152.5-45.5T456 373H337q-13 64-93 64-73 0-73-53 0-23 21-36.5t84-28.5q116-26 154.5-66.5T469 148q0-60-42-103T304-9l-34-39q90-21 90-94 0-30-12.5-51t-34-31.5-43-15T225-244q-48 0-74 11v70q25-7 59-7 47 0 47 28 0 36-92 38v32l51 62Q130-1 84.5 42T30 152z"/><glyph glyph-name="Scaron" unicode="Š" horiz-adv-x="625" d="M36 199h131Q192 90 323 90q126 0 126 94 0 46-33.5 72T290 303q-129 31-179 79T61 505q0 88 64.5 142.5T307 702q123 0 186.5-56.5T565 507H434q-18 96-131 96-52 0-80.5-21.5T194 519q0-40 30.5-61.5T342 416q139-33 189.5-85.5T582 199q0-94-69.5-151T313-9Q187-9 118 48T36 199zm334 552H251L120 887h118l73-75 74 75h119z"/><glyph glyph-name="scaron" unicode="š" horiz-adv-x="501" d="M30 152h122q19-72 107-72 83 0 83 59 0 29-21.5 44.5T238 214q-113 27-151 64t-38 96q0 64 49 108t151 44 152.5-45.5T456 373H337q-13 64-93 64-73 0-73-53 0-23 21-36.5t84-28.5q116-26 154.5-66.5T469 148q0-69-54.5-114.5T255-12 95 33 30 152zm276 429H195L82 731h113l57-83 54 83h114z"/><glyph glyph-name="uni0162" unicode="Ţ" horiz-adv-x="578" d="M224 0v584H10v108h558V584H354V0h-13l-42-48q90-21 90-94 0-30-12.5-51t-34-31.5-43-15T254-244q-48 0-74 11v70q24-7 59-7 47 0 47 28 0 36-92 38v32l59 72h-29z"/><glyph glyph-name="uni0163" unicode="ţ" horiz-adv-x="348" d="M13 419v95h82v143h124V514h105v-95H219V149q0-33 12-47t44-14q25 0 37 2V3q-19-7-56-9l-37-42q90-21 90-94 0-30-12.5-51t-34-31.5-43-15T174-244q-48 0-74 11v70q24-7 59-7 47 0 47 28 0 36-92 38v32l58 71Q95 21 95 131v288H13z"/><glyph glyph-name="Tcaron" unicode="Ť" horiz-adv-x="578" d="M224 0v584H10v108h558V584H354V0H224zm123 751H228L97 887h118l73-75 74 75h119z"/><glyph glyph-name="tcaron" unicode="ť" horiz-adv-x="348" d="M369 581h-75l-2 228h94zM13 419v95h82v143h124V514h105v-95H219V149q0-33 12-47t44-14q25 0 37 2V3Q283-7 222-7q-68 0-97.5 34.5T95 131v288H13z"/><glyph glyph-name="Utilde" unicode="Ũ" horiz-adv-x="722" d="M77 692h130V278q0-99 43.5-141.5T362 94q153 0 153 184v414h130V285Q645-9 360-9 77-9 77 281v411zm188 70h-82v30q0 56 23.5 80t68.5 24q37 0 90-24t66-24q28 0 28 38v9h80v-23q0-64-24-89.5T444 757q-30 0-84 24t-69 24q-26 0-26-28v-15z"/><glyph glyph-name="utilde" unicode="ũ" horiz-adv-x="575" d="M507 514V150q0-109 1-150H387q-2 11-4 65-42-77-146-77-78 0-124.5 47T66 178v336h124V203q0-112 88-112 57 0 81 34.5T383 242v272h124zm-305 80h-81v31q0 105 89 105 32 0 77.5-22.5T346 685q27 0 27 37v9h80v-24q0-115-93-115-34 0-77 22t-57 22q-24 0-24-27v-15z"/><glyph glyph-name="Umacron" unicode="Ū" horiz-adv-x="722" d="M77 692h130V278q0-99 43.5-141.5T362 94q153 0 153 184v414h130V285Q645-9 360-9 77-9 77 281v411zm135 168h298v-90H212v90z"/><glyph glyph-name="umacron" unicode="ū" horiz-adv-x="575" d="M507 514V150q0-109 1-150H387q-2 11-4 65-42-77-146-77-78 0-124.5 47T66 178v336h124V203q0-112 88-112 57 0 81 34.5T383 242v272h124zM141 706h292v-94H141v94z"/><glyph glyph-name="Ubreve" unicode="Ŭ" horiz-adv-x="722" d="M77 692h130V278q0-99 43.5-141.5T362 94q153 0 153 184v414h130V285Q645-9 360-9 77-9 77 281v411zm118 196h89q5-27 25.5-43.5T361 828q66 0 78 60h88q-8-60-49.5-100.5T360 747q-79 0-119.5 41.5T195 888z"/><glyph glyph-name="ubreve" unicode="ŭ" horiz-adv-x="575" d="M507 514V150q0-109 1-150H387q-2 11-4 65-42-77-146-77-78 0-124.5 47T66 178v336h124V203q0-112 88-112 57 0 81 34.5T383 242v272h124zM132 726h87q15-58 68-58 32 0 46.5 15t21.5 43h86q-8-63-46.5-103.5T285 582q-74 0-111.5 42T132 726z"/><glyph glyph-name="Uring" unicode="Ů" horiz-adv-x="722" d="M77 692h130V278q0-99 43.5-141.5T362 94q153 0 153 184v414h130V285Q645-9 360-9 77-9 77 281v411zm285 38q-53 0-85 28.5T245 830q0 44 31 73t85 29 85-28 31-72q0-45-31.5-73.5T362 730zm-2 55q24 0 37 13.5t13 32.5-12.5 33-36.5 14q-25 0-37-13.5T312 832t12-33 36-14z"/><glyph glyph-name="uring" unicode="ů" horiz-adv-x="575" d="M507 514V150q0-109 1-150H387q-2 11-4 65-42-77-146-77-78 0-124.5 47T66 178v336h124V203q0-112 88-112 57 0 81 34.5T383 242v272h124zm-219 55q-53 0-85 28.5T171 669q0 44 31 73t85 29 85-28 31-72q0-45-31.5-73.5T288 569zm-2 55q24 0 37 13.5t13 32.5-12.5 33-36.5 14q-25 0-37-13.5T238 671t12-33 36-14z"/><glyph glyph-name="Uhungarumlaut" unicode="Ű" horiz-adv-x="722" d="M77 692h130V278q0-99 43.5-141.5T362 94q153 0 153 184v414h130V285Q645-9 360-9 77-9 77 281v411zm227 201h133L292 755H192zm201 0h132L492 755H392z"/><glyph glyph-name="uhungarumlaut" unicode="ű" horiz-adv-x="575" d="M507 514V150q0-109 1-150H387q-2 11-4 65-42-77-146-77-78 0-124.5 47T66 178v336h124V203q0-112 88-112 57 0 81 34.5T383 242v272h124zm-288 66h-95l100 152h125zm197 0h-95l100 152h125z"/><glyph glyph-name="Uogonek" unicode="Ų" horiz-adv-x="722" d="M77 692h130V278q0-99 43.5-141.5T362 94q153 0 153 184v414h130V285Q645 62 481 8q-59-47-59-92 0-22 14-34t38-12q30 0 50 6v-87q-31-15-86-15-59 0-92.5 30T312-112q0 52 42 103Q77-5 77 281v411z"/><glyph glyph-name="uogonek" unicode="ų" horiz-adv-x="575" d="M507 514V150q0-109 1-150h-3q-63-49-63-95 0-22 14-34t38-12q30 0 50 6v-87q-31-15-86-15-59 0-92.5 30T332-123q0 65 60 123h-5q-2 11-4 65-42-77-146-77-78 0-124.5 47T66 178v336h124V203q0-112 88-112 57 0 81 34.5T383 242v272h124z"/><glyph glyph-name="Wcircumflex" unicode="Ŵ" horiz-adv-x="946" d="M334 0H198L19 692h138q20-94 52-241t45.5-213T273 137h1q13 65 70 279.5T416 692h119q119-453 136-549h1q10 63 34 165.5t57 232T801 692h127L735 0H600q-11 43-64.5 251.5T469 522h-1Q453 445 334 0zm79 887h124l128-136H547l-73 75-74-75H281z"/><glyph glyph-name="wcircumflex" unicode="ŵ" horiz-adv-x="791" d="M20 514h131q80-334 91-402h1q18 98 99 402h117q86-354 92-396h1q30 135 96 396h124L617 0H484q-87 371-89 383h-1q-9-62-93-383H167zm321 217h109l115-150H451l-57 83-53-83H227z"/><glyph glyph-name="Ycircumflex" unicode="Ŷ" horiz-adv-x="610" d="M368 0H238v248q0 10-6 21L-8 692h147q125-235 170-330 31 70 172 330h137L373 269q-5-7-5-20V0zM245 887h124l128-136H379l-73 75-74-75H113z"/><glyph glyph-name="ycircumflex" unicode="ŷ" horiz-adv-x="506" d="M7 514h133q107-336 120-401h1q24 100 114 401h124L322-18q-38-113-79-152t-128-39q-32 0-63 4v102q22-2 39-2 42 0 65 19t40 69zm191 217h109l115-150H308l-57 83-53-83H84z"/><glyph glyph-name="Ydieresis" unicode="Ÿ" horiz-adv-x="610" d="M368 0H238v248q0 10-6 21L-8 692h147q125-235 170-330 31 70 172 330h137L373 269q-5-7-5-20V0zM257 760H155v121h102V760zm198 0H353v121h102V760z"/><glyph glyph-name="Zacute" unicode="Ź" horiz-adv-x="610" d="M30 0v96l393 488H48v108h523V586L188 107h401L572 0H30zm341 893h154L350 754H231z"/><glyph glyph-name="zacute" unicode="ź" horiz-adv-x="477" d="M28 0v95l269 320H42v99h395v-98L174 100h280L438 0H28zm257 741h149L277 591H166z"/><glyph glyph-name="Zdotaccent" unicode="Ż" horiz-adv-x="610" d="M30 0v96l393 488H48v108h523V586L188 107h401L572 0H30zm337 767H243v121h124V767z"/><glyph glyph-name="zdotaccent" unicode="ż" horiz-adv-x="477" d="M28 0v95l269 320H42v99h395v-98L174 100h280L438 0H28zm271 609H177v121h122V609z"/><glyph glyph-name="Zcaron" unicode="Ž" horiz-adv-x="610" d="M30 0v96l393 488H48v108h523V586L188 107h401L572 0H30zm333 758H244L113 894h118l73-75 74 75h119z"/><glyph glyph-name="zcaron" unicode="ž" horiz-adv-x="477" d="M28 0v95l269 320H42v99h395v-98L174 100h280L438 0H28zm265 581H182L69 731h113l57-83 54 83h114z"/><glyph glyph-name="uni018F" unicode="Ə" horiz-adv-x="725" d="M675 353q0-161-82.5-262T354-10q-155 0-232 94T45 324q0 21 3 54h495q-2 99-49.5 158.5T354 596q-128 0-175-105H54q26 89 102 150t203 61q104 0 177.5-50T643 525t32-172zm-135-71H178q1-88 49-138t129-50 127.5 48.5T540 282z"/><glyph glyph-name="florin" unicode="ƒ" horiz-adv-x="540" d="M525 678l-22-94q-24 12-54 12-38 0-56-30.5T366 479l-9-59h109v-92H342l-34-221Q292-1 251.5-59T124-117q-66 0-100 22L47 1q26-14 63-14 34 0 47.5 26.5T183 113l35 215h-90v92h105l7 41q6 36 13 64.5t22 62 35 56 52 37.5 73 15q65 0 90-18z"/><glyph glyph-name="Ohorn" unicode="Ơ" horiz-adv-x="760" d="M385 702q110 0 191-56 38 12 38 50 0 28-11 63h109q9-23 9-60 0-88-76-122 66-94 66-228 0-153-88-256T376-10Q222-10 136 90.5T50 346t90 255.5T385 702zm-6-107q-98 0-146.5-67.5T184 349q0-110 51-181t146-71q100 0 147.5 70.5T576 347q0 110-49.5 179T379 595z"/><glyph glyph-name="ohorn" unicode="ơ" horiz-adv-x="570" d="M289 526q89 0 151-48 39 14 39 51 0 28-11 63h109q9-23 9-60 0-43-21.5-77T500 406q34-63 34-148 0-118-67-194T283-12q-115 0-181 75T36 256q0 120 67.5 195T289 526zm-5-99q-58 0-90-43.5T162 257q0-78 33-124t91-46 89.5 45T407 256q0 83-31.5 127T284 427z"/><glyph glyph-name="Uhorn" unicode="Ư" horiz-adv-x="722" d="M77 692h130V278q0-99 43.5-141.5T362 94q153 0 153 184v414h76q47 12 47 53 0 28-11 63h109q9-22 9-60 0-47-25-82t-75-48V285Q645-9 360-9 77-9 77 281v411z"/><glyph glyph-name="uhorn" unicode="ư" horiz-adv-x="575" d="M383 65q-42-77-146-77-78 0-124.5 47T66 178v336h124V203q0-112 88-112 57 0 81 34.5T383 242v272h51q57 9 57 55 0 28-11 63h109q9-23 9-60 0-45-23-79t-68-48V150q0-109 1-150H387q-2 11-4 65z"/><glyph glyph-name="uni01CD" unicode="Ǎ" horiz-adv-x="678" d="M464 176H203L142 0H14l239 692h162L664 0H527zM232 284h202q-92 268-104 311h-1q-18-68-97-311zm164 467H277L146 887h118l73-75 74 75h119z"/><glyph glyph-name="uni01CE" unicode="ǎ" horiz-adv-x="549" d="M480 352V126q0-96 7-126H368q-6 16-8 56-39-68-149-68-86 0-130.5 47T36 148q0 85 64 127.5T280 318h78v35q0 37-19 59.5T268 435q-47 0-65-17.5T179 366H60q6 71 56.5 116T273 526q207-2 207-174zM359 225v15h-67q-68 0-99.5-20.5T161 155q0-33 21.5-54.5T244 79q69 0 92 38.5T359 225zm-29 356H219L106 731h113l57-83 54 83h114z"/><glyph glyph-name="uni01CF" unicode="Ǐ" horiz-adv-x="300" d="M85 692h130V0H85v692zm125 59H91L-40 887H78l73-75 74 75h119z"/><glyph glyph-name="uni01D0" unicode="ǐ" horiz-adv-x="260" d="M68 0v514h124V0H68zm117 581H74L-39 731H74l57-83 54 83h114z"/><glyph glyph-name="uni01D1" unicode="Ǒ" horiz-adv-x="760" d="M385 702q149 0 237.5-97.5T711 349q0-153-88-256T376-10Q222-10 136 90.5T50 346t90 255.5T385 702zm-6-107q-98 0-146.5-67.5T184 349q0-110 51-181t146-71q100 0 147.5 70.5T576 347q0 110-49.5 179T379 595zm59 158H319L188 889h118l73-75 74 75h119z"/><glyph glyph-name="uni01D2" unicode="ǒ" horiz-adv-x="570" d="M289 526q111 0 178-73.5T534 258q0-118-67-194T283-12q-115 0-181 75T36 256q0 120 67.5 195T289 526zm-5-99q-58 0-90-43.5T162 257q0-78 33-124t91-46 89.5 45T407 256q0 83-31.5 127T284 427zm55 154H228L115 731h113l57-83 54 83h114z"/><glyph glyph-name="uni01D3" unicode="Ǔ" horiz-adv-x="722" d="M77 692h130V278q0-99 43.5-141.5T362 94q153 0 153 184v414h130V285Q645-9 360-9 77-9 77 281v411zm342 62H300L169 890h118l73-75 74 75h119z"/><glyph glyph-name="uni01D4" unicode="ǔ" horiz-adv-x="575" d="M507 514V150q0-109 1-150H387q-2 11-4 65-42-77-146-77-78 0-124.5 47T66 178v336h124V203q0-112 88-112 57 0 81 34.5T383 242v272h124zm-165 67H231L118 731h113l57-83 54 83h114z"/><glyph glyph-name="uni01D5" unicode="Ǖ" horiz-adv-x="722" d="M77 692h130V278q0-99 43.5-141.5T362 94q153 0 153 184v414h130V285Q645-9 360-9 77-9 77 281v411zm232 59H206v100h103V751zm193 147H219v81h283v-81zm13-147H413v100h102V751z"/><glyph glyph-name="uni01D6" unicode="ǖ" horiz-adv-x="575" d="M507 514V150q0-109 1-150H387q-2 11-4 65-42-77-146-77-78 0-124.5 47T66 178v336h124V203q0-112 88-112 57 0 81 34.5T383 242v272h124zm-267 56H138v100h102V570zm188 154H145v78h283v-78zm9-154H334v100h103V570z"/><glyph glyph-name="uni01D7" unicode="Ǘ" horiz-adv-x="722" d="M77 692h130V278q0-99 43.5-141.5T362 94q153 0 153 184v414h130V285Q645-9 360-9 77-9 77 281v411zm129 157h103V749H206v100zm96 32l97 117h148L408 881H302zm213-132H413v100h102V749z"/><glyph glyph-name="uni01D8" unicode="ǘ" horiz-adv-x="575" d="M507 514V150q0-109 1-150H387q-2 11-4 65-42-77-146-77-78 0-124.5 47T66 178v336h124V203q0-112 88-112 57 0 81 34.5T383 242v272h124zM138 670h102V570H138v100zm196 31H226l97 119h145zm103-131H334v100h103V570z"/><glyph glyph-name="uni01D9" unicode="Ǚ" horiz-adv-x="722" d="M77 692h130V278q0-99 43.5-141.5T362 94q153 0 153 184v414h130V285Q645-9 360-9 77-9 77 281v411zm339 185H300L195 996h105l59-63 59 63h104zM310 747H207v100h103V747zm206 0H414v100h102V747z"/><glyph glyph-name="uni01DA" unicode="ǚ" horiz-adv-x="575" d="M507 514V150q0-109 1-150H387q-2 11-4 65-42-77-146-77-78 0-124.5 47T66 178v336h124V203q0-112 88-112 57 0 81 34.5T383 242v272h124zM344 694H230L125 813h105l57-66 58 66h104zM240 563H138v100h102V563zm197 0H334v100h103V563z"/><glyph glyph-name="uni01DB" unicode="Ǜ" horiz-adv-x="722" d="M77 692h130V278q0-99 43.5-141.5T362 94q153 0 153 184v414h130V285Q645-9 360-9 77-9 77 281v411zm129 158h103V750H206v100zm210 32H311L168 999h143zm99-132H413v100h102V750z"/><glyph glyph-name="uni01DC" unicode="ǜ" horiz-adv-x="575" d="M507 514V150q0-109 1-150H387q-2 11-4 65-42-77-146-77-78 0-124.5 47T66 178v336h124V203q0-112 88-112 57 0 81 34.5T383 242v272h124zM138 663h102V563H138v100zm-31 150h146l95-119H244zm330-250H334v100h103V563z"/><glyph glyph-name="Gcaron" unicode="Ǧ" horiz-adv-x="743" d="M673 382V0h-96q-8 31-11 77-60-88-206-88T132 87 50 338q0 160 88 262t245 102q124 0 201.5-61T676 486H547q-35 112-166 112-103 0-150-71.5T184 344q0-107 48-178.5T380 94q49 0 83.5 15.5t51.5 42 24 55 7 61.5v7H380v107h293zM432 754H313L182 890h118l73-75 74 75h119z"/><glyph glyph-name="gcaron" unicode="ǧ" horiz-adv-x="587" d="M521 366V57q0-130-58-198t-191-68q-63 0-108.5 16T95-151t-33.5 51T48-48h126q19-68 103-68 71 0 96.5 41T399 53v30Q356 5 249 5 152 5 94 75.5T36 256q0 121 63.5 195.5T260 526q62 0 96-22t43-48q2 28 5 58h118q-1-40-1-148zM164 261q0-71 33-113t86-42q66 0 93 41.5T403 266q0 80-24.5 119.5T286 425q-56 0-89-43t-33-121zm183 320H236L123 731h113l57-83 54 83h114z"/><glyph glyph-name="uni0218" unicode="Ș" horiz-adv-x="625" d="M36 199h131Q192 90 323 90q126 0 126 94 0 46-33.5 72T290 303q-129 31-179 79T61 505q0 88 64.5 142.5T307 702q123 0 186.5-56.5T565 507H434q-18 96-131 96-52 0-80.5-21.5T194 519q0-40 30.5-61.5T342 416q139-33 189.5-85.5T582 199q0-94-69.5-151T313-9Q187-9 118 48T36 199zm269-461h-99q49 110 55 207h124q-5-53-28.5-114.5T305-262z"/><glyph glyph-name="uni0219" unicode="ș" horiz-adv-x="501" d="M30 152h122q19-72 107-72 83 0 83 59 0 29-21.5 44.5T238 214q-113 27-151 64t-38 96q0 64 49 108t151 44 152.5-45.5T456 373H337q-13 64-93 64-73 0-73-53 0-23 21-36.5t84-28.5q116-26 154.5-66.5T469 148q0-69-54.5-114.5T255-12 95 33 30 152zm218-410h-99q49 110 55 207h124q-5-53-28.5-114.5T248-258z"/><glyph glyph-name="uni021A" unicode="Ț" horiz-adv-x="578" d="M224 0v584H10v108h558V584H354V0H224zm47-258h-99q49 110 55 207h124q-5-53-28.5-114.5T271-258z"/><glyph glyph-name="uni021B" unicode="ț" horiz-adv-x="348" d="M13 419v95h82v143h124V514h105v-95H219V149q0-33 12-47t44-14q25 0 37 2V3Q283-7 222-7q-68 0-97.5 34.5T95 131v288H13zm160-677H74q49 110 55 207h124q-5-53-28.5-114.5T173-258z"/><glyph glyph-name="uni0237" unicode="ȷ" horiz-adv-x="260" d="M68 514h124V1q0-114-33.5-162T30-209q-18 0-40 2v101H6q36 0 49 18.5T68-23v537z"/><glyph glyph-name="uni0251" unicode="ɑ" horiz-adv-x="594" d="M401 514h124V138q0-88 6-138H419q-3 11-8 67-42-79-158-79-96 0-156.5 72.5T36 252q0 118 63.5 196T269 526q55 0 88-18t44-41v47zM164 256q0-78 32.5-122.5T283 89q122 0 122 171 0 165-115 165-57 0-91.5-45T164 256z"/><glyph glyph-name="uni0259" unicode="ə" horiz-adv-x="538" d="M30 283h347q0 61-30.5 102.5T261 427q-45 0-66.5-16.5T160 364H35q8 28 22.5 53T98 468.5t69 42 98 15.5q117 0 177-76t60-186q0-124-62.5-200T259-12q-62 0-108.5 21.5T78 68t-38 80-12 91q0 29 2 44zm344-79H153q1-56 27-90.5T260 79q102 0 114 125z"/><glyph glyph-name="uni0261" unicode="ɡ" horiz-adv-x="587" d="M521 366V57q0-130-58-198t-191-68q-63 0-108.5 16T95-151t-33.5 51T48-48h126q19-68 103-68 71 0 96.5 41T399 53v30Q356 5 249 5 152 5 94 75.5T36 256q0 121 63.5 195.5T260 526q62 0 96-22t43-48q2 28 5 58h118q-1-40-1-148zM164 261q0-71 33-113t86-42q66 0 93 41.5T403 266q0 80-24.5 119.5T286 425q-56 0-89-43t-33-121z"/><glyph glyph-name="uni02BB" unicode="ʻ" horiz-adv-x="377" d="M177 731h100q-43-149-47-285H100q5 70 26.5 149.5T177 731z"/><glyph glyph-name="uni02BC" unicode="ʼ" horiz-adv-x="377" d="M201 446H100q43 144 47 285h130q-5-69-26.5-149T201 446z"/><glyph glyph-name="uni02BE" unicode="ʾ" horiz-adv-x="321" d="M101 623q45 3 45 40 0 34-46 39v62q51 0 86-27t35-74q0-50-35-76.5T101 560v63z"/><glyph glyph-name="uni02BF" unicode="ʿ" horiz-adv-x="321" d="M221 622v-62q-51 0-86 27t-35 74q0 50 35.5 76.5T221 764v-63q-45-3-45-40 0-34 45-39z"/><glyph glyph-name="circumflex" unicode="ˆ" d="M145 731h109l115-150H255l-57 83-53-83H31z"/><glyph glyph-name="caron" unicode="ˇ" d="M255 581H144L31 731h113l57-83 54 83h114z"/><glyph glyph-name="uni02C8" unicode="ˈ" horiz-adv-x="309" d="M209 559H100v187h109V559z"/><glyph glyph-name="uni02C9" unicode="ˉ" horiz-adv-x="492" d="M100 706h292v-94H100v94z"/><glyph glyph-name="uni02CA" unicode="ˊ" horiz-adv-x="455" d="M227 741h149L219 591H108z"/><glyph glyph-name="uni02CB" unicode="ˋ" horiz-adv-x="455" d="M79 741h150l119-150H236z"/><glyph glyph-name="uni02CC" unicode="ˌ" horiz-adv-x="309" d="M209-241H100v187h109v-187z"/><glyph glyph-name="breve" unicode="˘" d="M45 726h87q14-58 68-58 32 0 46.5 15t21.5 43h86q-8-63-46.5-103.5T198 582q-74 0-111.5 42T45 726z"/><glyph glyph-name="dotaccent" unicode="˙" d="M261 609H139v121h122V609z"/><glyph glyph-name="ring" unicode="˚" d="M201 569q-53 0-85 28.5T84 669q0 44 31 73t85 29 85-28 31-72q0-45-31.5-73.5T201 569zm-2 55q24 0 37 13.5t13 32.5-12.5 33-36.5 14-36.5-13.5T151 671t12-33 36-14z"/><glyph glyph-name="ogonek" unicode="˛" d="M173 10L275 0q-63-49-63-95 0-22 14-34t38-12q30 0 50 6v-87q-31-15-86-15-59 0-92.5 30T102-123q0 72 71 133z"/><glyph glyph-name="tilde" unicode="˜" d="M115 594H34v31q0 105 89 105 32 0 77.5-22.5T259 685q27 0 27 37v9h80v-24q0-115-93-115-34 0-77 22t-57 22q-24 0-24-27v-15z"/><glyph glyph-name="hungarumlaut" unicode="˝" d="M132 580H37l100 152h125zm197 0h-95l100 152h125z"/><glyph glyph-name="uni0300" unicode="̀" horiz-adv-x="0" d="M-149 741H1l119-150H8z"/><glyph glyph-name="uni0301" unicode="́" horiz-adv-x="0" d="M-1 741h149L-9 591h-111z"/><glyph glyph-name="uni0302" unicode="̂" horiz-adv-x="0" d="M-55 731H54l115-150H55l-57 83-53-83h-114z"/><glyph glyph-name="uni0303" unicode="̃" horiz-adv-x="0" d="M-85 594h-81v31q0 105 89 105 32 0 77.5-22.5T59 685q27 0 27 37v9h80v-24q0-115-93-115-34 0-77 22t-57 22q-24 0-24-27v-15z"/><glyph glyph-name="uni0304" unicode="̄" horiz-adv-x="0" d="M-146 706h292v-94h-292v94z"/><glyph glyph-name="uni0306" unicode="̆" horiz-adv-x="0" d="M-155 726h87q14-58 68-58 32 0 46.5 15T68 726h86q-8-63-46.5-103.5T-2 582q-74 0-111.5 42T-155 726z"/><glyph glyph-name="uni0307" unicode="̇" horiz-adv-x="0" d="M61 609H-61v121H61V609z"/><glyph glyph-name="uni0308" unicode="̈" horiz-adv-x="0" d="M-45 609h-102v121h102V609zm192 0H45v121h102V609z"/><glyph glyph-name="uni0309" unicode="̉" horiz-adv-x="0" d="M49 581H-52q29 27 40.5 44T0 661q0 31-37 31-28 0-55-15l-25 69q48 31 110 31 52 0 82-26.5t30-66.5q0-54-56-103z"/><glyph glyph-name="uni030A" unicode="̊" horiz-adv-x="0" d="M1 569q-53 0-85 28.5t-32 71.5q0 44 31 73t85 29 85-28 31-72q0-45-31.5-73.5T1 569zm-2 55q24 0 37 13.5T49 670t-12.5 33T0 717t-36.5-13.5T-49 671t12-33 36-14z"/><glyph glyph-name="uni030B" unicode="̋" horiz-adv-x="0" d="M-108 580h-95l100 152H22zm197 0H-6L94 732h125z"/><glyph glyph-name="uni030C" unicode="̌" horiz-adv-x="0" d="M55 581H-56l-113 150h113l57-83 54 83h114z"/><glyph glyph-name="uni031B" unicode="̛" horiz-adv-x="0" d="M-41 461l-35 77q57 9 57 55 0 28-11 63H79q9-22 9-60 0-54-32.5-91.5T-41 461z"/><glyph glyph-name="uni0323" unicode="̣" horiz-adv-x="0" d="M64-195H-65v129H64v-129z"/><glyph glyph-name="uni0324" unicode="̤" horiz-adv-x="0" d="M-45-196h-102v121h102v-121zm192 0H45v121h102v-121z"/><glyph glyph-name="uni0326" unicode="̦" horiz-adv-x="0" d="M0-258h-99q49 110 55 207H80q-5-53-28.5-114.5T0-258z"/><glyph glyph-name="uni0327" unicode="̧" horiz-adv-x="0" d="M-19 10L61 0 19-48q90-21 90-94 0-30-12.5-51t-34-31.5-43-15T-26-244q-48 0-74 11v70q25-7 59-7 47 0 47 28 0 36-92 38v32z"/><glyph glyph-name="uni0328" unicode="̨" horiz-adv-x="0" d="M-44 10L58 0Q-5-49-5-95q0-22 14-34t38-12q31 0 50 6v-87q-31-15-86-15-59 0-92.5 30t-33.5 84q0 72 71 133z"/><glyph glyph-name="uni032E" unicode="̮" horiz-adv-x="0" d="M-155-55h87q14-58 68-58 32 0 46.5 15T68-55h86q-8-63-46.5-103.5T-2-199q-74 0-111.5 42T-155-55z"/><glyph glyph-name="uni0331" unicode="̱" horiz-adv-x="0" d="M-146-83h292v-94h-292v94z"/><glyph glyph-name="pi" unicode="π" horiz-adv-x="575" d="M369 0v417H201V0H77v417q-65 0-83-4l2 93q38 8 168 8h407v-97h-78V0H369z"/><glyph glyph-name="uni1E0C" unicode="Ḍ" horiz-adv-x="731" d="M85 0v692h265q150 0 240.5-92.5T681 354q0-155-91.5-254.5T345 0H85zm130 586V106h124q103 0 155.5 67.5T547 353q0 99-52 166t-156 67H215zm191-781H277v129h129v-129z"/><glyph glyph-name="uni1E0D" unicode="ḍ" horiz-adv-x="591" d="M401 731h124V143q0-95 1-143H406q-5 38-5 60-40-72-152-72-97 0-155 72T36 252q0 121 63 197.5T269 526q54 0 87-16.5t45-38.5v260zM164 256q0-80 32-123.5T284 89q71 0 96 46t25 125q0 83-23.5 124T288 425q-60 0-92-44.5T164 256zm195-451H230v129h129v-129z"/><glyph glyph-name="uni1E0E" unicode="Ḏ" horiz-adv-x="731" d="M85 0v692h265q150 0 240.5-92.5T681 354q0-155-91.5-254.5T345 0H85zm130 586V106h124q103 0 155.5 67.5T547 353q0 99-52 166t-156 67H215zM196-83h292v-94H196v94z"/><glyph glyph-name="uni1E0F" unicode="ḏ" horiz-adv-x="591" d="M401 731h124V143q0-95 1-143H406q-5 38-5 60-40-72-152-72-97 0-155 72T36 252q0 121 63 197.5T269 526q54 0 87-16.5t45-38.5v260zM164 256q0-80 32-123.5T284 89q71 0 96 46t25 125q0 83-23.5 124T288 425q-60 0-92-44.5T164 256zM149-83h292v-94H149v94z"/><glyph glyph-name="uni1E20" unicode="Ḡ" horiz-adv-x="743" d="M673 382V0h-96q-8 31-11 77-60-88-206-88T132 87 50 338q0 160 88 262t245 102q124 0 201.5-61T676 486H547q-35 112-166 112-103 0-150-71.5T184 344q0-107 48-178.5T380 94q49 0 83.5 15.5t51.5 42 24 55 7 61.5v7H380v107h293zM225 862h298v-90H225v90z"/><glyph glyph-name="uni1E21" unicode="ḡ" horiz-adv-x="587" d="M521 366V57q0-130-58-198t-191-68q-63 0-108.5 16T95-151t-33.5 51T48-48h126q19-68 103-68 71 0 96.5 41T399 53v30Q356 5 249 5 152 5 94 75.5T36 256q0 121 63.5 195.5T260 526q62 0 96-22t43-48q2 28 5 58h118q-1-40-1-148zM164 261q0-71 33-113t86-42q66 0 93 41.5T403 266q0 80-24.5 119.5T286 425q-56 0-89-43t-33-121zm-17 445h292v-94H147v94z"/><glyph glyph-name="uni1E24" unicode="Ḥ" horiz-adv-x="737" d="M85 0v692h130V415h307v277h129V0H522v308H215V0H85zm347-195H303v129h129v-129z"/><glyph glyph-name="uni1E25" unicode="ḥ" horiz-adv-x="584" d="M68 731h124V448q49 78 152 78 75 0 123.5-48T516 329V0H393v310q0 114-93 114-59 0-83.5-38T192 276V0H68v731zm288-926H227v129h129v-129z"/><glyph glyph-name="uni1E2A" unicode="Ḫ" horiz-adv-x="737" d="M85 0v692h130V415h307v277h129V0H522v308H215V0H85zm128-55h87q14-58 68-58 32 0 46.5 15T436-55h86q-8-63-46.5-103.5T366-199q-74 0-111.5 42T213-55z"/><glyph glyph-name="uni1E2B" unicode="ḫ" horiz-adv-x="584" d="M68 731h124V448q49 78 152 78 75 0 123.5-48T516 329V0H393v310q0 114-93 114-59 0-83.5-38T192 276V0H68v731zm69-786h87q14-58 68-58 32 0 46.5 15T360-55h86q-8-63-46.5-103.5T290-199q-74 0-111.5 42T137-55z"/><glyph glyph-name="uni1E36" unicode="Ḷ" horiz-adv-x="578" d="M85 0v692h130V107h350L550 0H85zm305-195H261v129h129v-129z"/><glyph glyph-name="uni1E37" unicode="ḷ" horiz-adv-x="260" d="M192 0H68v731h124V0zm2-195H65v129h129v-129z"/><glyph glyph-name="uni1E38" unicode="Ḹ" horiz-adv-x="578" d="M85 0v692h130V107h350L550 0H85zm305-195H261v129h129v-129zM6 853h298v-90H6v90z"/><glyph glyph-name="uni1E39" unicode="ḹ" horiz-adv-x="260" d="M192 0H68v731h124V0zM-16 884h292v-94H-16v94zM194-195H65v129h129v-129z"/><glyph glyph-name="uni1E3A" unicode="Ḻ" horiz-adv-x="578" d="M85 0v692h130V107h350L550 0H85zm91-83h292v-94H176v94z"/><glyph glyph-name="uni1E3B" unicode="ḻ" horiz-adv-x="260" d="M192 0H68v731h124V0zM-16-83h292v-94H-16v94z"/><glyph glyph-name="uni1E42" unicode="Ṃ" horiz-adv-x="880" d="M669 0v272q0 202 5 329h-5Q641 483 483 0H371q-14 49-57 195.5T242.5 443 200 603h-4q9-122 9-346V0H85v692h193q123-378 157-535h2q20 101 171 535h186V0H669zM493-195H364v129h129v-129z"/><glyph glyph-name="uni1E43" unicode="ṃ" horiz-adv-x="863" d="M68 0v382q0 89-1 132h119q3-18 5-67 48 79 145 79 52 0 86.5-23t49.5-60q55 83 160 83 72 0 117.5-46.5T795 337V0H673v322q0 103-84 103-96 0-96-131V0H371v318q0 106-82 106-98 0-98-138V0H68zm427-195H366v129h129v-129z"/><glyph glyph-name="uni1E44" unicode="Ṅ" horiz-adv-x="751" d="M205 0H85v692h164q14-24 102.5-176T489 277.5 553 157h1q-7 78-7 307v228h119V0H512Q253 447 200 558h-1q6-80 6-325V0zm238 756H319v121h124V756z"/><glyph glyph-name="uni1E45" unicode="ṅ" horiz-adv-x="584" d="M69 0v385q0 90-1 129h120q5-23 5-72 42 84 153 84 78 0 124.5-51T517 328V0H393v314q0 110-91 110-109 0-109-142V0H69zm283 609H230v121h122V609z"/><glyph glyph-name="uni1E46" unicode="Ṇ" horiz-adv-x="751" d="M205 0H85v692h164q14-24 102.5-176T489 277.5 553 157h1q-7 78-7 307v228h119V0H512Q253 447 200 558h-1q6-80 6-325V0zm235-195H311v129h129v-129z"/><glyph glyph-name="uni1E47" unicode="ṇ" horiz-adv-x="584" d="M69 0v385q0 90-1 129h120q5-23 5-72 42 84 153 84 78 0 124.5-51T517 328V0H393v314q0 110-91 110-109 0-109-142V0H69zm287-195H227v129h129v-129z"/><glyph glyph-name="uni1E48" unicode="Ṉ" horiz-adv-x="751" d="M205 0H85v692h164q14-24 102.5-176T489 277.5 553 157h1q-7 78-7 307v228h119V0H512Q253 447 200 558h-1q6-80 6-325V0zm25-83h292v-94H230v94z"/><glyph glyph-name="uni1E49" unicode="ṉ" horiz-adv-x="584" d="M69 0v385q0 90-1 129h120q5-23 5-72 42 84 153 84 78 0 124.5-51T517 328V0H393v314q0 110-91 110-109 0-109-142V0H69zm77-83h292v-94H146v94z"/><glyph glyph-name="uni1E5A" unicode="Ṛ" horiz-adv-x="655" d="M326 286H213V0H85v692h293q108 0 167.5-52.5T605 503q0-64-30.5-105T498 340q93-29 93-174v-32q0-103 10-134H477q-13 32-13 153v12q0 66-27.5 93.5T326 286zM213 587V391h134q66 0 96 24.5t30 74.5q0 97-121 97H213zm188-779H272v129h129v-129z"/><glyph glyph-name="uni1E5B" unicode="ṛ" horiz-adv-x="380" d="M68 0v375q0 101-1 139h122q3-18 3-95 19 48 62 77t106 30V406q-84 1-126-37t-42-136V0H68zm127-195H66v129h129v-129z"/><glyph glyph-name="uni1E5C" unicode="Ṝ" horiz-adv-x="655" d="M326 286H213V0H85v692h293q108 0 167.5-52.5T605 503q0-64-30.5-105T498 340q93-29 93-174v-32q0-103 10-134H477q-13 32-13 153v12q0 66-27.5 93.5T326 286zM213 587V391h134q66 0 96 24.5t30 74.5q0 97-121 97H213zm188-778H272v129h129v-129zM177 858h298v-90H177v90z"/><glyph glyph-name="uni1E5D" unicode="ṝ" horiz-adv-x="380" d="M68 0v375q0 101-1 139h122q3-18 3-95 19 48 62 77t106 30V406q-84 1-126-37t-42-136V0H68zm-2 706h292v-94H66v94zm130-901H67v129h129v-129z"/><glyph glyph-name="uni1E5E" unicode="Ṟ" horiz-adv-x="655" d="M326 286H213V0H85v692h293q108 0 167.5-52.5T605 503q0-64-30.5-105T498 340q93-29 93-174v-32q0-103 10-134H477q-13 32-13 153v12q0 66-27.5 93.5T326 286zM213 587V391h134q66 0 96 24.5t30 74.5q0 97-121 97H213zM191-81h292v-94H191v94z"/><glyph glyph-name="uni1E5F" unicode="ṟ" horiz-adv-x="380" d="M68 0v375q0 101-1 139h122q3-18 3-95 19 48 62 77t106 30V406q-84 1-126-37t-42-136V0H68zM1-83h292v-94H1v94z"/><glyph glyph-name="uni1E60" unicode="Ṡ" horiz-adv-x="625" d="M36 199h131Q192 90 323 90q126 0 126 94 0 46-33.5 72T290 303q-129 31-179 79T61 505q0 88 64.5 142.5T307 702q123 0 186.5-56.5T565 507H434q-18 96-131 96-52 0-80.5-21.5T194 519q0-40 30.5-61.5T342 416q139-33 189.5-85.5T582 199q0-94-69.5-151T313-9Q187-9 118 48T36 199zm338 563H250v121h124V762z"/><glyph glyph-name="uni1E61" unicode="ṡ" horiz-adv-x="501" d="M30 152h122q19-72 107-72 83 0 83 59 0 29-21.5 44.5T238 214q-113 27-151 64t-38 96q0 64 49 108t151 44 152.5-45.5T456 373H337q-13 64-93 64-73 0-73-53 0-23 21-36.5t84-28.5q116-26 154.5-66.5T469 148q0-69-54.5-114.5T255-12 95 33 30 152zm282 457H190v121h122V609z"/><glyph glyph-name="uni1E62" unicode="Ṣ" horiz-adv-x="625" d="M36 199h131Q192 90 323 90q126 0 126 94 0 46-33.5 72T290 303q-129 31-179 79T61 505q0 88 64.5 142.5T307 702q123 0 186.5-56.5T565 507H434q-18 96-131 96-52 0-80.5-21.5T194 519q0-40 30.5-61.5T342 416q139-33 189.5-85.5T582 199q0-94-69.5-151T313-9Q187-9 118 48T36 199zm340-394H247v129h129v-129z"/><glyph glyph-name="uni1E63" unicode="ṣ" horiz-adv-x="501" d="M30 152h122q19-72 107-72 83 0 83 59 0 29-21.5 44.5T238 214q-113 27-151 64t-38 96q0 64 49 108t151 44 152.5-45.5T456 373H337q-13 64-93 64-73 0-73-53 0-23 21-36.5t84-28.5q116-26 154.5-66.5T469 148q0-69-54.5-114.5T255-12 95 33 30 152zm285-347H186v129h129v-129z"/><glyph glyph-name="uni1E6C" unicode="Ṭ" horiz-adv-x="578" d="M224 0v584H10v108h558V584H354V0H224zm129-195H224v129h129v-129z"/><glyph glyph-name="uni1E6D" unicode="ṭ" horiz-adv-x="348" d="M13 419v95h82v143h124V514h105v-95H219V149q0-33 12-47t44-14q25 0 37 2V3Q283-7 222-7q-68 0-97.5 34.5T95 131v288H13zm244-614H128v129h129v-129z"/><glyph glyph-name="uni1E6E" unicode="Ṯ" horiz-adv-x="578" d="M224 0v584H10v108h558V584H354V0H224zm-81-83h292v-94H143v94z"/><glyph glyph-name="uni1E6F" unicode="ṯ" horiz-adv-x="348" d="M13 419v95h82v143h124V514h105v-95H219V149q0-33 12-47t44-14q25 0 37 2V3Q283-7 222-7q-68 0-97.5 34.5T95 131v288H13zM47-83h292v-94H47v94z"/><glyph glyph-name="Wgrave" unicode="Ẁ" horiz-adv-x="946" d="M334 0H198L19 692h138q20-94 52-241t45.5-213T273 137h1q13 65 70 279.5T416 692h119q119-453 136-549h1q10 63 34 165.5t57 232T801 692h127L735 0H600q-11 43-64.5 251.5T469 522h-1Q453 445 334 0zm-83 890h156l128-139H418z"/><glyph glyph-name="wgrave" unicode="ẁ" horiz-adv-x="791" d="M20 514h131q80-334 91-402h1q18 98 99 402h117q86-354 92-396h1q30 135 96 396h124L617 0H484q-87 371-89 383h-1q-9-62-93-383H167zm170 227h150l119-150H347z"/><glyph glyph-name="Wacute" unicode="Ẃ" horiz-adv-x="946" d="M334 0H198L19 692h138q20-94 52-241t45.5-213T273 137h1q13 65 70 279.5T416 692h119q119-453 136-549h1q10 63 34 165.5t57 232T801 692h127L735 0H600q-11 43-64.5 251.5T469 522h-1Q453 445 334 0zm217 890h154L530 751H411z"/><glyph glyph-name="wacute" unicode="ẃ" horiz-adv-x="791" d="M20 514h131q80-334 91-402h1q18 98 99 402h117q86-354 92-396h1q30 135 96 396h124L617 0H484q-87 371-89 383h-1q-9-62-93-383H167zm436 227h149L448 591H337z"/><glyph glyph-name="Wdieresis" unicode="Ẅ" horiz-adv-x="946" d="M334 0H198L19 692h138q20-94 52-241t45.5-213T273 137h1q13 65 70 279.5T416 692h119q119-453 136-549h1q10 63 34 165.5t57 232T801 692h127L735 0H600q-11 43-64.5 251.5T469 522h-1Q453 445 334 0zm91 760H323v121h102V760zm198 0H521v121h102V760z"/><glyph glyph-name="wdieresis" unicode="ẅ" horiz-adv-x="791" d="M20 514h131q80-334 91-402h1q18 98 99 402h117q86-354 92-396h1q30 135 96 396h124L617 0H484q-87 371-89 383h-1q-9-62-93-383H167zm331 95H249v121h102V609zm192 0H441v121h102V609z"/><glyph glyph-name="uni1E8E" unicode="Ẏ" horiz-adv-x="610" d="M368 0H238v248q0 10-6 21L-8 692h147q125-235 170-330 31 70 172 330h137L373 269q-5-7-5-20V0zm-1 755H243v121h124V755z"/><glyph glyph-name="uni1E8F" unicode="ẏ" horiz-adv-x="506" d="M7 514h133q107-336 120-401h1q24 100 114 401h124L322-18q-38-113-79-152t-128-39q-32 0-63 4v102q22-2 39-2 42 0 65 19t40 69zm307 95H192v121h122V609z"/><glyph glyph-name="uni1E92" unicode="Ẓ" horiz-adv-x="610" d="M30 0v96l393 488H48v108h523V586L188 107h401L572 0H30zm339-195H240v129h129v-129z"/><glyph glyph-name="uni1E93" unicode="ẓ" horiz-adv-x="477" d="M28 0v95l269 320H42v99h395v-98L174 100h280L438 0H28zm274-195H173v129h129v-129z"/><glyph glyph-name="uni1E97" unicode="ẗ" horiz-adv-x="348" d="M13 419v95h82v143h124V514h105v-95H219V149q0-33 12-47t44-14q25 0 37 2V3Q283-7 222-7q-68 0-97.5 34.5T95 131v288H13zm99 287H10v121h102V706zm192 0H202v121h102V706z"/><glyph glyph-name="uni1E9E" unicode="ẞ" horiz-adv-x="666" d="M215 478V0H84v506q0 96 64.5 146T340 702q75 0 129.5-17t82-45.5 40-57.5 12.5-60q0-25-2-33l-152-96v-5l60-36q76-46 104-89t28-95q0-80-55-128.5T426-9Q321-9 266 38v117q28-29 71.5-47.5T426 89q46 0 68.5 19t22.5 49q0 29-17.5 49T429 258l-96 56q-36 22-35.5 57t37.5 59l133 85q0 36-28.5 63.5T343 606q-63 0-95.5-27T215 478z"/><glyph glyph-name="uni1EA0" unicode="Ạ" horiz-adv-x="678" d="M464 176H203L142 0H14l239 692h162L664 0H527zM232 284h202q-92 268-104 311h-1q-18-68-97-311zm171-479H274v129h129v-129z"/><glyph glyph-name="uni1EA1" unicode="ạ" horiz-adv-x="549" d="M480 352V126q0-96 7-126H368q-6 16-8 56-39-68-149-68-86 0-130.5 47T36 148q0 85 64 127.5T280 318h78v35q0 37-19 59.5T268 435q-47 0-65-17.5T179 366H60q6 71 56.5 116T273 526q207-2 207-174zM359 225v15h-67q-68 0-99.5-20.5T161 155q0-33 21.5-54.5T244 79q69 0 92 38.5T359 225zm-20-420H210v129h129v-129z"/><glyph glyph-name="uni1EA2" unicode="Ả" horiz-adv-x="678" d="M464 176H203L142 0H14l239 692h162L664 0H527zM232 284h202q-92 268-104 311h-1q-18-68-97-311zm155 466H286q29 27 40.5 44t11.5 36q0 31-37 31-28 0-55-15l-25 69q48 31 110 31 52 0 82-26.5t30-66.5q0-54-56-103z"/><glyph glyph-name="uni1EA3" unicode="ả" horiz-adv-x="549" d="M480 352V126q0-96 7-126H368q-6 16-8 56-39-68-149-68-86 0-130.5 47T36 148q0 85 64 127.5T280 318h78v35q0 37-19 59.5T268 435q-47 0-65-17.5T179 366H60q6 71 56.5 116T273 526q207-2 207-174zM359 225v15h-67q-68 0-99.5-20.5T161 155q0-33 21.5-54.5T244 79q69 0 92 38.5T359 225zm-35 356H223q29 27 40.5 44t11.5 36q0 31-37 31-28 0-55-15l-25 69q48 31 110 31 52 0 82-26.5t30-66.5q0-54-56-103z"/><glyph glyph-name="uni1EA4" unicode="Ấ" horiz-adv-x="678" d="M464 176H203L142 0H14l239 692h162L664 0H527zM232 284h202q-92 268-104 311h-1q-18-68-97-311zm41 595h126l133-128H404l-66 65-63-65H147zm303 90h139L577 849H475z"/><glyph glyph-name="uni1EA5" unicode="ấ" horiz-adv-x="549" d="M480 352V126q0-96 7-126H368q-6 16-8 56-39-68-149-68-86 0-130.5 47T36 148q0 85 64 127.5T280 318h78v35q0 37-19 59.5T268 435q-47 0-65-17.5T179 366H60q6 71 56.5 116T273 526q207-2 207-174zM359 225v15h-67q-68 0-99.5-20.5T161 155q0-33 21.5-54.5T244 79q69 0 92 38.5T359 225zM214 704h122l104-132H333l-59 74-58-74H110zm285 113h123L485 685h-91z"/><glyph glyph-name="uni1EA6" unicode="Ầ" horiz-adv-x="678" d="M464 176H203L142 0H14l239 692h162L664 0H527zM232 284h202q-92 268-104 311h-1q-18-68-97-311zm41 595h126l133-128H404l-66 65-63-65H147zm131 79h142l97-114h-96z"/><glyph glyph-name="uni1EA7" unicode="ầ" horiz-adv-x="549" d="M480 352V126q0-96 7-126H368q-6 16-8 56-39-68-149-68-86 0-130.5 47T36 148q0 85 64 127.5T280 318h78v35q0 37-19 59.5T268 435q-47 0-65-17.5T179 366H60q6 71 56.5 116T273 526q207-2 207-174zM359 225v15h-67q-68 0-99.5-20.5T161 155q0-33 21.5-54.5T244 79q69 0 92 38.5T359 225zM214 704h122l104-132H333l-59 74-58-74H110zm114 107h126l106-135h-96z"/><glyph glyph-name="uni1EA8" unicode="Ẩ" horiz-adv-x="678" d="M464 176H203L142 0H14l239 692h162L664 0H527zM232 284h202q-92 268-104 311h-1q-18-68-97-311zm346 562h-91q49 39 49 73 0 27-34 27-27 0-56-18l-23 58q43 35 104 35 46 0 72.5-23.5T626 937q0-51-48-91zm-305 33h126l133-128H404l-66 67-63-67H147z"/><glyph glyph-name="uni1EA9" unicode="ẩ" horiz-adv-x="549" d="M480 352V126q0-96 7-126H368q-6 16-8 56-39-68-149-68-86 0-130.5 47T36 148q0 85 64 127.5T280 318h78v35q0 37-19 59.5T268 435q-47 0-65-17.5T179 366H60q6 71 56.5 116T273 526q207-2 207-174zM359 225v15h-67q-68 0-99.5-20.5T161 155q0-33 21.5-54.5T244 79q69 0 92 38.5T359 225zm138 452h-91q52 42 52 70 0 27-31 27-29 0-52-17l-21 57q39 31 97 31 46 0 69.5-21t23.5-59q0-54-47-88zm-283 27h122l104-132H333l-59 74-58-74H110z"/><glyph glyph-name="uni1EAA" unicode="Ẫ" horiz-adv-x="678" d="M464 176H203L142 0H14l239 692h162L664 0H527zM232 284h202q-92 268-104 311h-1q-18-68-97-311zm7 594h-69v11q0 95 85 95 34 0 87-16.5t73-16.5q26 0 26 24v7h68v-12q0-51-21-72t-61-21q-31 0-88 16.5T264 910q-25 0-25-26v-6zm33-35h134l117-102H403l-65 53-62-53H154z"/><glyph glyph-name="uni1EAB" unicode="ẫ" horiz-adv-x="549" d="M480 352V126q0-96 7-126H368q-6 16-8 56-39-68-149-68-86 0-130.5 47T36 148q0 85 64 127.5T280 318h78v35q0 37-19 59.5T268 435q-47 0-65-17.5T179 366H60q6 71 56.5 116T273 526q207-2 207-174zM359 225v15h-67q-68 0-99.5-20.5T161 155q0-33 21.5-54.5T244 79q69 0 92 38.5T359 225zM194 724h-69v11q0 95 80 95 32 0 73-17t52-17q26 0 26 25v7h67v-12q0-93-82-93-27 0-67.5 17T219 757q-25 0-25-27v-6zm17-43h125l111-109H334l-62 58-59-58H102z"/><glyph glyph-name="uni1EAC" unicode="Ậ" horiz-adv-x="678" d="M464 176H203L142 0H14l239 692h162L664 0H527zM232 284h202q-92 268-104 311h-1q-18-68-97-311zm171-479H274v129h129v-129zM276 880h124l128-136H410l-73 75-74-75H144z"/><glyph glyph-name="uni1EAD" unicode="ậ" horiz-adv-x="549" d="M480 352V126q0-96 7-126H368q-6 16-8 56-39-68-149-68-86 0-130.5 47T36 148q0 85 64 127.5T280 318h78v35q0 37-19 59.5T268 435q-47 0-65-17.5T179 366H60q6 71 56.5 116T273 526q207-2 207-174zM359 225v15h-67q-68 0-99.5-20.5T161 155q0-33 21.5-54.5T244 79q69 0 92 38.5T359 225zm-20-420H210v129h129v-129zM220 731h109l115-150H330l-57 83-53-83H106z"/><glyph glyph-name="uni1EAE" unicode="Ắ" horiz-adv-x="678" d="M464 176H203L142 0H14l239 692h162L664 0H527zM232 284h202q-92 268-104 311h-1q-18-68-97-311zm-63 583h91q18-48 78-48 58 0 79 48h91q-13-54-54-90t-117-37q-81 0-120.5 39.5T169 867zm212 128h149L387 893H280z"/><glyph glyph-name="uni1EAF" unicode="ắ" horiz-adv-x="549" d="M480 352V126q0-96 7-126H368q-6 16-8 56-39-68-149-68-86 0-130.5 47T36 148q0 85 64 127.5T280 318h78v35q0 37-19 59.5T268 435q-47 0-65-17.5T179 366H60q6 71 56.5 116T273 526q207-2 207-174zM359 225v15h-67q-68 0-99.5-20.5T161 155q0-33 21.5-54.5T244 79q69 0 92 38.5T359 225zM115 700h87q16-50 72-50 58 0 72 50h86q-10-57-48.5-92T273 573t-110.5 37-47.5 90zm203 138h127L319 726H219z"/><glyph glyph-name="uni1EB0" unicode="Ằ" horiz-adv-x="678" d="M464 176H203L142 0H14l239 692h162L664 0H527zM232 284h202q-92 268-104 311h-1q-18-68-97-311zm-63 583h91q18-48 78-48 58 0 79 48h91q-31-127-171-127-81 0-120.5 39.5T169 867zm-17 128h149l100-102H292z"/><glyph glyph-name="uni1EB1" unicode="ằ" horiz-adv-x="549" d="M480 352V126q0-96 7-126H368q-6 16-8 56-39-68-149-68-86 0-130.5 47T36 148q0 85 64 127.5T280 318h78v35q0 37-19 59.5T268 435q-47 0-65-17.5T179 366H60q6 71 56.5 116T273 526q207-2 207-174zM359 225v15h-67q-68 0-99.5-20.5T161 155q0-33 21.5-54.5T244 79q69 0 92 38.5T359 225zM116 700h87q16-50 72-50 58 0 72 50h86q-10-57-48.5-92T274 573t-110.5 37-47.5 90zm-10 138h131l99-112H235z"/><glyph glyph-name="uni1EB2" unicode="Ẳ" horiz-adv-x="678" d="M464 176H203L142 0H14l239 692h162L664 0H527zM232 284h202q-92 268-104 311h-1q-18-68-97-311zm147 600h-90q50 40 50 67 0 26-33 26-25 0-53-16l-24 56q40 32 101 32 45 0 70-22t25-59q0-46-46-84zm-210-17h90q20-48 78-48t79 48h92q-40-127-171-127-43 0-76 12.5t-51.5 33-28 41T169 867z"/><glyph glyph-name="uni1EB3" unicode="ẳ" horiz-adv-x="549" d="M480 352V126q0-96 7-126H368q-6 16-8 56-39-68-149-68-86 0-130.5 47T36 148q0 85 64 127.5T280 318h78v35q0 37-19 59.5T268 435q-47 0-65-17.5T179 366H60q6 71 56.5 116T273 526q207-2 207-174zM359 225v15h-67q-68 0-99.5-20.5T161 155q0-33 21.5-54.5T244 79q69 0 92 38.5T359 225zm-51 495h-85q55 42 55 69 0 28-31 28-27 0-52-18l-21 56q40 33 96 33 46 0 70-21.5t24-59.5q0-53-56-87zm-192-20h87q16-50 72-50 58 0 72 50h86q-10-57-48.5-92T274 573t-110.5 37-47.5 90z"/><glyph glyph-name="uni1EB4" unicode="Ẵ" horiz-adv-x="678" d="M464 176H203L142 0H14l239 692h162L664 0H527zM232 284h202q-92 268-104 311h-1q-18-68-97-311zm6 601h-69v10q0 95 85 95 34 0 87-16.5t73-16.5q26 0 26 25v7h68v-13q0-50-21-71t-61-21q-30 0-87 16.5T263 917q-25 0-25-27v-5zm-71-41h92q21-39 78-39 63 0 78 39h91q-29-108-170-108-77 0-117 32t-52 76z"/><glyph glyph-name="uni1EB5" unicode="ẵ" horiz-adv-x="549" d="M480 352V126q0-96 7-126H368q-6 16-8 56-39-68-149-68-86 0-130.5 47T36 148q0 85 64 127.5T280 318h78v35q0 37-19 59.5T268 435q-47 0-65-17.5T179 366H60q6 71 56.5 116T273 526q207-2 207-174zM359 225v15h-67q-68 0-99.5-20.5T161 155q0-33 21.5-54.5T244 79q69 0 92 38.5T359 225zM195 739h-69v10q0 49 22 72t58 23q32 0 72.5-16.5T331 811q26 0 26 25v7h67v-13q0-92-82-92-27 0-67.5 16.5T220 771q-25 0-25-27v-5zm-69-45h82q20-43 67-43 52 0 67 43h83q-9-52-47-85.5T274 575q-67 0-104 35t-44 84z"/><glyph glyph-name="uni1EB6" unicode="Ặ" horiz-adv-x="678" d="M464 176H203L142 0H14l239 692h162L664 0H527zM232 284h202q-92 268-104 311h-1q-18-68-97-311zm171-479H274v129h129v-129zM171 886h89q5-27 25.5-43.5T337 826q66 0 78 60h88q-8-60-49.5-100.5T336 745q-79 0-119.5 41.5T171 886z"/><glyph glyph-name="uni1EB7" unicode="ặ" horiz-adv-x="549" d="M480 352V126q0-96 7-126H368q-6 16-8 56-39-68-149-68-86 0-130.5 47T36 148q0 85 64 127.5T280 318h78v35q0 37-19 59.5T268 435q-47 0-65-17.5T179 366H60q6 71 56.5 116T273 526q207-2 207-174zM359 225v15h-67q-68 0-99.5-20.5T161 155q0-33 21.5-54.5T244 79q69 0 92 38.5T359 225zM120 726h87q15-58 68-58 32 0 46.5 15t21.5 43h86q-8-63-46.5-103.5T273 582q-74 0-111.5 42T120 726zm228-921H219v129h129v-129z"/><glyph glyph-name="uni1EB8" unicode="Ẹ" horiz-adv-x="611" d="M547 414V307H212V107h369L565 0H85v692h477V584H212V414h335zM392-195H263v129h129v-129z"/><glyph glyph-name="uni1EB9" unicode="ẹ" horiz-adv-x="544" d="M508 231H161q0-61 30.5-102.5T277 87q45 0 66.5 16.5T378 150h125q-8-28-22.5-53T440 45.5t-69-42T273-12Q156-12 96 64T36 250q0 124 62.5 200T279 526q62 0 108.5-21.5T460 446t38-80 12-91q0-29-2-44zm-344 79h221q-1 56-27 90.5T278 435q-102 0-114-125zm182-505H217v129h129v-129z"/><glyph glyph-name="uni1EBA" unicode="Ẻ" horiz-adv-x="611" d="M547 414V307H212V107h369L565 0H85v692h477V584H212V414h335zM381 751H280q29 27 40.5 44t11.5 36q0 31-37 31-28 0-55-15l-25 69q48 31 110 31 52 0 82-26.5t30-66.5q0-54-56-103z"/><glyph glyph-name="uni1EBB" unicode="ẻ" horiz-adv-x="544" d="M508 231H161q0-61 30.5-102.5T277 87q45 0 66.5 16.5T378 150h125q-8-28-22.5-53T440 45.5t-69-42T273-12Q156-12 96 64T36 250q0 124 62.5 200T279 526q62 0 108.5-21.5T460 446t38-80 12-91q0-29-2-44zm-344 79h221q-1 56-27 90.5T278 435q-102 0-114-125zm166 268H229q29 27 40.5 44t11.5 36q0 31-37 31-28 0-55-15l-25 69q48 31 110 31 52 0 82-26.5t30-66.5q0-54-56-103z"/><glyph glyph-name="uni1EBC" unicode="Ẽ" horiz-adv-x="611" d="M547 414V307H212V107h369L565 0H85v692h477V584H212V414h335zM229 765h-82v30q0 56 23.5 80t68.5 24q37 0 90-24t66-24q28 0 28 38v9h80v-23q0-64-24-89.5T408 760q-30 0-84 24t-69 24q-26 0-26-28v-15z"/><glyph glyph-name="uni1EBD" unicode="ẽ" horiz-adv-x="544" d="M508 231H161q0-61 30.5-102.5T277 87q45 0 66.5 16.5T378 150h125q-8-28-22.5-53T440 45.5t-69-42T273-12Q156-12 96 64T36 250q0 124 62.5 200T279 526q62 0 108.5-21.5T460 446t38-80 12-91q0-29-2-44zm-344 79h221q-1 56-27 90.5T278 435q-102 0-114-125zm23 284h-81v31q0 105 89 105 32 0 77.5-22.5T331 685q27 0 27 37v9h80v-24q0-115-93-115-34 0-77 22t-57 22q-24 0-24-27v-15z"/><glyph glyph-name="uni1EBE" unicode="Ế" horiz-adv-x="611" d="M547 414V307H212V107h369L565 0H85v692h477V584H212V414h335zM258 880h126l133-128H389l-66 65-63-65H132zm303 90h139L562 850H460z"/><glyph glyph-name="uni1EBF" unicode="ế" horiz-adv-x="544" d="M508 231H161q0-61 30.5-102.5T277 87q45 0 66.5 16.5T378 150h125q-8-28-22.5-53T440 45.5t-69-42T273-12Q156-12 96 64T36 250q0 124 62.5 200T279 526q62 0 108.5-21.5T460 446t38-80 12-91q0-29-2-44zm-344 79h221q-1 56-27 90.5T278 435q-102 0-114-125zm49 394h122l104-132H332l-59 74-58-74H109zm285 113h123L484 685h-91z"/><glyph glyph-name="uni1EC0" unicode="Ề" horiz-adv-x="611" d="M547 414V307H212V107h369L565 0H85v692h477V584H212V414h335zM258 881h126l133-128H389l-66 65-63-65H132zm131 79h142l97-114h-96z"/><glyph glyph-name="uni1EC1" unicode="ề" horiz-adv-x="544" d="M508 231H161q0-61 30.5-102.5T277 87q45 0 66.5 16.5T378 150h125q-8-28-22.5-53T440 45.5t-69-42T273-12Q156-12 96 64T36 250q0 124 62.5 200T279 526q62 0 108.5-21.5T460 446t38-80 12-91q0-29-2-44zm-344 79h221q-1 56-27 90.5T278 435q-102 0-114-125zm49 394h122l104-132H332l-59 74-58-74H109zm114 107h126l106-135h-96z"/><glyph glyph-name="uni1EC2" unicode="Ể" horiz-adv-x="611" d="M547 414V307H212V107h369L565 0H85v692h477V584H212V414h335zm14 434h-91q49 39 49 73 0 27-34 27-27 0-56-18l-23 58q43 35 104 35 46 0 72.5-23.5T609 939q0-51-48-91zm-305 33h126l133-128H387l-66 67-63-67H130z"/><glyph glyph-name="uni1EC3" unicode="ể" horiz-adv-x="544" d="M508 231H161q0-61 30.5-102.5T277 87q45 0 66.5 16.5T378 150h125q-8-28-22.5-53T440 45.5t-69-42T273-12Q156-12 96 64T36 250q0 124 62.5 200T279 526q62 0 108.5-21.5T460 446t38-80 12-91q0-29-2-44zm-344 79h221q-1 56-27 90.5T278 435q-102 0-114-125zm330 367h-91q52 42 52 70 0 27-31 27-29 0-52-17l-21 57q39 31 97 31 46 0 69.5-21t23.5-59q0-54-47-88zm-283 27h122l104-132H330l-59 74-58-74H107z"/><glyph glyph-name="uni1EC4" unicode="Ễ" horiz-adv-x="611" d="M547 414V307H212V107h369L565 0H85v692h477V584H212V414h335zM224 882h-69v11q0 95 85 95 34 0 87-16.5t73-16.5q26 0 26 24v7h68v-12q0-51-21-72t-61-21q-30 0-87 16.5T249 914q-25 0-25-26v-6zm33-35h134l117-102H388l-65 53-62-53H139z"/><glyph glyph-name="uni1EC5" unicode="ễ" horiz-adv-x="544" d="M508 231H161q0-61 30.5-102.5T277 87q45 0 66.5 16.5T378 150h125q-8-28-22.5-53T440 45.5t-69-42T273-12Q156-12 96 64T36 250q0 124 62.5 200T279 526q62 0 108.5-21.5T460 446t38-80 12-91q0-29-2-44zm-344 79h221q-1 56-27 90.5T278 435q-102 0-114-125zm28 412h-69v11q0 95 80 95 32 0 73-17t52-17q26 0 26 25v7h67v-12q0-93-82-93-27 0-67.5 17T217 755q-25 0-25-27v-6zm17-43h125l111-109H332l-62 58-59-58H100z"/><glyph glyph-name="uni1EC6" unicode="Ệ" horiz-adv-x="611" d="M547 414V307H212V107h369L565 0H85v692h477V584H212V414h335zM396-195H267v129h129v-129zM261 889h124l128-136H395l-73 75-74-75H129z"/><glyph glyph-name="uni1EC7" unicode="ệ" horiz-adv-x="544" d="M508 231H161q0-61 30.5-102.5T277 87q45 0 66.5 16.5T378 150h125q-8-28-22.5-53T440 45.5t-69-42T273-12Q156-12 96 64T36 250q0 124 62.5 200T279 526q62 0 108.5-21.5T460 446t38-80 12-91q0-29-2-44zm-344 79h221q-1 56-27 90.5T278 435q-102 0-114-125zm182-505H217v129h129v-129zM227 731h109l115-150H337l-57 83-53-83H113z"/><glyph glyph-name="uni1EC8" unicode="Ỉ" horiz-adv-x="300" d="M85 692h130V0H85v692zm114 58H98q29 27 40.5 44t11.5 36q0 31-37 31-28 0-55-15l-25 69q48 31 110 31 52 0 82-26.5t30-66.5q0-54-56-103z"/><glyph glyph-name="uni1EC9" unicode="ỉ" horiz-adv-x="260" d="M68 0v514h124V0H68zm111 581H78q29 27 40.5 44t11.5 36q0 31-37 31-28 0-55-15l-25 69q48 31 110 31 52 0 82-26.5t30-66.5q0-54-56-103z"/><glyph glyph-name="uni1ECA" unicode="Ị" horiz-adv-x="300" d="M85 692h130V0H85v692zm129-887H85v129h129v-129z"/><glyph glyph-name="uni1ECB" unicode="ị" horiz-adv-x="260" d="M68 0v514h124V0H68zm124 610H68v121h124V610zm2-805H65v129h129v-129z"/><glyph glyph-name="uni1ECC" unicode="Ọ" horiz-adv-x="760" d="M385 702q149 0 237.5-97.5T711 349q0-153-88-256T376-10Q222-10 136 90.5T50 346t90 255.5T385 702zm-6-107q-98 0-146.5-67.5T184 349q0-110 51-181t146-71q100 0 147.5 70.5T576 347q0 110-49.5 179T379 595zm65-797H315v129h129v-129z"/><glyph glyph-name="uni1ECD" unicode="ọ" horiz-adv-x="570" d="M289 526q111 0 178-73.5T534 258q0-118-67-194T283-12q-115 0-181 75T36 256q0 120 67.5 195T289 526zm-5-99q-58 0-90-43.5T162 257q0-78 33-124t91-46 89.5 45T407 256q0 83-31.5 127T284 427zm64-626H219v129h129v-129z"/><glyph glyph-name="uni1ECE" unicode="Ỏ" horiz-adv-x="760" d="M385 702q149 0 237.5-97.5T711 349q0-153-88-256T376-10Q222-10 136 90.5T50 346t90 255.5T385 702zm-6-107q-98 0-146.5-67.5T184 349q0-110 51-181t146-71q100 0 147.5 70.5T576 347q0 110-49.5 179T379 595zm50 156H328q29 27 40.5 44t11.5 36q0 31-37 31-28 0-55-15l-25 69q48 31 110 31 52 0 82-26.5t30-66.5q0-54-56-103z"/><glyph glyph-name="uni1ECF" unicode="ỏ" horiz-adv-x="570" d="M289 526q111 0 178-73.5T534 258q0-118-67-194T283-12q-115 0-181 75T36 256q0 120 67.5 195T289 526zm-5-99q-58 0-90-43.5T162 257q0-78 33-124t91-46 89.5 45T407 256q0 83-31.5 127T284 427zm49 154H232q29 27 40.5 44t11.5 36q0 31-37 31-28 0-55-15l-25 69q48 31 110 31 52 0 82-26.5t30-66.5q0-54-56-103z"/><glyph glyph-name="uni1ED0" unicode="Ố" horiz-adv-x="760" d="M385 702q149 0 237.5-97.5T711 349q0-153-88-256T376-10Q222-10 136 90.5T50 346t90 255.5T385 702zm-6-107q-98 0-146.5-67.5T184 349q0-110 51-181t146-71q100 0 147.5 70.5T576 347q0 110-49.5 179T379 595zm-65 284h126l133-128H445l-66 65-63-65H188zm303 90h139L618 849H516z"/><glyph glyph-name="uni1ED1" unicode="ố" horiz-adv-x="570" d="M289 526q111 0 178-73.5T534 258q0-118-67-194T283-12q-115 0-181 75T36 256q0 120 67.5 195T289 526zm-5-99q-58 0-90-43.5T162 257q0-78 33-124t91-46 89.5 45T407 256q0 83-31.5 127T284 427zm-61 277h122l104-132H342l-59 74-58-74H119zm285 113h123L494 685h-91z"/><glyph glyph-name="uni1ED2" unicode="Ồ" horiz-adv-x="760" d="M385 702q149 0 237.5-97.5T711 349q0-153-88-256T376-10Q222-10 136 90.5T50 346t90 255.5T385 702zm-6-107q-98 0-146.5-67.5T184 349q0-110 51-181t146-71q100 0 147.5 70.5T576 347q0 110-49.5 179T379 595zm-65 284h126l133-128H445l-66 65-63-65H188zm131 79h142l97-114h-96z"/><glyph glyph-name="uni1ED3" unicode="ồ" horiz-adv-x="570" d="M289 526q111 0 178-73.5T534 258q0-118-67-194T283-12q-115 0-181 75T36 256q0 120 67.5 195T289 526zm-5-99q-58 0-90-43.5T162 257q0-78 33-124t91-46 89.5 45T407 256q0 83-31.5 127T284 427zm-61 277h122l104-132H342l-59 74-58-74H119zm114 107h126l106-135h-96z"/><glyph glyph-name="uni1ED4" unicode="Ổ" horiz-adv-x="760" d="M385 702q149 0 237.5-97.5T711 349q0-153-88-256T376-10Q222-10 136 90.5T50 346t90 255.5T385 702zm-6-107q-98 0-146.5-67.5T184 349q0-110 51-181t146-71q100 0 147.5 70.5T576 347q0 110-49.5 179T379 595zm240 251h-91q49 39 49 73 0 27-34 27-27 0-56-18l-23 58q43 35 104 35 46 0 72.5-23.5T667 937q0-51-48-91zm-305 33h126l133-128H445l-66 67-63-67H188z"/><glyph glyph-name="uni1ED5" unicode="ổ" horiz-adv-x="570" d="M289 526q111 0 178-73.5T534 258q0-118-67-194T283-12q-115 0-181 75T36 256q0 120 67.5 195T289 526zm-5-99q-58 0-90-43.5T162 257q0-78 33-124t91-46 89.5 45T407 256q0 83-31.5 127T284 427zm222 250h-91q52 42 52 70 0 27-31 27-29 0-52-17l-21 57q39 31 97 31 46 0 69.5-21t23.5-59q0-54-47-88zm-283 27h122l104-132H342l-59 74-58-74H119z"/><glyph glyph-name="uni1ED6" unicode="Ỗ" horiz-adv-x="760" d="M385 702q149 0 237.5-97.5T711 349q0-153-88-256T376-10Q222-10 136 90.5T50 346t90 255.5T385 702zm-6-107q-98 0-146.5-67.5T184 349q0-110 51-181t146-71q100 0 147.5 70.5T576 347q0 110-49.5 179T379 595zm-99 285h-69v11q0 95 85 95 34 0 87-16.5t73-16.5q26 0 26 24v7h68v-12q0-51-21-72t-61-21q-30 0-87 16.5T305 912q-25 0-25-26v-6zm33-35h134l117-102H444l-65 53-62-53H195z"/><glyph glyph-name="uni1ED7" unicode="ỗ" horiz-adv-x="570" d="M289 526q111 0 178-73.5T534 258q0-118-67-194T283-12q-115 0-181 75T36 256q0 120 67.5 195T289 526zm-5-99q-58 0-90-43.5T162 257q0-78 33-124t91-46 89.5 45T407 256q0 83-31.5 127T284 427zm-80 293h-69v11q0 95 80 95 32 0 73-17t52-17q26 0 26 25v7h67v-12q0-93-82-93-27 0-67.5 17T229 753q-25 0-25-27v-6zm17-43h125l111-109H344l-62 58-59-58H112z"/><glyph glyph-name="uni1ED8" unicode="Ộ" horiz-adv-x="760" d="M385 702q149 0 237.5-97.5T711 349q0-153-88-256T376-10Q222-10 136 90.5T50 346t90 255.5T385 702zm-6-107q-98 0-146.5-67.5T184 349q0-110 51-181t146-71q100 0 147.5 70.5T576 347q0 110-49.5 179T379 595zm65-796H315v129h129v-129zM320 884h124l128-136H454l-73 75-74-75H188z"/><glyph glyph-name="uni1ED9" unicode="ộ" horiz-adv-x="570" d="M289 526q111 0 178-73.5T534 258q0-118-67-194T283-12q-115 0-181 75T36 256q0 120 67.5 195T289 526zm-5-99q-58 0-90-43.5T162 257q0-78 33-124t91-46 89.5 45T407 256q0 83-31.5 127T284 427zm64-622H219v129h129v-129zM229 731h109l115-150H339l-57 83-53-83H115z"/><glyph glyph-name="uni1EDA" unicode="Ớ" horiz-adv-x="760" d="M385 702q110 0 191-56 38 12 38 50 0 28-11 63h109q9-23 9-60 0-88-76-122 66-94 66-228 0-153-88-256T376-10Q222-10 136 90.5T50 346t90 255.5T385 702zm-6-107q-98 0-146.5-67.5T184 349q0-110 51-181t146-71q100 0 147.5 70.5T576 347q0 110-49.5 179T379 595zm69 299h154L427 755H308z"/><glyph glyph-name="uni1EDB" unicode="ớ" horiz-adv-x="570" d="M289 526q89 0 151-48 39 14 39 51 0 28-11 63h109q9-23 9-60 0-43-21.5-77T500 406q34-63 34-148 0-118-67-194T283-12q-115 0-181 75T36 256q0 120 67.5 195T289 526zm-5-99q-58 0-90-43.5T162 257q0-78 33-124t91-46 89.5 45T407 256q0 83-31.5 127T284 427zm50 314h149L326 591H215z"/><glyph glyph-name="uni1EDC" unicode="Ờ" horiz-adv-x="760" d="M385 702q110 0 191-56 38 12 38 50 0 28-11 63h109q9-23 9-60 0-88-76-122 66-94 66-228 0-153-88-256T376-10Q222-10 136 90.5T50 346t90 255.5T385 702zm-6-107q-98 0-146.5-67.5T184 349q0-110 51-181t146-71q100 0 147.5 70.5T576 347q0 110-49.5 179T379 595zM170 894h156l128-139H337z"/><glyph glyph-name="uni1EDD" unicode="ờ" horiz-adv-x="570" d="M289 526q89 0 151-48 39 14 39 51 0 28-11 63h109q9-23 9-60 0-43-21.5-77T500 406q34-63 34-148 0-118-67-194T283-12q-115 0-181 75T36 256q0 120 67.5 195T289 526zm-5-99q-58 0-90-43.5T162 257q0-78 33-124t91-46 89.5 45T407 256q0 83-31.5 127T284 427zM88 741h150l119-150H245z"/><glyph glyph-name="uni1EDE" unicode="Ở" horiz-adv-x="760" d="M385 702q110 0 191-56 38 12 38 50 0 28-11 63h109q9-23 9-60 0-88-76-122 66-94 66-228 0-153-88-256T376-10Q222-10 136 90.5T50 346t90 255.5T385 702zm-6-107q-98 0-146.5-67.5T184 349q0-110 51-181t146-71q100 0 147.5 70.5T576 347q0 110-49.5 179T379 595zm50 155H328q29 27 40.5 44t11.5 36q0 31-37 31-28 0-55-15l-25 69q48 31 110 31 52 0 82-26.5t30-66.5q0-54-56-103z"/><glyph glyph-name="uni1EDF" unicode="ở" horiz-adv-x="570" d="M289 526q89 0 151-48 39 14 39 51 0 28-11 63h109q9-23 9-60 0-43-21.5-77T500 406q34-63 34-148 0-118-67-194T283-12q-115 0-181 75T36 256q0 120 67.5 195T289 526zm-5-99q-58 0-90-43.5T162 257q0-78 33-124t91-46 89.5 45T407 256q0 83-31.5 127T284 427zm49 154H232q29 27 40.5 44t11.5 36q0 31-37 31-28 0-55-15l-25 69q48 31 110 31 52 0 82-26.5t30-66.5q0-54-56-103z"/><glyph glyph-name="uni1EE0" unicode="Ỡ" horiz-adv-x="760" d="M385 702q110 0 191-56 38 12 38 50 0 28-11 63h109q9-23 9-60 0-88-76-122 66-94 66-228 0-153-88-256T376-10Q222-10 136 90.5T50 346t90 255.5T385 702zm-6-107q-98 0-146.5-67.5T184 349q0-110 51-181t146-71q100 0 147.5 70.5T576 347q0 110-49.5 179T379 595zm-95 165h-82v30q0 56 23.5 80t68.5 24q37 0 90-24t66-24q28 0 28 38v9h80v-23q0-64-24-89.5T463 755q-30 0-84 24t-69 24q-26 0-26-28v-15z"/><glyph glyph-name="uni1EE1" unicode="ỡ" horiz-adv-x="570" d="M289 526q89 0 151-48 39 14 39 51 0 28-11 63h109q9-23 9-60 0-43-21.5-77T500 406q34-63 34-148 0-118-67-194T283-12q-115 0-181 75T36 256q0 120 67.5 195T289 526zm-5-99q-58 0-90-43.5T162 257q0-78 33-124t91-46 89.5 45T407 256q0 83-31.5 127T284 427zm-85 167h-81v31q0 105 89 105 32 0 77.5-22.5T343 685q27 0 27 37v9h80v-24q0-115-93-115-34 0-77 22t-57 22q-24 0-24-27v-15z"/><glyph glyph-name="uni1EE2" unicode="Ợ" horiz-adv-x="760" d="M385 702q110 0 191-56 38 12 38 50 0 28-11 63h109q9-23 9-60 0-88-76-122 66-94 66-228 0-153-88-256T376-10Q222-10 136 90.5T50 346t90 255.5T385 702zm-6-107q-98 0-146.5-67.5T184 349q0-110 51-181t146-71q100 0 147.5 70.5T576 347q0 110-49.5 179T379 595zm65-793H315v129h129v-129z"/><glyph glyph-name="uni1EE3" unicode="ợ" horiz-adv-x="570" d="M289 526q89 0 151-48 39 14 39 51 0 28-11 63h109q9-23 9-60 0-43-21.5-77T500 406q34-63 34-148 0-118-67-194T283-12q-115 0-181 75T36 256q0 120 67.5 195T289 526zm-5-99q-58 0-90-43.5T162 257q0-78 33-124t91-46 89.5 45T407 256q0 83-31.5 127T284 427zm64-622H219v129h129v-129z"/><glyph glyph-name="uni1EE4" unicode="Ụ" horiz-adv-x="722" d="M77 692h130V278q0-99 43.5-141.5T362 94q153 0 153 184v414h130V285Q645-9 360-9 77-9 77 281v411zm348-891H296v129h129v-129z"/><glyph glyph-name="uni1EE5" unicode="ụ" horiz-adv-x="575" d="M507 514V150q0-109 1-150H387q-2 11-4 65-42-77-146-77-78 0-124.5 47T66 178v336h124V203q0-112 88-112 57 0 81 34.5T383 242v272h124zM351-202H222v129h129v-129z"/><glyph glyph-name="uni1EE6" unicode="Ủ" horiz-adv-x="722" d="M77 692h130V278q0-99 43.5-141.5T362 94q153 0 153 184v414h130V285Q645-9 360-9 77-9 77 281v411zm329 50H305q29 27 40.5 44t11.5 36q0 31-37 31-28 0-55-15l-25 69q48 31 110 31 52 0 82-26.5t30-66.5q0-54-56-103z"/><glyph glyph-name="uni1EE7" unicode="ủ" horiz-adv-x="575" d="M507 514V150q0-109 1-150H387q-2 11-4 65-42-77-146-77-78 0-124.5 47T66 178v336h124V203q0-112 88-112 57 0 81 34.5T383 242v272h124zm-175 67H231q29 27 40.5 44t11.5 36q0 31-37 31-28 0-55-15l-25 69q48 31 110 31 52 0 82-26.5t30-66.5q0-54-56-103z"/><glyph glyph-name="uni1EE8" unicode="Ứ" horiz-adv-x="722" d="M77 692h130V278q0-99 43.5-141.5T362 94q153 0 153 184v414h76q47 12 47 53 0 28-11 63h109q9-22 9-60 0-47-25-82t-75-48V285Q645-9 360-9 77-9 77 281v411zm357 198h154L413 751H294z"/><glyph glyph-name="uni1EE9" unicode="ứ" horiz-adv-x="575" d="M383 65q-42-77-146-77-78 0-124.5 47T66 178v336h124V203q0-112 88-112 57 0 81 34.5T383 242v272h51q57 9 57 55 0 28-11 63h109q9-23 9-60 0-45-23-79t-68-48V150q0-109 1-150H387q-2 11-4 65zm-46 676h149L329 591H218z"/><glyph glyph-name="uni1EEA" unicode="Ừ" horiz-adv-x="722" d="M77 692h130V278q0-99 43.5-141.5T362 94q153 0 153 184v414h76q47 12 47 53 0 28-11 63h109q9-22 9-60 0-47-25-82t-75-48V285Q645-9 360-9 77-9 77 281v411zm72 191h156l128-139H316z"/><glyph glyph-name="uni1EEB" unicode="ừ" horiz-adv-x="575" d="M383 65q-42-77-146-77-78 0-124.5 47T66 178v336h124V203q0-112 88-112 57 0 81 34.5T383 242v272h51q57 9 57 55 0 28-11 63h109q9-23 9-60 0-45-23-79t-68-48V150q0-109 1-150H387q-2 11-4 65zM94 741h150l119-150H251z"/><glyph glyph-name="uni1EEC" unicode="Ử" horiz-adv-x="722" d="M77 692h130V278q0-99 43.5-141.5T362 94q153 0 153 184v414h76q47 12 47 53 0 28-11 63h109q9-22 9-60 0-47-25-82t-75-48V285Q645-9 360-9 77-9 77 281v411zm331 52H307q29 27 40.5 44t11.5 36q0 31-37 31-28 0-55-15l-25 69q48 31 110 31 52 0 82-26.5t30-66.5q0-54-56-103z"/><glyph glyph-name="uni1EED" unicode="ử" horiz-adv-x="575" d="M383 65q-42-77-146-77-78 0-124.5 47T66 178v336h124V203q0-112 88-112 57 0 81 34.5T383 242v272h51q57 9 57 55 0 28-11 63h109q9-23 9-60 0-45-23-79t-68-48V150q0-109 1-150H387q-2 11-4 65zm-47 516H235q29 27 40.5 44t11.5 36q0 31-37 31-28 0-55-15l-25 69q48 31 110 31 52 0 82-26.5t30-66.5q0-54-56-103z"/><glyph glyph-name="uni1EEE" unicode="Ữ" horiz-adv-x="722" d="M77 692h130V278q0-99 43.5-141.5T362 94q153 0 153 184v414h76q47 12 47 53 0 28-11 63h109q9-22 9-60 0-47-25-82t-75-48V285Q645-9 360-9 77-9 77 281v411zm188 68h-82v30q0 56 23.5 80t68.5 24q37 0 90-24t66-24q28 0 28 38v9h80v-23q0-64-24-89.5T444 755q-30 0-84 24t-69 24q-26 0-26-28v-15z"/><glyph glyph-name="uni1EEF" unicode="ữ" horiz-adv-x="575" d="M383 65q-42-77-146-77-78 0-124.5 47T66 178v336h124V203q0-112 88-112 57 0 81 34.5T383 242v272h51q57 9 57 55 0 28-11 63h109q9-23 9-60 0-45-23-79t-68-48V150q0-109 1-150H387q-2 11-4 65zM202 594h-81v31q0 105 89 105 32 0 77.5-22.5T346 685q27 0 27 37v9h80v-24q0-115-93-115-34 0-77 22t-57 22q-24 0-24-27v-15z"/><glyph glyph-name="uni1EF0" unicode="Ự" horiz-adv-x="722" d="M77 692h130V278q0-99 43.5-141.5T362 94q153 0 153 184v414h76q47 12 47 53 0 28-11 63h109q9-22 9-60 0-47-25-82t-75-48V285Q645-9 360-9 77-9 77 281v411zm348-887H296v129h129v-129z"/><glyph glyph-name="uni1EF1" unicode="ự" horiz-adv-x="575" d="M383 65q-42-77-146-77-78 0-124.5 47T66 178v336h124V203q0-112 88-112 57 0 81 34.5T383 242v272h51q57 9 57 55 0 28-11 63h109q9-23 9-60 0-45-23-79t-68-48V150q0-109 1-150H387q-2 11-4 65zm-32-260H222v129h129v-129z"/><glyph glyph-name="Ygrave" unicode="Ỳ" horiz-adv-x="610" d="M368 0H238v248q0 10-6 21L-8 692h147q125-235 170-330 31 70 172 330h137L373 269q-5-7-5-20V0zM93 887h156l128-139H260z"/><glyph glyph-name="ygrave" unicode="ỳ" horiz-adv-x="506" d="M7 514h133q107-336 120-401h1q24 100 114 401h124L322-18q-38-113-79-152t-128-39q-32 0-63 4v102q22-2 39-2 42 0 65 19t40 69zm50 227h150l119-150H214z"/><glyph glyph-name="uni1EF4" unicode="Ỵ" horiz-adv-x="610" d="M368 0H238v248q0 10-6 21L-8 692h147q125-235 170-330 31 70 172 330h137L373 269q-5-7-5-20V0zm-1-195H238v129h129v-129z"/><glyph glyph-name="uni1EF5" unicode="ỵ" horiz-adv-x="506" d="M7 514h133q107-336 120-401h1q24 100 114 401h124L322-18q-38-113-79-152t-128-39q-32 0-63 4v102q22-2 39-2 42 0 65 19t40 69zm482-709H360v129h129v-129z"/><glyph glyph-name="uni1EF6" unicode="Ỷ" horiz-adv-x="610" d="M368 0H238v248q0 10-6 21L-8 692h147q125-235 170-330 31 70 172 330h137L373 269q-5-7-5-20V0zm-14 739H253q29 27 40.5 44t11.5 36q0 31-37 31-28 0-55-15l-25 69q48 31 110 31 52 0 82-26.5t30-66.5q0-54-56-103z"/><glyph glyph-name="uni1EF7" unicode="ỷ" horiz-adv-x="506" d="M7 514h133q107-336 120-401h1q24 100 114 401h124L322-18q-38-113-79-152t-128-39q-32 0-63 4v102q22-2 39-2 42 0 65 19t40 69zm295 67H201q29 27 40.5 44t11.5 36q0 31-37 31-28 0-55-15l-25 69q48 31 110 31 52 0 82-26.5t30-66.5q0-54-56-103z"/><glyph glyph-name="uni1EF8" unicode="Ỹ" horiz-adv-x="610" d="M368 0H238v248q0 10-6 21L-8 692h147q125-235 170-330 31 70 172 330h137L373 269q-5-7-5-20V0zM209 760h-82v30q0 56 23.5 80t68.5 24q37 0 90-24t66-24q28 0 28 38v9h80v-23q0-64-24-89.5T388 755q-30 0-84 24t-69 24q-26 0-26-28v-15z"/><glyph glyph-name="uni1EF9" unicode="ỹ" horiz-adv-x="506" d="M7 514h133q107-336 120-401h1q24 100 114 401h124L322-18q-38-113-79-152t-128-39q-32 0-63 4v102q22-2 39-2 42 0 65 19t40 69zm161 80H87v31q0 105 89 105 32 0 77.5-22.5T312 685q27 0 27 37v9h80v-24q0-115-93-115-34 0-77 22t-57 22q-24 0-24-27v-15z"/><glyph glyph-name="uni2007" horiz-adv-x="561"/><glyph glyph-name="uni2010" unicode="‐" horiz-adv-x="383" d="M55 312h273V202H55v110z"/><glyph glyph-name="figuredash" unicode="‒" horiz-adv-x="561" d="M83 372h396V268H83v104z"/><glyph glyph-name="endash" unicode="–" horiz-adv-x="499" d="M55 309h389V204H55v105z"/><glyph glyph-name="emdash" unicode="—" horiz-adv-x="846" d="M55 309h736V204H55v105z"/><glyph glyph-name="uni2015" unicode="―" horiz-adv-x="846" d="M55 309h736V204H55v105z"/><glyph glyph-name="quoteleft" unicode="‘" horiz-adv-x="250" d="M116 731h100q-43-149-47-285H39q5 70 26.5 149.5T116 731z"/><glyph glyph-name="quoteright" unicode="’" horiz-adv-x="250" d="M135 446H34q43 144 47 285h130q-5-69-26.5-149T135 446z"/><glyph glyph-name="quotesinglbase" unicode="‚" horiz-adv-x="250" d="M135-137H34Q77 6 81 149h130q-5-70-26.5-150T135-137z"/><glyph glyph-name="quotedblleft" unicode="“" horiz-adv-x="450" d="M317 728h94q-41-138-45-286H240q4 71 27 151.5T317 728zm-202 0h95q-43-157-46-286H39q4 65 26 147.5T115 728z"/><glyph glyph-name="quotedblright" unicode="”" horiz-adv-x="450" d="M132 446H39q41 144 45 285h126q-4-71-27.5-151.5T132 446zm202 0h-94q42 155 46 285h125q-4-65-26.5-147T334 446z"/><glyph glyph-name="quotedblbase" unicode="„" horiz-adv-x="437" d="M128-137H34Q76 5 80 149h125q-3-71-26.5-151.5T128-137zm202 0h-95q42 149 46 286h126Q403 83 380.5.5T330-137z"/><glyph glyph-name="dagger" unicode="†" horiz-adv-x="522" d="M188 649h109l-7-212 165 6V342l-165 7 7-481H188l8 481-167-7v101l167-6z"/><glyph glyph-name="daggerdbl" unicode="‡" horiz-adv-x="522" d="M196 165v209l-167-7v102l167-8-8 188h109l-7-188 165 8V367l-165 7V165l165 6V71l-165 7 7-210H188l8 210-167-7v100z"/><glyph glyph-name="bullet" unicode="•" horiz-adv-x="403" d="M90 371h223V143H90v228z"/><glyph glyph-name="ellipsis" unicode="…" horiz-adv-x="891" d="M196 0H63v166h133V0zm301 0H364v166h133V0zm300 0H664v166h133V0z"/><glyph glyph-name="perthousand" unicode="‰" horiz-adv-x="1306" d="M1096 365q79 0 126-49.5t47-138.5q0-84-46-136.5T1094-13q-80 0-126.5 50.5T921 177q0 81 46.5 134.5T1096 365zm-1-81q-35 0-55-27t-20-80q0-52 19.5-80.5T1096 68q77 0 77 109 0 107-78 107zM211 670q79 0 126-49.5T384 482q0-85-46-137.5T210 292q-81 0-127.5 49.5T36 481q0 82 46 135.5T211 670zm0-81q-36 0-56-27.5T135 482q0-51 20-80t56-29q77 0 77 109 0 107-77 107zM299 0h-95l413 659h95zm407 365q80 0 126.5-49T879 177q0-85-46-137T705-13q-81 0-127.5 50.5T531 177q0 81 46 134.5T706 365zm0-81q-35 0-55.5-27.5T630 177q0-51 20-80t56-29q77 0 77 109 0 107-77 107z"/><glyph glyph-name="uni2032" unicode="′" horiz-adv-x="262" d="M152 447H50l39 284h123z"/><glyph glyph-name="uni2033" unicode="″" horiz-adv-x="438" d="M139 447H50l37 284h113zm186 0h-88l38 284h113z"/><glyph glyph-name="guilsinglleft" unicode="‹" horiz-adv-x="383" d="M329 456L165 260 329 64H221L54 260l167 196h108z"/><glyph glyph-name="guilsinglright" unicode="›" horiz-adv-x="383" d="M54 64l164 196L54 456h108l167-196L162 64H54z"/><glyph glyph-name="fraction" unicode="⁄" horiz-adv-x="188" d="M-73 0h-87l423 658h87z"/><glyph glyph-name="zero.sups" unicode="⁰" horiz-adv-x="403" d="M203 830q83 0 126.5-55T373 629q0-99-45.5-152.5T201 423 75.5 479 31 625t46 147.5T203 830zm-1-77q-71 0-71-126t72-126q36 0 53 30t17 96q0 126-71 126z"/><glyph glyph-name="four.sups" unicode="⁴" horiz-adv-x="383" d="M309 428h-90v97H25v71l168 228h116V596h59l-7-71h-52v-97zM113 596h106v60q0 58 3 94 0-1-109-154z"/><glyph glyph-name="five.sups" unicode="⁵" horiz-adv-x="391" d="M341 825l-12-77H145q-2-12-6.5-40t-5.5-35q33 23 87 23 62 0 100.5-34.5T359 567q0-62-44-102.5T197 424q-75 0-116.5 36T33 542h96q16-45 67-45 63 0 63 65 0 64-66 64-48 0-66-33l-87 12q28 163 35 220h266z"/><glyph glyph-name="six.sups" unicode="⁶" horiz-adv-x="392" d="M352 722h-88q-16 39-61 39-72 0-78-104 35 40 103 40 61-1 99-36.5t38-94.5q0-62-45.5-102.5T203 423q-79 0-125.5 52T31 622q0 88 43 148t131 60q66 0 103.5-32.5T352 722zM201 494q29 0 49 16.5t19 52.5q-2 68-69 68-33 0-51.5-16.5T130 570q0-30 18-53t53-23z"/><glyph glyph-name="seven.sups" unicode="⁷" horiz-adv-x="357" d="M31 825h299v-69Q229 630 178 429H73q17 81 61 170t93 149H31v77z"/><glyph glyph-name="eight.sups" unicode="⁸" horiz-adv-x="381" d="M189 423q-79 0-121 34.5T26 544q0 66 67 92-49 31-49 83 0 48 37 79.5T194 830q71 0 107-32.5t36-76.5q0-56-52-80 70-27 70-95 0-56-46-89.5T189 423zm2 65q34 0 51.5 15.5T260 544q0 59-70 59-68 0-68-57 0-25 18.5-41.5T191 488zm0 278q-56 0-56-47 0-51 58-51 52 0 52 50 0 48-54 48z"/><glyph glyph-name="nine.sups" unicode="⁹" horiz-adv-x="388" d="M34 532h95q15-38 59-38 71 0 73 109-30-33-97-33-60 0-98.5 33T27 694t43.5 97T189 830q78 0 123-50t45-143q0-94-41-153.5T189 424q-71 0-109.5 32T34 532zm153 226q-28 0-47-15t-19-46q0-61 70-61 30 0 48.5 13.5T258 691q0 30-18 48.5T187 758z"/><glyph glyph-name="parenleft.sups" unicode="⁽" horiz-adv-x="235" d="M115 875h88q-38-57-60.5-115.5T120 622q0-130 83-251h-88q-31 37-55 103T36 622q0 146 79 253z"/><glyph glyph-name="parenright.sups" unicode="⁾" horiz-adv-x="235" d="M119 383H32q82 126 82 254 0 129-82 250h87q31-37 55-103t24-147q0-145-79-254z"/><glyph glyph-name="n.sups" unicode="ⁿ" horiz-adv-x="397" d="M42 262v225q0 90-1 107h89q3-24 3-45 36 53 103 53 48 0 83-30t35-101V262h-92v192q0 71-57 71-71 0-71-86V262H42z"/><glyph glyph-name="zero.subs" unicode="₀" horiz-adv-x="403" d="M203 229q83 0 126.5-55T373 28q0-99-45.5-152.5T201-178 75.5-122 31 24t46 147.5T203 229zm-1-77q-71 0-71-126t72-126q36 0 53 30t17 96q0 126-71 126z"/><glyph glyph-name="one.subs" unicode="₁" horiz-adv-x="261" d="M198-173H99v288q-36-13-75-11v72q61 8 108 53h66v-402z"/><glyph glyph-name="two.subs" unicode="₂" horiz-adv-x="372" d="M341-173H36v7q0 60 29 105t95 86q50 29 64.5 42.5T239 103q0 50-54 50-51 0-61-59H32q5 60 46.5 97.5T189 229q78 0 114-38t36-85q0-46-23-72.5T234-25q-71-40-85-73h205z"/><glyph glyph-name="three.subs" unicode="₃" horiz-adv-x="384" d="M150-3v78h30q60 0 60 38 0 44-57 44-52 0-64-48H32q2 18 9.5 36T65 183.5t47.5 33T187 229q72 0 110-31.5t38-79.5q0-31-17-50t-39-27q28-9 50.5-32.5T352-55q0-49-38.5-85.5T190-177q-48 0-82.5 13.5t-51 35-24 40T24-52h93q5-22 23.5-37.5T191-105q29 0 45.5 14T253-54q0 51-66 51h-37z"/><glyph glyph-name="four.subs" unicode="₄" horiz-adv-x="383" d="M309-173h-90v97H25v71l168 228h116V-5h59l-7-71h-52v-97zM113-5h106v60q0 58 3 94 0-1-109-154z"/><glyph glyph-name="five.subs" unicode="₅" horiz-adv-x="391" d="M341 224l-12-77H145q-2-12-6.5-39.5T133 72q33 23 87 23 62 0 100.5-34.5T359-34q0-62-44-102.5T197-177q-75 0-116.5 36T33-59h96q16-45 67-45 63 0 63 65 0 64-66 64-48 0-66-33L40 4q28 163 35 220h266z"/><glyph glyph-name="six.subs" unicode="₆" horiz-adv-x="392" d="M352 121h-88q-16 39-61 39-72 0-78-104 35 40 103 40 61-1 99-36.5T365-35q0-62-45.5-102.5T203-178q-79 0-125.5 52T31 21q0 88 43 148t131 60q66 0 103.5-32.5T352 121zM201-107q29 0 49 16.5T269-38q-2 68-69 68-33 0-51.5-16.5T130-31q0-30 18-53t53-23z"/><glyph glyph-name="seven.subs" unicode="₇" horiz-adv-x="357" d="M31 224h299v-69Q229 29 178-172H73Q90-91 134-2t93 149H31v77z"/><glyph glyph-name="eight.subs" unicode="₈" horiz-adv-x="381" d="M189-178q-79 0-121 34.5T26-57q0 66 67 92-49 31-49 83 0 48 37 79.5T194 229q71 0 107-32.5t36-76.5q0-56-52-80 70-27 70-95 0-56-46-89.5T189-178zm2 65q34 0 51.5 15.5T260-57q0 59-70 59-68 0-68-57 0-25 18.5-41.5T191-113zm0 278q-56 0-56-47 0-51 58-51 52 0 52 50 0 48-54 48z"/><glyph glyph-name="nine.subs" unicode="₉" horiz-adv-x="388" d="M34-69h95q15-38 59-38 71 0 73 109-30-33-97-33-60 0-98.5 33T27 93t43.5 97T189 229q78 0 123-50t45-143q0-94-41-153.5T189-177q-71 0-109.5 32T34-69zm153 226q-28 0-47-15t-19-46q0-61 70-61 30 0 48.5 13.5T258 90q0 30-18 48.5T187 157z"/><glyph glyph-name="parenleft.subs" unicode="₍" horiz-adv-x="235" d="M115 274h88q-83-124-83-253 0-130 83-251h-88q-31 37-55 103T36 21q0 146 79 253z"/><glyph glyph-name="parenright.subs" unicode="₎" horiz-adv-x="235" d="M119-218H32q82 126 82 254 0 129-82 250h87q31-37 55-103t24-147q0-145-79-254z"/><glyph glyph-name="colonmonetary" unicode="₡" horiz-adv-x="547" d="M157 326q0-113 32.5-174T282 91q46 0 71.5 19.5T392 179h123Q494 46 380 6V-95h-71v88q-7-1-23-1h-16v-87h-70V6Q119 33 76 114.5T33 324q0 129 43 212.5T200 649v79h70v-64q8 1 25 1h14v63h71v-75q62-21 95-67.5T514 481H391q-18 88-104 88-130 0-130-243z"/><glyph glyph-name="franc" unicode="₣" horiz-adv-x="522" d="M94 0v124H12v86h82v448h390V553H218V400h248V297H218v-87h117v-86H218V0H94z"/><glyph glyph-name="lira" unicode="₤" horiz-adv-x="532" d="M501 0H35v97q36 16 51.5 46t18.5 81H22v72h85q-1 10-2 29t-1 29H22v73h78v20q0 105 50.5 163.5T302 669q53 0 92.5-17.5t60.5-45 31.5-53.5 12.5-52H380q-10 68-79 68-78 0-78-111v-31h142v-73H225q1-18 1-58h139v-72H224q-7-81-40-118h332z"/><glyph glyph-name="uni20A6" unicode="₦" horiz-adv-x="565" d="M160 561q3-34 5-113h35l-33 113h-7zm223-447h8q-6 70-7 123h-38zM166 0H71v237H21v72h50v66H21v73h50v210h149l63-210h98v210h94V448h51v-73h-51v-66h51v-72h-51V0H333l-70 237h-97V0zm216 309q0 11-.5 33t-.5 33h-76l20-66h57zm-140 0l-20 66h-56v-66h76z"/><glyph glyph-name="peseta" unicode="₧" horiz-adv-x="540" d="M65 0v403H3v75h62v180h184q100 0 164-46t76-134h49v-75h-50q-12-87-77-134.5T242 221h-60V0H65zm117 569v-91h188q-15 91-121 91h-67zm0-257h60q113 0 128 91H182v-91z"/><glyph glyph-name="dong" unicode="₫" horiz-adv-x="560" d="M53-72h432v-83H53v83zm310 737h117v-62h60v-83h-60V141q0-109 1-141H369q-4 17-6 57Q319-9 223-9 141-9 85 54.5T29 221q0 107 61 170.5T239 455q90 0 124-46v111H143v83h220v62zM149 223q0-65 29.5-101.5T259 85q48 0 78 34t30 110q0 133-105 133-55 0-84-37t-29-102z"/><glyph glyph-name="Euro" unicode="€" horiz-adv-x="564" d="M413 163h121q-17-81-72-127.5T321-11q-99 0-158 63.5T88 234H29v74h53v20q0 24 1 36H29v74h62q21 111 82 171t152 60q97 0 149.5-53.5T534 495H414q-22 76-94 76-88 0-109-133h166v-74H204v-56h173v-74H210Q230 90 322 90q67 0 91 73z"/><glyph glyph-name="uni20B1" unicode="₱" horiz-adv-x="598" d="M91 0v351H30v63h61v42H30v62h61v140h187q86 0 147-35t84-105h53v-62h-42q1-7 1-21t-1-21h42v-63h-54q-24-70-87.5-107.5T269 206h-64V0H91zm114 571v-53h185q-30 53-112 53h-73zm203-138q0 16-1 23H205v-42h202q1 6 1 19zM205 295h64q90 0 121 56H205v-56z"/><glyph glyph-name="uni20B2" unicode="₲" horiz-adv-x="568" d="M528 486H408q-22 84-108 84-66 0-97-64t-31-162q0-120 32.5-187T320 90q51 0 76 15v228h127V31Q418-7 355-12v-74H249v80Q150 14 98.5 100.5T47 333q0 138 53 225t150 106v63h105v-62q76-13 121.5-60.5T528 486z"/><glyph glyph-name="uni20B4" unicode="₴" horiz-adv-x="552" d="M187 502H67q6 74 61.5 121T275 670q100 0 151-49t51-120q0-43-17-76h46v-66H401q-32-26-80-52h176v-67H216q-39-33-39-74 0-36 26-59t68-23q92 0 107 79h120Q471-12 263-12q-89 0-149 48.5T54 161q0 46 20 79H36v67h100q32 25 77 52H46v66h272q39 34 39 75 0 31-21 54t-62 23q-77 0-87-75z"/><glyph glyph-name="uni20B5" unicode="₵" horiz-adv-x="571" d="M157 326q0-104 32.5-167T285 96q44 0 68.5 20t38.5 66h123Q485 22 339-4v-82H234v83Q138 15 85.5 99.5T33 324q0 145 51.5 230T234 659v68h105v-65q80-13 124.5-66.5T514 474H391q-20 89-104 89-68 0-99-59t-31-178z"/><glyph glyph-name="uni20B9" unicode="₹" horiz-adv-x="534" d="M501 454h-94q-4-128-140-176L473 0H332L142 257H47v91h94q37 0 67 9t52.5 33.5T285 454H47v75h220q-33 50-118 50H47v79h454v-77H369q20-25 28-52h104v-75z"/><glyph glyph-name="uni20BA" unicode="₺" horiz-adv-x="568" d="M237 0H109v248l-78-33v74l78 33v67l-78-33v75l78 33v194h124V517l116 49v-74l-116-50v-67l116 49v-74l-116-49V100q84 0 124.5 40.5T407 264h110q-2-38-10.5-72.5t-29-70.5T427 59t-79-42.5T237 0z"/><glyph glyph-name="uni20BD" unicode="₽" horiz-adv-x="586" d="M91 0v128H24v81h67v74H24v97h67v278h220q111 0 172.5-48.5T545 475q0-192-235-192h-91v-74h162v-81H219V0H91zm128 561V380h86q58 0 84.5 22.5T416 471q0 90-110 90h-87z"/><glyph glyph-name="uni2113" unicode="ℓ" horiz-adv-x="445" d="M313 175h119Q416-9 243-9 77-9 77 163v31q-6-5-52-32l-27 84q41 22 78 46v229q0 113 48 165.5T248 739q73 0 114.5-44T404 571q0-97-47-172T203 249v-60q0-100 50-100 27 0 40.5 19t19.5 67zM203 547V369q89 80 89 200 0 77-43 77-24 0-35-22t-11-77z"/><glyph glyph-name="uni2116" unicode="№" horiz-adv-x="1065" d="M195 0H80v674h162q213-417 250-532h1q-7 85-7 319v213h114V0H447Q289 321 188 555h-1q8-116 8-333V0zm572 436q0-53 21.5-82.5T847 324t57.5 28.5T925 436q0 112-80 112-35 0-56.5-29.5T767 436zm-74-254h305V99H693v83zm152 450q83 0 132-53t49-143q0-89-48.5-143.5T844 238q-80 0-129.5 54T665 436q0 87 50 141.5T845 632z"/><glyph glyph-name="uni2117" unicode="℗" horiz-adv-x="783" d="M255 164v372h162q56 0 97-32.5t41-89.5q0-61-38-93.5T415 288h-77V164h-83zm84 304V353h62q67 0 67 59 0 57-66 56h-63zm49 232q146 0 243.5-100T729 346 632 91 388-10q-149 0-246 98.5T45 346q0 152 98 253t245 101zm-1-59q-121 0-199-80t-78-217q0-127 78-210.5T387 50t198.5 79.5T663 345q0 130-78 213t-198 83z"/><glyph glyph-name="uni2120" unicode="℠" horiz-adv-x="490" d="M508 452h-61v67q0 28 1 54t3 47.5 2 26.5h-2q-8-28-58-194h-56q-44 156-52 194h-3q4-92 4-137v-58h-59v240h99q41-139 43-149 20 67 48 149h91V452zm-519 76h62q2-17 15.5-27T97 491q38 0 38 25 0 12-11 18.5T83 549q-47 11-66.5 29.5T-3 625q0 34 24.5 53.5T92 698q50 0 73.5-23t25.5-55h-60q-3 34-41 34-32 0-32-24 0-17 40-27 56-13 78-31t22-50q0-76-105-76-45 0-73.5 23T-11 528z"/><glyph glyph-name="trademark" unicode="™" horiz-adv-x="494" d="M519 452h-61v67q0 18 5 128h-2l-58-194h-56l-52 194h-2q3-69 3-137v-58h-58v240h99l42-149h1l47 149h92V452zM-8 692h218v-56h-76V452H69v184H-8v56z"/><glyph glyph-name="uni2126" unicode="Ω" horiz-adv-x="756" d="M378 702q152 0 240-92.5T706 388q0-180-151-280h165V0H427v131q146 68 146 250 0 90-50.5 153T376 597q-93 0-144-60.5T181 383q0-180 148-252V0H36v108h160Q49 205 49 385q0 134 90.5 225.5T378 702z"/><glyph glyph-name="estimated" unicode="℮" horiz-adv-x="842" d="M803 298H205q-4 0-4-4v-97q0-10 8-22Q280 70 418 70q75 0 125.5 25t91.5 82h124Q652-12 417-12q-168 0-273 98.5T39 328q0 141 111.5 240.5T421 668q161 0 271.5-101.5T803 323v-25zm-161 86v87q0 7-9 23-70 100-210 100-137 0-213-101-9-11-9-23v-86q0-5 4-5h433q4 0 4 5z"/><glyph glyph-name="onethird" unicode="⅓" horiz-adv-x="858" d="M214 1h-87l423 658h87zm-5 260h-99v288q-36-13-75-11v72q61 8 108 53h66V261zm408-93v78h30q60 0 60 38 0 44-57 44-52 0-64-48h-87q2 18 9.5 36t23.5 38.5 47.5 33T654 400q72 0 110-31.5t38-79.5q0-31-17-50t-39-27q28-9 50.5-32.5T819 116q0-49-38.5-85.5T657-6q-48 0-82.5 13.5t-51 35-24 40T491 119h93q5-22 23.5-37.5T658 66q29 0 45.5 14t16.5 37q0 51-66 51h-37z"/><glyph glyph-name="twothirds" unicode="⅔" horiz-adv-x="953" d="M326 1h-87l423 658h87zm22 260H43v7q0 60 29 105t95 86q50 29 64.5 42.5T246 537q0 50-54 50-51 0-61-59H39q5 60 46.5 97.5T196 663q78 0 114-38t36-85q0-46-23-72.5T241 409q-71-40-85-73h205zm370-93v78h30q60 0 60 38 0 44-57 44-52 0-64-48h-87q2 18 9.5 36t23.5 38.5 47.5 33T755 400q72 0 110-31.5t38-79.5q0-31-17-50t-39-27q28-9 50.5-32.5T920 116q0-49-38.5-85.5T758-6q-48 0-82.5 13.5t-51 35-24 40T592 119h93q5-22 23.5-37.5T759 66q29 0 45.5 14t16.5 37q0 51-66 51h-37z"/><glyph glyph-name="oneeighth" unicode="⅛" horiz-adv-x="825" d="M193 1h-87l423 658h87zm15 260h-99v288q-36-13-75-11v72q61 8 108 53h66V261zM622-20q-79 0-121 34.5T459 101q0 66 67 92-49 31-49 83 0 48 37 79.5T627 387q71 0 107-32.5t36-76.5q0-56-52-80 70-27 70-95 0-56-46-89.5T622-20zm2 65q34 0 51.5 15.5T693 101q0 59-70 59-68 0-68-57 0-25 18.5-41.5T624 45zm0 278q-56 0-56-47 0-51 58-51 52 0 52 50 0 48-54 48z"/><glyph glyph-name="threeeighths" unicode="⅜" horiz-adv-x="935" d="M301 1h-87l423 658h87zm430-7q-79 0-121 34.5T568 115q0 66 67 92-49 31-49 83 0 48 37 79.5T736 401q71 0 107-32.5t36-76.5q0-56-52-80 70-27 70-95 0-56-46-89.5T731-6zm2 65q34 0 51.5 15.5T802 115q0 59-70 59-68 0-68-57 0-25 18.5-41.5T733 59zm0 278q-56 0-56-47 0-51 58-51 52 0 52 50 0 48-54 48zm-573 94v78h30q60 0 60 38 0 44-57 44-52 0-64-48H42q2 18 9.5 36T75 617.5t47.5 33T197 663q72 0 110-31.5t38-79.5q0-31-17-50t-39-27q28-9 50.5-32.5T362 379q0-49-38.5-85.5T200 257q-48 0-82.5 13.5t-51 35-24 40T34 382h93q5-22 23.5-37.5T201 329q29 0 45.5 14t16.5 37q0 51-66 51h-37z"/><glyph glyph-name="fiveeighths" unicode="⅝" horiz-adv-x="950" d="M313 1h-87l423 658h87zm45 657l-12-77H162q-2-12-6.5-39.5T150 506q33 23 87 23 62 0 100.5-34.5T376 400q0-62-44-102.5T214 257q-75 0-116.5 36T50 375h96q16-45 67-45 63 0 63 65 0 64-66 64-48 0-66-33l-87 12q28 163 35 220h266zM743-6q-79 0-121 34.5T580 115q0 66 67 92-49 31-49 83 0 48 37 79.5T748 401q71 0 107-32.5t36-76.5q0-56-52-80 70-27 70-95 0-56-46-89.5T743-6zm2 65q34 0 51.5 15.5T814 115q0 59-70 59-68 0-68-57 0-25 18.5-41.5T745 59zm0 278q-56 0-56-47 0-51 58-51 52 0 52 50 0 48-54 48z"/><glyph glyph-name="seveneighths" unicode="⅞" horiz-adv-x="852" d="M213 1h-87l423 658h87zm436-21q-79 0-121 34.5T486 101q0 66 67 92-49 31-49 83 0 48 37 79.5T654 387q71 0 107-32.5t36-76.5q0-56-52-80 70-27 70-95 0-56-46-89.5T649-20zm2 65q34 0 51.5 15.5T720 101q0 59-70 59-68 0-68-57 0-25 18.5-41.5T651 45zm0 278q-56 0-56-47 0-51 58-51 52 0 52 50 0 48-54 48zM45 658h299v-69Q243 463 192 262H87q17 81 61 170t93 149H45v77z"/><glyph glyph-name="uni2190" unicode="←" horiz-adv-x="878" d="M833 306H224q36-32 90-82.5T436 108t94-90l-66-67L45 355v2l419 407 66-70q-7-7-132.5-126T224 405h609v-99z"/><glyph glyph-name="arrowup" unicode="↑" horiz-adv-x="864" d="M378-43v644Q143 340 112 307l-67 69 384 409h2l387-409-69-69q-44 48-139.5 153.5T481 601V-43H378z"/><glyph glyph-name="uni2192" unicode="→" horiz-adv-x="878" d="M45 408h609q-36 32-90 82.5T442 606t-94 90l66 67 419-404v-2L414-50l-66 70q7 7 132.5 126T654 309H45v99z"/><glyph glyph-name="arrowdown" unicode="↓" horiz-adv-x="864" d="M486 755V111q235 261 266 294l67-69L435-73h-2L46 336l69 69q44-48 139.5-153.5T383 111v644h103z"/><glyph glyph-name="partialdiff" unicode="∂" horiz-adv-x="560" d="M97 595v100q31 7 76 7 154-1 248.5-99.5T516 315q0-69-13-125T462 88.5t-78-71T265-8Q159-8 99 56T39 208q0 95 63 155t156 60q95 0 138-50l-1 10q-5 94-67.5 155T160 599q-36 0-63-4zM277 85q57 0 84 41t27 95q0 46-30.5 77T275 329q-51 0-82-33t-31-88q0-58 33-90.5T277 85z"/><glyph glyph-name="uni2206" unicode="∆" horiz-adv-x="665" d="M640 0H25v79l226 613h161L640 78V0zM157 109h341l-91 244q-61 167-82 242h-3q-9-44-78-243z"/><glyph glyph-name="product" unicode="∏" horiz-adv-x="716" d="M80 692h556v-792H507v683H210v-683H80v792z"/><glyph glyph-name="summation" unicode="∑" horiz-adv-x="536" d="M525-100H13v79l233 318L25 612v80h483V584H191l196-274L171 9h369z"/><glyph glyph-name="minus" unicode="−" horiz-adv-x="713" d="M633 230H80v105h553V230z"/><glyph glyph-name="uni2215" unicode="∕" horiz-adv-x="188" d="M-73 0h-87l423 658h87z"/><glyph glyph-name="uni2219" unicode="∙" horiz-adv-x="234" d="M184 200H51v166h133V200z"/><glyph glyph-name="radical" unicode="√" horiz-adv-x="631" d="M624 852L391-198h-90L149 215l-94-42-28 78 195 92Q325 41 339-29q5 72 188 881h97z"/><glyph glyph-name="infinity" unicode="∞" horiz-adv-x="818" d="M210 109q-71 0-118.5 51T44 289q0 74 48.5 126.5T218 468q59 0 101-28t91-82q52 57 94 83.5T609 468q72 0 118.5-50.5T774 289q0-74-49-127t-125-53q-55 0-98.5 27.5T410 218q-49-54-93-81.5T210 109zm10 90q39 0 69.5 22.5T355 285q-4 4-20 23.5T310.5 336t-24 21-31 18.5T223 381q-40 0-64.5-26.5T134 289q0-40 24.5-65t61.5-25zm374 0q41 0 65 25.5t24 64.5q0 40-23.5 66T596 381q-26 0-50.5-13.5t-40.5-29-45-47.5q3-3 16.5-18t18-19.5 17-16.5 19.5-16 18.5-10.5 22-9T594 199z"/><glyph glyph-name="integral" unicode="∫" horiz-adv-x="341" d="M355 835l-11-102q-33 5-46 5-47 0-62.5-37T220 572q0-69 10.5-265.5T241 40q0-43-2.5-75T226-103t-26.5-59-46.5-38-72-15q-59 0-89 14L6-95q29-8 58-8 16 0 28 5.5T110.5-78t11 24.5 6 33 1.5 32V46q0 69-10 270t-10 272q0 259 176 259 46 0 70-12z"/><glyph glyph-name="approxequal" unicode="≈" horiz-adv-x="713" d="M173 90H81v29q0 72 36.5 103.5T212 254q56 0 148-34t134-34q26 0 37 12.5t11 39.5v11h92v-31q0-136-128-136-62 0-154 33.5T223 149q-50 0-50-53v-6zm0 232H81v28q0 137 132 137 54 0 146.5-33.5T494 420q27 0 37.5 12.5T542 475v8h92v-29q0-78-35-109t-97-31q-58 0-149 34.5T223 383q-50 0-50-51v-10z"/><glyph glyph-name="notequal" unicode="≠" horiz-adv-x="713" d="M537 570l-49-106h145V358H439l-69-148h263V105H321L275 6h-95l46 99H80v105h194l68 148H80v106h311l49 106h97z"/><glyph glyph-name="lessequal" unicode="≤" horiz-adv-x="673" d="M80 385v107l513 221V597L205 439l388-162V162zM593 0H80v106h513V0z"/><glyph glyph-name="greaterequal" unicode="≥" horiz-adv-x="673" d="M593 490V383L80 162v116l389 157L80 598v115zm0-490H80v106h513V0z"/><glyph glyph-name="uni25A0" unicode="■" d="M75 131v252h250V131H75z"/><glyph glyph-name="triagup" unicode="▲" horiz-adv-x="643" d="M608 0H35l281 610h3z"/><glyph glyph-name="uni25B3" unicode="△" horiz-adv-x="643" d="M608 0H35l281 610h3zM160 80h313L316 431z"/><glyph glyph-name="uni25B6" unicode="▶" horiz-adv-x="691" d="M50 10v572l611-280v-4z"/><glyph glyph-name="uni25B7" unicode="▷" horiz-adv-x="691" d="M50 10v572l611-280v-4zm431 287L133 453V140z"/><glyph glyph-name="triagdn" unicode="▼" horiz-adv-x="643" d="M35 601h573L327-9h-3z"/><glyph glyph-name="uni25BD" unicode="▽" horiz-adv-x="643" d="M35 601h573L327-9h-3zm448-79H170l158-352z"/><glyph glyph-name="uni25C0" unicode="◀" horiz-adv-x="691" d="M641 582V10L30 290v4z"/><glyph glyph-name="uni25C1" unicode="◁" horiz-adv-x="691" d="M641 582V10L30 290v4zm-83-132L210 292l348-155v313z"/><glyph glyph-name="uni25C6" unicode="◆" horiz-adv-x="435" d="M43 258l173 179 176-184L220 75z"/><glyph glyph-name="uni25C9" unicode="◉" horiz-adv-x="546" d="M274 337q34 0 56.5-24t22.5-56q0-36-22-61t-56-25q-35 0-57 24.5T196 257q0 32 22 56t56 24zm222-80q-1-98-64-165.5T275 24q-95 0-159.5 67T51 257q0 96 65 163t160 67q93 0 156.5-67.5T496 257zM275 418q-65 0-106-47t-41-114q0-70 41.5-117.5T275 92q65 0 106.5 47.5T423 257q0 66-43 113.5T275 418z"/><glyph glyph-name="lozenge" unicode="◊" horiz-adv-x="596" d="M453 327L327 553q-2 5-13.5 26.5T299 608h-3q-16-34-28-55L144 330l123-226q27-51 28-56h3q5 12 29 56zm104 2L344-43h-98L40 328l211 372h97z"/><glyph glyph-name="uni2610" unicode="☐" horiz-adv-x="1013" d="M160 778h750V8l-67-68H104v776zm6-78V4h663v696H166z"/><glyph glyph-name="uni2611" unicode="☑" horiz-adv-x="1013" d="M160 778h750V8l-67-68H104v776zm6-78V4h663v696H166zm495-66h108Q597 423 422 55h-27q-93 131-151 270l81 53q37-118 81-202 51 121 122.5 248.5T661 634z"/><glyph glyph-name="uni2713" unicode="✓" horiz-adv-x="701" d="M570 746h135Q482 460 240-67h-36Q100 86 22 286l103 64q44-154 94-253 76 179 170.5 355T570 746z"/><glyph glyph-name="uni2752" unicode="❒" horiz-adv-x="494" d="M65 364l83 83h279V148l-76-82H65v298zm60-19V129h204v216H125z"/><glyph glyph-name="fi" unicode="ﬁ" horiz-adv-x="576" d="M210 0H86v419H8v95h78v51q0 81 39 128.5T245 741q43 0 63-6V635q-18 4-35 4-35 0-49-18.5T210 556v-42h94v-95h-94V0zm173 0v514h124V0H383zm124 610H383v121h124V610z"/><glyph glyph-name="fl" unicode="ﬂ" horiz-adv-x="575" d="M210 0H86v419H8v95h78v51q0 81 39 128.5T245 741q43 0 63-6V635q-18 4-35 4-35 0-49-18.5T210 556v-42h94v-95h-94V0zm297 0H383v731h124V0z"/><glyph glyph-name="uni00470303" horiz-adv-x="743" d="M673 382V0h-96q-8 31-11 77-60-88-206-88T132 87 50 338q0 160 88 262t245 102q124 0 201.5-61T676 486H547q-35 112-166 112-103 0-150-71.5T184 344q0-107 48-178.5T380 94q49 0 83.5 15.5t51.5 42 24 55 7 61.5v7H380v107h293zM275 760h-82v30q0 56 23.5 80t68.5 24q37 0 90-24t66-24q28 0 28 38v9h80v-23q0-64-24-89.5T454 755q-30 0-84 24t-69 24q-26 0-26-28v-15z"/><glyph glyph-name="uni00670303" horiz-adv-x="587" d="M521 366V57q0-130-58-198t-191-68q-63 0-108.5 16T95-151t-33.5 51T48-48h126q19-68 103-68 71 0 96.5 41T399 53v30Q356 5 249 5 152 5 94 75.5T36 256q0 121 63.5 195.5T260 526q62 0 96-22t43-48q2 28 5 58h118q-1-40-1-148zM164 261q0-71 33-113t86-42q66 0 93 41.5T403 266q0 80-24.5 119.5T286 425q-56 0-89-43t-33-121zm44 333h-81v31q0 105 89 105 32 0 77.5-22.5T352 685q27 0 27 37v9h80v-24q0-115-93-115-34 0-77 22t-57 22q-24 0-24-27v-15z"/><glyph glyph-name="zero.slash" horiz-adv-x="580" d="M293 670q64 0 112-27t75.5-74.5 41-106.5T535 333q0-68-12.5-126t-39-109-76-80.5T290-12q-126 0-185.5 96T45 329q0 55 8 104t27 93 47.5 75.5 70.5 50 95 18.5zm0-96q-126 0-126-244 0-69 8-114l191 326q-29 32-73 32zm-2-489q121 0 121 248 0 83-12 135L205 131q30-46 86-46z"/><glyph glyph-name="zero.slashtab" horiz-adv-x="561" d="M284 670q64 0 112-27t75.5-74.5 41-106.5T526 333q0-68-12.5-126t-39-109-76-80.5T281-12Q155-12 95.5 84T36 329q0 55 8 104t27 93 47.5 75.5 70.5 50 95 18.5zm0-96q-126 0-126-244 0-69 8-114l191 326q-29 32-73 32zm-2-489q121 0 121 248 0 83-12 135L196 131q30-46 86-46z"/><glyph glyph-name="zero.tab" horiz-adv-x="561" d="M284 670q66 0 114-26.5t75.5-74.5 40-106.5T526 333q0-70-12-128T475.5 96t-76-79.5T281-12q-68 0-117.5 27.5T87 92.5 48 200 36 329q0 69 13 128t41 108 77.5 77T284 670zm0-100q-67 0-93-61.5T165 330q0-52 4.5-90.5t16-75 36-56T282 89t60 18.5 35.5 55T393 238t4 95q0 52-4.5 91t-16 74-35 53.5T284 570z"/><glyph glyph-name="one.tab" horiz-adv-x="561" d="M481 0H75v105h144v407q-43-18-127-20v88q106 16 165 78h85V105h139V0z"/><glyph glyph-name="two.tab" horiz-adv-x="561" d="M509 0H54v8q0 83 46 156.5T249 314q78 58 102 86.5t24 72.5q0 46-23.5 72.5T281 572q-50 0-75-27t-33-79H52q8 90 66.5 147T281 670q77 0 128-29.5t71-71.5 20-94q0-70-33.5-115T338 246q-116-85-136-141h323z"/><glyph glyph-name="three.tab" horiz-adv-x="561" d="M172 493H53q9 72 62.5 124.5T276 670q104 0 158.5-51T489 494q0-99-83-135v-2q45-16 77.5-55T516 195q0-85-58.5-146T275-12q-115 0-172.5 56.5T38 178h122q8-41 38-67t81-26q55 0 83 31t28 81q0 108-120 108h-55v97h48q55 0 79 20.5t24 65.5q0 39-24 61.5T272 572q-48 0-70-21.5T172 493z"/><glyph glyph-name="four.tab" horiz-adv-x="561" d="M452 0H335v155H34v110l283 393h135V257h81l-12-102h-69V0zM335 257v134q0 92 3 155-24-51-191-289h188z"/><glyph glyph-name="five.tab" horiz-adv-x="561" d="M500 658l-18-103H215q-4-34-23-147 44 42 125 42 93 0 147-60.5T518 231q0-105-59.5-174T278-12q-96 0-159 48T44 170h125q22-85 112-85 55 0 83.5 36.5T393 221q0 129-110 129-48 0-73-18.5T170 277L57 293q31 144 56 365h387z"/><glyph glyph-name="six.tab" horiz-adv-x="561" d="M508 504H387q-17 70-93 70-120 0-127-196 51 72 155 72 92 0 148.5-61T527 231q0-106-63-174.5T292-12Q44-12 44 321q0 69 13 128.5T98 560t79.5 80.5T300 670q97 0 149.5-50T508 504zM289 88q56 0 84.5 37.5T402 221q0 57-26 93.5T290 351q-54 0-84-32t-30-94q0-22 5.5-44.5t18-44 35.5-35T289 88z"/><glyph glyph-name="seven.tab" horiz-adv-x="561" d="M57 658h448v-94q-85-119-152.5-272.5T265 0H137q19 135 91 294.5T377 554H57v104z"/><glyph glyph-name="eight.tab" horiz-adv-x="561" d="M275-12q-103 0-171 54T36 188q0 60 33 101.5t79 60.5q-85 48-85 138 0 83 58 132.5T285 670q98 0 157-49.5T501 489q0-99-87-133 45-16 78-59.5T525 192q0-97-69-150.5T275-12zm8 98q53 0 85 27.5t32 80.5q0 52-32 79t-87 27q-58 0-89-29t-31-77 33-78 89-30zm-1 487q-100 0-100-89 0-37 26-60t75-23q99 0 99 82 0 41-26 65.5T282 573z"/><glyph glyph-name="nine.tab" horiz-adv-x="561" d="M53 157h125q22-70 100-70 37 0 61.5 20.5t35.5 57 15.5 65.5 5.5 67q-41-64-144-64-97 0-153 59.5T43 444q0 97 63.5 161T278 669q85 0 141-42.5T497 518t22-154q0-375-247-375-101 0-154.5 49T53 157zm225 414q-53 0-81-33.5T169 450q0-55 29.5-87t79.5-32q110 0 110 116 0 27-7 52t-33.5 48.5T278 571z"/><glyph glyph-name="zero.slashcap" horiz-adv-x="609" d="M308 702q68 0 118.5-29.5t79.5-80T548.5 481 562 350t-12.5-130.5T509 105t-80.5-85.5T304-12q-70 0-121.5 29.5t-80 81-42 113T47 346q0 54 8.5 103.5t28 96.5 48.5 81 74.5 54.5T308 702zm0-98q-136 0-136-257 0-82 14-139l202 357q-31 39-80 39zm-3-517q69 0 100.5 73T437 349q0 84-15 140L220 131q31-44 85-44z"/><glyph glyph-name="zero.cap" horiz-adv-x="609" d="M308 702q68 0 118.5-29.5t79.5-80T548.5 481 562 350t-12.5-130.5T509 105t-80.5-85.5T304-12q-70 0-121.5 29.5t-80 81-42 113T47 346q0 54 8.5 103.5t28 96.5 48.5 81 74.5 54.5T308 702zm0-103q-70 0-100-65.5T178 347q0-256 127-256 126 0 126 258 0 250-123 250z"/><glyph glyph-name="one.cap" horiz-adv-x="393" d="M301 0H172v539q-21-13-64-23t-72-12v92q48 10 96.5 36.5T210 692h91V0z"/><glyph glyph-name="two.cap" horiz-adv-x="571" d="M524 0H44v9q0 89 45 166.5T257 341q81 58 103.5 83.5T383 496q0 47-26.5 75.5T283 600q-52 0-77.5-27.5T171 490H43q9 93 69.5 152T283 701q118 0 174-60t56-142q0-76-35.5-122.5T340 261q-123-84-148-156h349z"/><glyph glyph-name="three.cap" horiz-adv-x="584" d="M173 512H52q11 78 68.5 134T286 702t166-52.5T510 520q0-101-89-140v-3q47-16 81-57t34-112q0-42-14-80t-42.5-70.5-79-51T283-12q-113 1-176 59.5T37 189h123Q183 88 289 88q59 0 89.5 31.5T409 205q0 119-134 119h-45v97h42q59 0 86 21.5t27 66.5q0 42-25.5 67.5T284 602q-91 0-111-90z"/><glyph glyph-name="four.cap" horiz-adv-x="583" d="M474 0H353v170H35v108l299 414h140V270h86l-13-100h-73V0zM353 270v146q0 121 3 162-15-32-101.5-155.5T149 270h204z"/><glyph glyph-name="five.cap" horiz-adv-x="590" d="M526 692l-15-104H219q-11-102-21-160 46 44 134 44 96 0 155-63.5T546 242q0-113-65-183.5T293-12q-100 0-166 51.5T48 183h124q25-94 122-94 125 0 125 142 0 61-28.5 101T298 372q-53 0-79-20.5T177 293L62 311q29 142 52 381h412z"/><glyph glyph-name="six.cap" horiz-adv-x="596" d="M536 530H413q-20 74-102 75-132 0-138-216 53 77 166 77 97 0 156.5-62.5T555 238q0-109-64.5-179.5T307-12Q48-12 48 336q0 51 6.5 98.5t25 97.5 47.5 86.5 77 60T314 702q103 0 157.5-50.5T536 530zM306 89q58 0 90 38t32 102q0 59-29 97.5T308 365q-57 0-90-32.5T185 235q0-57 29.5-101.5T306 89z"/><glyph glyph-name="seven.cap" horiz-adv-x="512" d="M20 692h470v-96Q298 330 240 0H101q25 158 98.5 319.5T357 587H20v105z"/><glyph glyph-name="eight.cap" horiz-adv-x="602" d="M295-12q-109 0-179.5 56T45 199q0 117 113 168-84 46-84 145 0 83 62 136.5T306 702q101 0 163-52.5T531 515q0-103-87-142 47-18 80.5-60.5T558 205q0-105-72.5-161T295-12zm8 100q59 0 93.5 30t34.5 86q0 54-34 83t-96 29q-66 0-97.5-29.5T172 206q0-53 35-85.5T303 88zm-1 515q-108 0-108-95 0-40 28.5-65t81.5-25q52 0 79 23t27 66q0 45-28.5 70.5T302 603z"/><glyph glyph-name="nine.cap" horiz-adv-x="590" d="M53 161h126q23-75 105-75 38 0 65 20t40 56 18.5 71 7.5 81q-47-65-153-65-98 0-159 59.5T42 469q0 100 66 166.5T285 702q131 0 194-85.5T542 379q0-391-265-391-99 0-155.5 48T53 161zm235 444q-54 0-86-34.5T170 474q0-61 32.5-95t85.5-34q117 0 117 123 0 58-26 97.5T288 605z"/><glyph glyph-name="period.sups" horiz-adv-x="175" d="M136 428H39v118h97V428z"/><glyph glyph-name="comma.sups" horiz-adv-x="168" d="M93 355H11q36 92 39 191h96q-12-123-53-191z"/><glyph glyph-name="dollar.sups" horiz-adv-x="407" d="M241 367h-81v61q-60 8-95.5 39.5T22 545h98q7-24 31-38t59-14q69 0 69 43 0 21-18 33t-72 21q-87 16-122 44.5T32 710q0 43 32 76t96 41v46h81v-47q58-10 89-41.5t35-68.5h-91q-14 46-78 46-70 0-70-40 0-19 18.5-27.5T218 676q87-17 122.5-49t35.5-78q0-50-35-82t-100-40v-60z"/><glyph glyph-name="cent.sups" horiz-adv-x="407" d="M288 577h92q-23-92-121-108v-58h-81v58q-66 10-103 52T38 624q0 65 38.5 106.5T178 783v49h81v-49q59-10 88-43t32-66h-92q-14 46-73 46-37 0-59.5-24.5T132 627q0-40 22.5-67.5T215 532q55 0 73 45z"/><glyph glyph-name="hyphen.sups" horiz-adv-x="236" d="M31 666h173v-81H31v81z"/><glyph glyph-name="period.subs" horiz-adv-x="175" d="M136-173H39v118h97v-118z"/><glyph glyph-name="comma.subs" horiz-adv-x="168" d="M93-246H11q36 92 39 191h96q-12-123-53-191z"/><glyph glyph-name="dollar.subs" horiz-adv-x="407" d="M241-234h-81v61q-60 8-95.5 39.5T22-56h98q7-24 31-38t59-14q69 0 69 43 0 21-18 33t-72 21Q102 5 67 33.5T32 109q0 43 32 76t96 41v46h81v-47q58-10 89-41.5t35-68.5h-91q-14 46-78 46-70 0-70-40 0-19 18.5-27.5T218 75q87-17 122.5-49T376-52q0-50-35-82t-100-40v-60z"/><glyph glyph-name="cent.subs" horiz-adv-x="407" d="M288-24h92q-23-92-121-108v-58h-81v58q-66 10-103 52T38 23q0 65 38.5 106.5T178 182v49h81v-49q59-10 88-43t32-66h-92q-14 46-73 46-37 0-59.5-24.5T132 26q0-40 22.5-67.5T215-69q55 0 73 45z"/><glyph glyph-name="hyphen.subs" horiz-adv-x="236" d="M31 65h173v-81H31v81z"/><glyph glyph-name="zero.numr" horiz-adv-x="403" d="M203 663q83 0 126.5-55T373 462q0-99-45.5-152.5T201 256 75.5 312 31 458t46 147.5T203 663zm-1-77q-71 0-71-126t72-126q36 0 53 30t17 96q0 126-71 126z"/><glyph glyph-name="one.numr" horiz-adv-x="261" d="M198 261H99v288q-36-13-75-11v72q61 8 108 53h66V261z"/><glyph glyph-name="two.numr" horiz-adv-x="372" d="M341 261H36v7q0 60 29 105t95 86q50 29 64.5 42.5T239 537q0 50-54 50-51 0-61-59H32q5 60 46.5 97.5T189 663q78 0 114-38t36-85q0-46-23-72.5T234 409q-71-40-85-73h205z"/><glyph glyph-name="three.numr" horiz-adv-x="384" d="M150 431v78h30q60 0 60 38 0 44-57 44-52 0-64-48H32q2 18 9.5 36T65 617.5t47.5 33T187 663q72 0 110-31.5t38-79.5q0-31-17-50t-39-27q28-9 50.5-32.5T352 379q0-49-38.5-85.5T190 257q-48 0-82.5 13.5t-51 35-24 40T24 382h93q5-22 23.5-37.5T191 329q29 0 45.5 14t16.5 37q0 51-66 51h-37z"/><glyph glyph-name="four.numr" horiz-adv-x="383" d="M309 261h-90v97H25v71l168 228h116V429h59l-7-71h-52v-97zM113 429h106v60q0 58 3 94 0-1-109-154z"/><glyph glyph-name="five.numr" horiz-adv-x="391" d="M341 658l-12-77H145q-2-12-6.5-39.5T133 506q33 23 87 23 62 0 100.5-34.5T359 400q0-62-44-102.5T197 257q-75 0-116.5 36T33 375h96q16-45 67-45 63 0 63 65 0 64-66 64-48 0-66-33l-87 12q28 163 35 220h266z"/><glyph glyph-name="six.numr" horiz-adv-x="392" d="M352 555h-88q-16 39-61 39-72 0-78-104 35 40 103 40 61-1 99-36.5t38-94.5q0-62-45.5-102.5T203 256q-79 0-125.5 52T31 455q0 88 43 148t131 60q66 0 103.5-32.5T352 555zM201 327q29 0 49 16.5t19 52.5q-2 68-69 68-33 0-51.5-16.5T130 403q0-30 18-53t53-23z"/><glyph glyph-name="seven.numr" horiz-adv-x="357" d="M31 658h299v-69Q229 463 178 262H73q17 81 61 170t93 149H31v77z"/><glyph glyph-name="eight.numr" horiz-adv-x="381" d="M189 256q-79 0-121 34.5T26 377q0 66 67 92-49 31-49 83 0 48 37 79.5T194 663q71 0 107-32.5t36-76.5q0-56-52-80 70-27 70-95 0-56-46-89.5T189 256zm2 65q34 0 51.5 15.5T260 377q0 59-70 59-68 0-68-57 0-25 18.5-41.5T191 321zm0 278q-56 0-56-47 0-51 58-51 52 0 52 50 0 48-54 48z"/><glyph glyph-name="nine.numr" horiz-adv-x="388" d="M34 365h95q15-38 59-38 71 0 73 109-30-33-97-33-60 0-98.5 33T27 527t43.5 97T189 663q78 0 123-50t45-143q0-94-41-153.5T189 257q-71 0-109.5 32T34 365zm153 226q-28 0-47-15t-19-46q0-61 70-61 30 0 48.5 13.5T258 524q0 30-18 48.5T187 591z"/><glyph glyph-name="parenleft.numr" horiz-adv-x="235" d="M115 708h88q-83-124-83-253 0-130 83-251h-88q-31 37-55 103T36 455q0 146 79 253z"/><glyph glyph-name="parenright.numr" horiz-adv-x="235" d="M119 216H32q82 126 82 254 0 129-82 250h87q31-37 55-103t24-147q0-145-79-254z"/><glyph glyph-name="period.numr" horiz-adv-x="175" d="M136 261H39v118h97V261z"/><glyph glyph-name="comma.numr" horiz-adv-x="168" d="M93 188H11q36 92 39 191h96q-12-123-53-191z"/><glyph glyph-name="dollar.numr" horiz-adv-x="407" d="M241 200h-81v61q-60 8-95.5 39.5T22 378h98q7-24 31-38t59-14q69 0 69 43 0 21-18 33t-72 21q-87 16-122 44.5T32 543q0 43 32 76t96 41v46h81v-47q58-10 89-41.5t35-68.5h-91q-14 46-78 46-70 0-70-40 0-19 18.5-27.5T218 509q87-17 122.5-49t35.5-78q0-50-35-82t-100-40v-60z"/><glyph glyph-name="cent.numr" horiz-adv-x="407" d="M288 410h92q-23-92-121-108v-58h-81v58q-66 10-103 52T38 457q0 65 38.5 106.5T178 616v49h81v-49q59-10 88-43t32-66h-92q-14 46-73 46-37 0-59.5-24.5T132 460q0-40 22.5-67.5T215 365q55 0 73 45z"/><glyph glyph-name="hyphen.numr" horiz-adv-x="236" d="M31 499h173v-81H31v81z"/><glyph glyph-name="zero.dnom" horiz-adv-x="403" d="M203 401q83 0 126.5-55T373 200q0-99-45.5-152.5T201-6 75.5 50 31 196t46 147.5T203 401zm-1-77q-71 0-71-126t72-126q36 0 53 30t17 96q0 126-71 126z"/><glyph glyph-name="one.dnom" horiz-adv-x="261" d="M198-1H99v288q-36-13-75-11v72q61 8 108 53h66V-1z"/><glyph glyph-name="two.dnom" horiz-adv-x="372" d="M341-1H36v7q0 60 29 105t95 86q50 29 64.5 42.5T239 275q0 50-54 50-51 0-61-59H32q5 60 46.5 97.5T189 401q78 0 114-38t36-85q0-46-23-72.5T234 147q-71-40-85-73h205z"/><glyph glyph-name="three.dnom" horiz-adv-x="384" d="M150 169v78h30q60 0 60 38 0 44-57 44-52 0-64-48H32q2 18 9.5 36T65 355.5t47.5 33T187 401q72 0 110-31.5t38-79.5q0-31-17-50t-39-27q28-9 50.5-32.5T352 117q0-49-38.5-85.5T190-5q-48 0-82.5 13.5t-51 35-24 40T24 120h93q5-22 23.5-37.5T191 67q29 0 45.5 14t16.5 37q0 51-66 51h-37z"/><glyph glyph-name="four.dnom" horiz-adv-x="383" d="M309-1h-90v97H25v71l168 228h116V167h59l-7-71h-52V-1zM113 167h106v60q0 58 3 94 0-1-109-154z"/><glyph glyph-name="five.dnom" horiz-adv-x="391" d="M341 396l-12-77H145q-2-12-6.5-39.5T133 244q33 23 87 23 62 0 100.5-34.5T359 138q0-62-44-102.5T197-5Q122-5 80.5 31T33 113h96q16-45 67-45 63 0 63 65 0 64-66 64-48 0-66-33l-87 12q28 163 35 220h266z"/><glyph glyph-name="six.dnom" horiz-adv-x="392" d="M352 293h-88q-16 39-61 39-72 0-78-104 35 40 103 40 61-1 99-36.5t38-94.5q0-62-45.5-102.5T203-6Q124-6 77.5 46T31 193q0 88 43 148t131 60q66 0 103.5-32.5T352 293zM201 65q29 0 49 16.5t19 52.5q-2 68-69 68-33 0-51.5-16.5T130 141q0-30 18-53t53-23z"/><glyph glyph-name="seven.dnom" horiz-adv-x="357" d="M31 396h299v-69Q229 201 178 0H73q17 81 61 170t93 149H31v77z"/><glyph glyph-name="eight.dnom" horiz-adv-x="381" d="M189-6Q110-6 68 28.5T26 115q0 66 67 92-49 31-49 83 0 48 37 79.5T194 401q71 0 107-32.5t36-76.5q0-56-52-80 70-27 70-95 0-56-46-89.5T189-6zm2 65q34 0 51.5 15.5T260 115q0 59-70 59-68 0-68-57 0-25 18.5-41.5T191 59zm0 278q-56 0-56-47 0-51 58-51 52 0 52 50 0 48-54 48z"/><glyph glyph-name="nine.dnom" horiz-adv-x="388" d="M34 103h95q15-38 59-38 71 0 73 109-30-33-97-33-60 0-98.5 33T27 265t43.5 97T189 401q78 0 123-50t45-143q0-94-41-153.5T189-5Q118-5 79.5 27T34 103zm153 226q-28 0-47-15t-19-46q0-61 70-61 30 0 48.5 13.5T258 262q0 30-18 48.5T187 329z"/><glyph glyph-name="parenleft.dnom" horiz-adv-x="235" d="M115 446h88q-83-124-83-253 0-130 83-251h-88Q84-21 60 45T36 193q0 146 79 253z"/><glyph glyph-name="parenright.dnom" horiz-adv-x="235" d="M119-46H32q82 126 82 254 0 129-82 250h87q31-37 55-103t24-147q0-145-79-254z"/><glyph glyph-name="period.dnom" horiz-adv-x="175" d="M136-1H39v118h97V-1z"/><glyph glyph-name="comma.dnom" horiz-adv-x="168" d="M93-74H11q36 92 39 191h96Q134-6 93-74z"/><glyph glyph-name="dollar.dnom" horiz-adv-x="407" d="M241-62h-81v61q-60 8-95.5 39.5T22 116h98q7-24 31-38t59-14q69 0 69 43 0 21-18 33t-72 21q-87 16-122 44.5T32 281q0 43 32 76t96 41v46h81v-47q58-10 89-41.5t35-68.5h-91q-14 46-78 46-70 0-70-40 0-19 18.5-27.5T218 247q87-17 122.5-49t35.5-78q0-50-35-82T241-2v-60z"/><glyph glyph-name="cent.dnom" horiz-adv-x="407" d="M288 148h92Q357 56 259 40v-58h-81v58Q112 50 75 92T38 195q0 65 38.5 106.5T178 354v49h81v-49q59-10 88-43t32-66h-92q-14 46-73 46-37 0-59.5-24.5T132 198q0-40 22.5-67.5T215 103q55 0 73 45z"/><glyph glyph-name="hyphen.dnom" horiz-adv-x="236" d="M31 237h173v-81H31v81z"/><glyph glyph-name="a.sups" horiz-adv-x="369" d="M325 484V344q0-61 1-83l-88-1q-1 8-2 22.5t-1 16.5q-31-44-98-44-54 0-85 29.5T21 360q0 110 158 110h52v20q0 50-52 50-27 0-38.5-11.5T126 496H36q5 44 38 75t108 31q143 0 143-118zm-91-81v10h-46q-72 0-72-44 0-43 50-43 68 0 68 77z"/><glyph glyph-name="b.sups" horiz-adv-x="398" d="M42 262v474h92V554q29 48 102 48 55 0 95.5-43T372 437q0-91-43.5-136T224 256q-58 0-90 40v-34H42zm235 171q0 94-72 94-73 0-73-98 0-99 70-99 37 0 56 27.5t19 75.5z"/><glyph glyph-name="c.sups" horiz-adv-x="359" d="M256 373h85q-11-54-49-86t-103-32q-78 0-120.5 49T26 427q0 77 45 126t120 49q71 0 108.5-38t41.5-84h-89q-11 53-62 53-33 0-51-27t-18-77q0-44 18-74.5t55-30.5q45 0 62 49z"/><glyph glyph-name="d.sups" horiz-adv-x="404" d="M265 736h92V354q0-21 .5-52.5t.5-39.5h-86q-2 18-2 44-29-51-101-51-62 0-102.5 46T26 426q0 81 45 128.5T180 602q62 0 85-31v165zM121 426q0-44 20-70t53-26q74 0 74 101 0 56-18 76t-53 20q-36 0-56-26.5T121 426z"/><glyph glyph-name="e.sups" horiz-adv-x="371" d="M346 410H119q1-38 20.5-61t54.5-23q50 0 66 36h86q-30-106-156-106-82 0-123 50T26 426q0 73 43.5 124.5T190 602q80 0 119-47t39-112q0-25-2-33zm-226 54h137q0 73-67 73-65 0-70-73z"/><glyph glyph-name="f.sups" horiz-adv-x="196" d="M140 262H49v264H2v68h47v27q0 55 29.5 88t85.5 33q28 0 41-4v-71q-8 2-26 2-21 0-30-11.5t-9-37.5v-26h60v-68h-60V262z"/><glyph glyph-name="g.sups" horiz-adv-x="401" d="M355 496V295q0-86-40.5-130T185 121q-75 0-111.5 32.5T31 232h92q14-42 64-42 41 0 59 21.5t18 66.5v28q-27-42-95-42-62 0-102 45T27 428t42 122 103 50q76 0 98-41 0 20 2 34h85q-2-42-2-97zm-233-66q0-41 19-66.5t53-25.5q72 0 72 97 0 51-18.5 71.5T194 527q-34 0-53-25.5T122 430z"/><glyph glyph-name="h.sups" horiz-adv-x="397" d="M42 262v474h92V556q37 46 103 46 49 0 83-32.5t34-99.5V262h-92v190q0 36-12.5 54.5T205 525q-71 0-71-89V262H42z"/><glyph glyph-name="i.sups" horiz-adv-x="178" d="M134 262H42v332h92V262zm0 394H42v80h92v-80z"/><glyph glyph-name="j.sups" horiz-adv-x="180" d="M-1 121v79h4q24 0 34 14.5T47 259v335h91V267q0-71-29-108.5T13 121H-1zm139 535H46v80h92v-80z"/><glyph glyph-name="k.sups" horiz-adv-x="366" d="M133 736V451q15 19 60 71.5t60 71.5h105q-22-23-61.5-65.5T238 466l132-204H264l-90 152q-11-13-41-43V262H42v474h91z"/><glyph glyph-name="l.sups" horiz-adv-x="177" d="M134 262H42v474h92V262z"/><glyph glyph-name="m.sups" horiz-adv-x="594" d="M552 262h-88v195q0 68-56 68-64 0-64-82V262h-93v200q0 63-53 63-64 0-64-86V262H42v227q0 81-1 105h91q2-10 2-44 31 52 100 52 70 0 94-56 38 56 109 56 51 0 83-31.5t32-99.5V262z"/><glyph glyph-name="o.sups" horiz-adv-x="393" d="M199 602q78 0 123-47.5T367 429q-1-83-49-128.5T194 255q-75 0-121.5 47T26 427q0 80 47.5 127.5T199 602zm-3-69q-36 0-55.5-27T121 428q0-47 20-75.5t55-28.5q77 0 77 106-3 103-77 103z"/><glyph glyph-name="p.sups" horiz-adv-x="398" d="M134 133H42v366q0 75-1 95h89q0-3 .5-10t1.5-17.5 1-17.5q33 53 104 53 55 0 95-44.5T372 436q0-85-45-132.5T221 256q-59 0-87 38V133zm143 300q0 93-72 93-40 0-56.5-24T132 429q0-99 70-99 75 0 75 103z"/><glyph glyph-name="q.sups" d="M266 133v166q-29-44-99-44-59 0-100 45T26 426q0 80 46 128t107 48q72 0 93-44 0 18 2 36h85q-2-38-2-128V133h-91zM121 428q0-45 20-71.5t54-26.5q72 0 72 99 0 55-17 76t-53 21q-35 0-55.5-25.5T121 428z"/><glyph glyph-name="r.sups" horiz-adv-x="259" d="M42 262v220q0 96-1 112h89q2-18 2-57 39 65 115 65v-91q-57 1-85-25.5T134 398V262H42z"/><glyph glyph-name="s.sups" horiz-adv-x="330" d="M23 365h85q11-44 59-44 51 0 51 33 0 17-14 25.5T150 397q-70 16-94 41t-24 63q0 44 35.5 72.5T164 602q63 0 98-29t38-74h-79q-11 40-58 40-43 0-43-28 0-14 11-22t45-15q76-18 104-43.5t28-67.5q0-48-36.5-77.5T168 256q-64 0-102 32t-43 77z"/><glyph glyph-name="t.sups" horiz-adv-x="217" d="M-5 594h56v93h89v-93h68v-68h-68V371q0-22 7.5-31.5T176 330q6 0 28 2v-67q-21-9-62-9-50 0-71.5 23.5T49 353v173H-5v68z"/><glyph glyph-name="u.sups" horiz-adv-x="394" d="M351 594V362q0-68 2-100h-86q-4 9-4 45-33-51-104-51-53 0-85 32t-32 95v211h92V406q0-71 57-71 29 0 48 20.5t19 64.5v174h93z"/><glyph glyph-name="v.sups" horiz-adv-x="355" d="M6 594h99q58-179 76-263h1q9 43 79 263h91L235 262H121z"/><glyph glyph-name="w.sups" horiz-adv-x="533" d="M7 594h99q50-203 58-244h1q9 50 61 244h88q49-186 58-245h1q1 9 58 245h95L425 262H324q-16 66-35.5 140.5T266 490h-1q-3-17-62-228H101z"/><glyph glyph-name="x.sups" horiz-adv-x="322" d="M-8 594h108q59-98 65-109h1q39 68 65 109h98L215 435l116-173H226q-64 104-68 113h-1q-10-19-68-113H-9l116 166z"/><glyph glyph-name="y.sups" horiz-adv-x="350" d="M1 594h105q63-180 75-240h1q13 56 72 240h96L228 258q-28-80-59.5-107.5T82 123q-24 0-46 3v81q12-1 31-1 24 0 39.5 13t28.5 44z"/><glyph glyph-name="z.sups" horiz-adv-x="320" d="M18 262v62q127 144 176 196H26v74h275v-61q-13-18-78.5-92.5T126 336h186l-13-74H18z"/><glyph glyph-name="egrave.sups" horiz-adv-x="371" d="M55 733h110l79-97h-86zm291-323H119q1-38 20.5-61t54.5-23q50 0 66 36h86q-30-106-156-106-82 0-123 50T26 426q0 73 43.5 124.5T190 602q80 0 119-47t39-112q0-25-2-33zm-226 54h137q0 73-67 73-65 0-70-73z"/><glyph glyph-name="eacute.sups" horiz-adv-x="371" d="M220 732h111l-107-96h-88zm126-322H119q1-38 20.5-61t54.5-23q50 0 66 36h86q-30-106-156-106-82 0-123 50T26 426q0 73 43.5 124.5T190 602q80 0 119-47t39-112q0-25-2-33zm-226 54h137q0 73-67 73-65 0-70-73z"/><glyph glyph-name="dong.alt" horiz-adv-x="560" d="M363 665h117v-62h60v-83h-60V141q0-109 1-141H369q-4 17-6 57Q319-9 223-9 141-9 85 54.5T29 221q0 107 61 170.5T239 455q90 0 124-46v111H143v83h220v62zM149 223q0-65 29.5-101.5T259 85q48 0 78 34t30 110q0 133-105 133-55 0-84-37t-29-102z"/><glyph glyph-name="currency.tab" horiz-adv-x="561" d="M278 549q64 0 115-34l71 74 66-70-73-75q24-48 24-106 0-60-25-110l74-76-66-71-71 74q-49-34-117-34-64 0-114 33L92 81l-67 71 73 74q-26 47-26 109 0 61 27 109l-74 75 67 70 71-73q53 33 115 33zm-2-92q-49 0-76.5-31.5T172 336q0-64 30.5-94.5T276 211q102 0 102 126 0 57-26.5 88.5T276 457z"/><glyph glyph-name="dollar.tab" horiz-adv-x="561" d="M327-86H221v82Q136 9 87.5 58T33 180h123q9-44 41-69t80-25q56 0 83 23.5t27 62.5q0 41-26.5 65.5T260 283q-118 34-165.5 80T47 483q0 72 47 119t122 59v66h105v-66q86-12 127.5-59T496 492H373q-6 22-14 37t-32.5 29-61.5 14q-49 0-71.5-23T171 495q0-38 27-58.5T306 393q112-31 158.5-79.5T511 186q0-81-49-129.5T327-4v-82z"/><glyph glyph-name="sterling.tab" horiz-adv-x="561" d="M511 0H45v97q41 21 56 63.5T116 281v8H33v90h78q-2 40-2 70 0 100 50 160t149 60q53 0 92-16.5t60-44 31-55 12-57.5H384q-12 73-77 73-41 0-58-27.5T232 460q0-31 2-81h144v-90H236q0-127-45-183h335z"/><glyph glyph-name="yen.tab" horiz-adv-x="561" d="M470 147H340V0H216v147H88v77h128v59H88v77h109L24 658h140q111-216 120-243h1q10 25 123 243h129L359 360h111v-77H340v-59h130v-77z"/><glyph glyph-name="Euro.tab" horiz-adv-x="561" d="M395 163h121q-17-81-72-127.5T303-11q-99 0-158 63.5T70 234H11v74h53v20q0 24 1 36H11v74h62q21 111 82 171t152 60q97 0 149.5-53.5T516 495H396q-22 76-94 76-88 0-109-133h166v-74H186v-56h173v-74H192Q212 90 304 90q67 0 91 73z"/><glyph glyph-name="cent.tab" horiz-adv-x="561" d="M401 238h123q-12-63-56-106.5T355 74v-86H250v85q-91 14-144 81.5T53 322q0 95 52.5 165.5T251 573v66h104v-67q84-14 124.5-63.5T524 405H401q-23 76-104 76-59 0-89-43.5T178 326q0-69 30-114t88-45q79 0 105 71z"/><glyph glyph-name="florin.tab" horiz-adv-x="561" d="M530 678l-22-94q-24 12-54 12-38 0-56-30.5T371 479l-9-59h109v-92H347l-34-221Q297-1 256.5-59T129-117q-66 0-100 22L52 1q26-14 63-14 34 0 47.5 26.5T188 113l35 215h-90v92h105l7 41q6 36 13 64.5t22 62 35 56 52 37.5 73 15q64 0 90-18z"/><glyph glyph-name="colonmonetary.tab" horiz-adv-x="561" d="M154 326q0-113 32.5-174T279 91q46 0 71.5 19.5T389 179h123Q491 46 377 6V-95h-71v88q-7-1-23-1h-16v-87h-70V6Q116 33 73 114.5T30 324q0 129 43 212.5T197 649v79h70v-64q8 1 25 1h14v63h71v-75q62-21 95-67.5T511 481H388q-18 88-104 88-130 0-130-243z"/><glyph glyph-name="lira.tab" horiz-adv-x="561" d="M510 0H44v97q36 16 51.5 46t18.5 81H31v72h85q0 10-1 29t-2 29H31v73h78v20q0 105 50.5 163.5T311 669q53 0 92.5-17.5t60.5-45 31.5-53.5 12.5-52H389q-10 68-79 68-78 0-78-111v-31h142v-73H234q1-18 1-58h139v-72H233q-7-81-40-118h332z"/><glyph glyph-name="franc.tab" horiz-adv-x="561" d="M116 0v124H34v86h82v448h390V553H240V400h248V297H240v-87h117v-86H240V0H116z"/><glyph glyph-name="uni20A6.tab" horiz-adv-x="561" d="M152 561q3-34 5-113h35l-33 113h-7zm223-447h8q-6 70-7 123h-38zM158 0H63v237H13v72h50v66H13v73h50v210h149l63-210h98v210h94V448h51v-73h-51v-66h51v-72h-51V0H325l-70 237h-97V0zm216 309q0 11-.5 33t-.5 33h-76l20-66h57zm-140 0l-20 66h-56v-66h76z"/><glyph glyph-name="peseta.tab" horiz-adv-x="561" d="M54 0v403H-8v75h62v180h184q100 0 164-46t76-134h49v-75h-50q-12-87-77-134.5T231 221h-60V0H54zm117 569v-91h188q-15 91-121 91h-67zm0-257h60q113 0 128 91H171v-91z"/><glyph glyph-name="dong.tab" horiz-adv-x="561" d="M42-72h432v-83H42v83zm310 737h117v-62h60v-83h-60V141q0-109 1-141H358q-4 17-6 57Q308-9 212-9 130-9 74 54.5T18 221q0 107 61 170.5T228 455q90 0 124-46v111H132v83h220v62zM138 223q0-65 29.5-101.5T248 85q48 0 78 34t30 110q0 133-105 133-55 0-84-37t-29-102z"/><glyph glyph-name="dong.alttab" horiz-adv-x="561" d="M352 665h117v-62h60v-83h-60V141q0-109 1-141H358q-4 17-6 57Q308-9 212-9 130-9 74 54.5T18 221q0 107 61 170.5T228 455q90 0 124-46v111H132v83h220v62zM138 223q0-65 29.5-101.5T248 85q48 0 78 34t30 110q0 133-105 133-55 0-84-37t-29-102z"/><glyph glyph-name="uni20B1.tab" horiz-adv-x="561" d="M50 0v351h-61v63h61v42h-61v62h61v140h187q86 0 147-35t84-105h53v-62h-42q1-7 1-21t-1-21h42v-63h-54q-24-70-87.5-107.5T228 206h-64V0H50zm114 571v-53h185q-30 53-112 53h-73zm203-138q0 16-1 23H164v-42h202q1 6 1 19zM164 295h64q90 0 121 56H164v-56z"/><glyph glyph-name="uni20B2.tab" horiz-adv-x="561" d="M497 486H377q-22 84-108 84-66 0-97-64t-31-162q0-120 32.5-187T289 90q51 0 76 15v228h127V31Q387-7 324-12v-74H218v80Q119 14 67.5 100.5T16 333q0 138 53 225t150 106v63h105v-62q76-13 121.5-60.5T497 486z"/><glyph glyph-name="uni20B4.tab" horiz-adv-x="561" d="M187 502H67q6 74 61.5 121T275 670q100 0 151-49t51-120q0-43-17-76h46v-66H401q-32-26-80-52h176v-67H216q-39-33-39-74 0-36 26-59t68-23q92 0 107 79h120Q471-12 263-12q-89 0-149 48.5T54 161q0 46 20 79H36v67h100q32 25 77 52H46v66h272q39 34 39 75 0 31-21 54t-62 23q-77 0-87-75z"/><glyph glyph-name="uni20B5.tab" horiz-adv-x="561" d="M140 326q0-104 32.5-167T268 96q44 0 68.5 20t38.5 66h123Q468 22 322-4v-82H217v83Q121 15 68.5 99.5T16 324q0 145 51.5 230T217 659v68h105v-65q80-13 124.5-66.5T497 474H374q-20 89-104 89-68 0-99-59t-31-178z"/><glyph glyph-name="uni20B9.tab" horiz-adv-x="561" d="M507 454h-94q-4-128-140-176L479 0H338L148 257H53v91h94q37 0 67 9t52.5 33.5T291 454H53v75h220q-33 50-118 50H53v79h454v-77H375q20-25 28-52h104v-75z"/><glyph glyph-name="uni20BA.tab" horiz-adv-x="561" d="M231 0H103v248l-78-33v74l78 33v67l-78-33v75l78 33v194h124V517l116 49v-74l-116-50v-67l116 49v-74l-116-49V100q84 0 124.5 40.5T401 264h110q-2-38-10.5-72.5t-29-70.5T421 59t-79-42.5T231 0z"/><glyph glyph-name="uni20BD.tab" horiz-adv-x="561" d="M61 0v128H-6v81h67v74H-6v97h67v278h220q111 0 172.5-48.5T515 475q0-192-235-192h-91v-74h162v-81H189V0H61zm128 561V380h86q58 0 84.5 22.5T386 471q0 90-110 90h-87z"/><glyph glyph-name="currency.cap" horiz-adv-x="556" d="M279 569q66 0 115-34l71 73 66-69-73-76q24-48 24-106 0-60-25-110l74-76-66-70-71 73q-49-34-117-34-65 0-114 34l-70-73-67 70 73 74q-26 47-26 110 0 61 27 109l-74 75 67 69 71-73q50 33 115 34zm-2-92q-49 0-76.5-31.5T173 356q0-64 30.5-95t73.5-31q102 0 102 126 0 57-26.5 89T277 477z"/><glyph glyph-name="dollar.cap" horiz-adv-x="568" d="M334-93H226v87Q137 6 86 55.5T26 183h126q21-99 132-99 60 0 89.5 25.5T403 179t-30.5 71.5T265 300q-124 36-174 84.5T41 512q0 76 49 124.5T219 697v72h107v-71q63-8 105-37t59-62 22-74H383q-21 81-116 81-53 0-76-24.5T168 522q0-39 29.5-61T311 414q121-35 169.5-88.5T529 193q0-82-52.5-134T334-5v-88z"/><glyph glyph-name="sterling.cap" horiz-adv-x="560" d="M528 0H39v95q79 55 79 191v16H22v90h90q-3 41-3 88 0 100 54.5 161T319 702q55 0 96-17.5t63.5-45.5 33.5-56.5 14-57.5H403q-12 76-84 76-85 0-85-116 0-48 3-93h147v-90H239v-5q0-124-55-192h359z"/><glyph glyph-name="yen.cap" horiz-adv-x="522" d="M456 154H321V0H197v154H62v77h135v68H62v79h116L-5 692h140q116-224 127-257h1q14 31 134 257h130L341 378h115v-79H321v-68h135v-77z"/><glyph glyph-name="Euro.cap" horiz-adv-x="588" d="M434 167h122q-19-86-75.5-132T334-11Q122-11 88 245H26v77h56v23q0 25 1 37H26v77h65q21 121 86 182t160 61q99 0 155-53.5T556 524H435q-21 79-104 79-96 0-116-144h177v-77H208v-60h184v-77H214Q235 89 335 89q79 0 99 78z"/><glyph glyph-name="cent.cap" horiz-adv-x="576" d="M418 248h126q-14-69-60.5-114T361 77V-6H255v83q-95 16-150.5 86.5T49 338q0 106 55 177.5T256 602v68h105v-68q62-10 105-43.5t59-67 19-65.5H418q-23 84-115 84-63 0-95-46t-32-121 32.5-123.5T305 171q87 0 113 77z"/><glyph glyph-name="florin.cap" horiz-adv-x="567" d="M549 714l-25-98q-22 11-60 11-41 0-58-31.5T380 503l-10-62h115v-94H356l-37-235q-8-55-20-94t-32.5-73-54.5-51-82-17q-68 0-105 22L50-2q25-14 65-14 36 0 50.5 29T192 119l38 228h-95v94h111l7 43q7 39 13.5 68t22 65 36 59 54.5 39 77 16q62 0 93-17z"/><glyph glyph-name="colonmonetary.cap" horiz-adv-x="574" d="M161 343q0-111 35-179.5T301 95q46 0 72.5 22t42.5 72h125Q518 43 396 5v-98h-71v86q-8-1-25-1h-16v-85h-71V6Q127 35 81 122T35 341q0 134 46 222.5T213 683v78h71v-63q9 1 27 1h14v62h71v-74q67-20 103-69t41-109H415q-24 89-115 89-69 0-104-69.5T161 343z"/><glyph glyph-name="lira.cap" horiz-adv-x="560" d="M528 0H39v95q64 45 76 139H26v73h92q0 8-1.5 28.5T114 368H26v75h84q-1 11-1 33 0 101 54 163.5T319 702q56 0 97.5-17.5t63.5-46 32.5-56.5 13.5-57H403q-13 76-84 76-85 0-85-117 0-28 1-41h146v-75H238q0-8 .5-28.5t.5-32.5h142v-73H236q-9-83-48-129h355z"/><glyph glyph-name="franc.cap" horiz-adv-x="532" d="M89 0v138H3v85h86v469h410V584H215V422h264V317H215v-94h127v-85H215V0H89z"/><glyph glyph-name="uni20A6.cap" horiz-adv-x="599" d="M165 576q4-59 5-105h35l-33 105h-7zm241-443h8q-3 40-7 121h-40zM171 0H71v254H19v75h52v65H19v77h52v221h157l70-221h106v221h98V471h53v-77h-53v-65h53v-75h-53V0H354l-80 254H171V0zm234 329q0 10-.5 32t-.5 33h-81l21-65h61zm-155 0l-20 65h-59v-65h79z"/><glyph glyph-name="peseta.cap" horiz-adv-x="587" d="M74 0v418H8v85h66v189h198q103 0 170.5-48T522 503h52v-85h-52q-14-93-82-141.5T265 228h-69V0H74zm122 599v-96h202q-19 96-131 96h-71zm0-276h63q119 0 139 95H196v-95z"/><glyph glyph-name="dong.cap" horiz-adv-x="588" d="M55-75h455v-83H55v83zm327 767h122v-59h63v-83h-63V131q0-101 1-131H388q-3 16-6 60Q337-9 235-9 147-9 88.5 56.5T30 232q0 113 64.5 179.5T252 478q94 0 130-48v120H150v83h232v59zM156 234q0-68 31.5-106.5T272 89q50 0 82 35.5T386 241q0 140-112 140-56 0-87-40t-31-107z"/><glyph glyph-name="dong.altcap" horiz-adv-x="588" d="M382 692h122v-59h63v-83h-63V131q0-101 1-131H388q-3 16-6 60Q337-9 235-9 147-9 88.5 56.5T30 232q0 113 64.5 179.5T252 478q94 0 130-48v120H150v83h232v59zM156 234q0-68 31.5-106.5T272 89q50 0 82 35.5T386 241q0 140-112 140-56 0-87-40t-31-107z"/><glyph glyph-name="uni20B1.cap" horiz-adv-x="633" d="M95 0v377H32v59h63v46H32v58h63v152h199q91 0 156-38t88-114h55v-58h-45q1-8 1-24 0-15-1-22h45v-59h-55q-24-77-91.5-118T285 218h-68V0H95zm122 600v-60h195q-31 60-120 60h-75zm211-145q0 19-1 27H217v-46h210q1 6 1 19zM217 310h65q100 0 131 67H217v-67z"/><glyph glyph-name="uni20B2.cap" horiz-adv-x="596" d="M553 508H427q-23 86-113 86-69 0-102.5-64.5T178 362q0-131 36-197.5T340 98q50 0 78 18v233h129V39Q434-1 370-6v-87H262v92Q157 19 102 108T47 350q0 141 57 231t158 110v76h108v-75q80-12 128-60.5T553 508z"/><glyph glyph-name="uni20B4.cap" horiz-adv-x="575" d="M192 525H70q10 80 68 129t153 49q103 0 156.5-53.5T501 526q0-41-14-72h45v-69H431q-36-32-100-66h191v-70H221q-36-32-36-74 0-39 28-64t73-25q93 0 113 83h124q-13-88-76-134.5T275-12q-96 0-157 51T57 168q0 47 19 81H37v70h101q34 28 98 66H48v69h295q34 31 34 71 0 33-22 57t-67 24q-79 0-96-81z"/><glyph glyph-name="uni20B5.cap" horiz-adv-x="600" d="M161 343q0-116 35.5-181T300 97q89 0 116 94h125q-13-79-59.5-130T355-4v-89H247v89Q145 14 90 102T35 341q0 148 54.5 239T247 693v76h108v-73q85-13 132-67t53-122H415q-24 89-114 89-69 0-104.5-65T161 343z"/><glyph glyph-name="uni20B9.cap" horiz-adv-x="563" d="M527 474h-99q-8-139-148-184L488 0H345L151 270H50v95h102q62 0 104.5 26t46.5 83H50v75h240q-33 62-126 62H50v81h477v-77H387q23-26 34-66h106v-75z"/><glyph glyph-name="uni20BA.cap" horiz-adv-x="582" d="M533 267q-2-48-17.5-91.5t-46.5-85-89-66T244 0H116v247l-80-37v74l80 37v65l-80-37v75l80 37v231h124V518l122 56v-74l-122-57v-65l122 57v-75l-122-56V100q86 0 130 41.5T422 267h111z"/><glyph glyph-name="uni20BD.cap" horiz-adv-x="611" d="M107 0v145H40v81h67v75H40v96h67v295h213q113 0 177-51t64-141q0-97-66.5-148T319 301h-84v-75h161v-81H235V0H107zm128 595V397h78q119 0 119 100 0 98-117 98h-80z"/><glyph glyph-name="at.cap" horiz-adv-x="939" d="M676 15l21-79q-90-56-240-56-174 0-287 111T57 283q0 197 122.5 321T500 728q165 0 275.5-92.5T886 376q0-132-63.5-210.5T653 87q-98 0-111 67-53-67-136-67-65 0-104.5 45.5T262 262q0 111 60.5 188.5T469 528q47 0 74.5-18.5T579 463l15 55h109l-59-272q-8-40-.5-55.5T677 175q49 0 81.5 54.5T791 372q0 124-80.5 197.5T498 643q-154 0-246-96.5T160 283q-1-134 82.5-224T463-31q127 0 213 46zM488 442q-48 0-78.5-54T379 266q0-90 61-90 77 0 105 128 32 138-57 138z"/><glyph glyph-name="emdash.cap" horiz-adv-x="846" d="M55 409h736V304H55v105z"/><glyph glyph-name="endash.cap" horiz-adv-x="499" d="M55 409h389V304H55v105z"/><glyph glyph-name="hyphen.cap" horiz-adv-x="383" d="M55 412h273V302H55v110z"/><glyph glyph-name="uni00AD.cap" horiz-adv-x="383" d="M55 412h273V302H55v110z"/><glyph glyph-name="exclamdown.cap" horiz-adv-x="275" d="M72 448h101l16-326V1H56v121zm-9 245h122V537H63v156z"/><glyph glyph-name="questiondown.cap" horiz-adv-x="473" d="M25 51q0 51 20 93t71 89q35 32 49 57.5t14 57.5v10h129v-20q0-46-21.5-84.5T209 162q-35-32-48.5-56.5T147 52q0-34 23-59t65-25q93 0 104 110h110q-2-88-54-147.5T229-129q-104 1-154 53.5T25 51zm154 522h129V417H179v156z"/><glyph glyph-name="guillemotleft.cap" horiz-adv-x="583" d="M314 542L166 346l148-196H204L54 346l150 196h110zm215 0L380 346l149-196H418L268 346l150 196h111z"/><glyph glyph-name="guillemotright.cap" horiz-adv-x="583" d="M269 153l148 196-148 196h109l151-196-151-196H269zm-215 0l149 196L54 545h111l149-196-149-196H54z"/><glyph glyph-name="guilsinglleft.cap" horiz-adv-x="383" d="M329 542L165 346l164-196H221L54 346l167 196h108z"/><glyph glyph-name="guilsinglright.cap" horiz-adv-x="383" d="M54 150l164 196L54 542h108l167-196-167-196H54z"/><glyph glyph-name="parenleft.cap" horiz-adv-x="361" d="M202 789h121Q167 582 167 343q0-249 156-458H202Q54 87 54 344q0 239 148 445z"/><glyph glyph-name="parenright.cap" horiz-adv-x="361" d="M158-115H38Q194 92 194 331q0 249-156 458h120q148-202 148-459 0-241-148-445z"/><glyph glyph-name="braceleft.cap" horiz-adv-x="380" d="M26 289v98q66 0 87 24.5t21 79.5v119q0 88 49.5 133.5T314 789h29v-88h-15q-44 0-62.5-25T247 602V491q0-134-106-152 106-19 106-155V75q0-102 84-102h12v-89h-29q-77 0-128.5 43T134 62v123q0 53-21 78t-87 26z"/><glyph glyph-name="braceright.cap" horiz-adv-x="380" d="M343 385v-98q-66 0-87-25t-21-80V63q0-88-49.5-133.5T55-116H26v89h14q45 0 63.5 24.5T122 71v111q0 134 106 152-106 19-106 155v109q0 103-84 103H26v88h29q77 0 128.5-43T235 611V488q0-53 21-78t87-25z"/><glyph glyph-name="bracketleft.cap" horiz-adv-x="353" d="M316-115H80v904h236v-94H187V-20h129v-95z"/><glyph glyph-name="bracketright.cap" horiz-adv-x="353" d="M37 789h236v-904H37v94h129v715H37v95z"/><glyph glyph-name="bullet.cap" horiz-adv-x="403" d="M90 464h223V236H90v228z"/><glyph glyph-name="periodcentered.cap" horiz-adv-x="234" d="M184 289H51v166h133V289z"/><glyph glyph-name="bulletoperator.cap" horiz-adv-x="234" d="M184 289H51v166h133V289z"/><glyph glyph-name="slash.frac" horiz-adv-x="188" d="M-73 0h-87l423 658h87z"/><glyph glyph-name="percent.alt" horiz-adv-x="534" d="M127 395q-47 0-75.5 33.5T23 514q0 51 29 85t75 34q49 0 77.5-33.5T233 514t-28-85.5-78-33.5zm0 182q-42 0-42-63 0-27 12-45.5t31-18.5q20 0 32 17.5t12 46.5q0 63-45 63zm-19-353l274 403h51L161 224h-53zm303-7q-47 0-76 33.5T306 336q0 51 29 84.5t76 33.5q48 0 76-33t28-85q0-53-27.5-86T411 217zm0 183q-43 0-43-64 0-28 12-46t31-18q20 0 31.5 17.5T454 336q0 64-43 64z"/><glyph glyph-name="estimated.alt" horiz-adv-x="667" d="M157 301q3-95 52.5-153T342 90q119 0 157 100h121q-26-90-98-145T336-10q-142 0-222 93.5T34 321q0 150 84 248.5T341 668q129 0 209.5-84.5T631 352l-1-51H157zm3 91h349q-2 83-50.5 131T337 571q-74 0-121-47.5T160 392z"/><glyph glyph-name="caron.alt" d="M242 467h-83l-5 264h93z"/><glyph glyph-name="uni00A80304" d="M153 563H51v100h102V563zm188 154H58v78h283v-78zm9-154H247v100h103V563z"/><glyph glyph-name="uni00A80301" d="M51 663h102V563H51v100zm196 31H139l97 119h145zm103-131H247v100h103V563z"/><glyph glyph-name="uni00A8030C" d="M257 694H143L38 813h105l57-66 58 66h104zM153 563H51v100h102V563zm197 0H247v100h103V563z"/><glyph glyph-name="uni00A80300" d="M51 663h102V563H51v100zM20 813h146l95-119H157zm330-250H247v100h103V563z"/><glyph glyph-name="uni02C60301" d="M139 704h122l104-132H258l-59 74-58-74H35zm285 113h123L410 685h-91z"/><glyph glyph-name="uni02C60300" d="M139 704h122l104-132H258l-59 74-58-74H35zm114 107h126l106-135h-96z"/><glyph glyph-name="uni02C60309" d="M422 677h-91q52 42 52 70 0 27-31 27-29 0-52-17l-21 57q39 31 97 31 46 0 69.5-21t23.5-59q0-54-47-88zm-283 27h122l104-132H258l-59 74-58-74H35z"/><glyph glyph-name="uni02C60303" d="M120 714H51v11q0 95 80 95 32 0 73-17t52-17q26 0 26 25v7h67v-12q0-93-82-93-27 0-67.5 17T145 747q-25 0-25-27v-6zm17-43h125l111-109H260l-62 58-59-58H28z"/><glyph glyph-name="uni02D80301" d="M41 698h87q16-50 72-50 58 0 72 50h86q-10-57-48.5-92T199 571 88.5 608 41 698zm203 138h127L245 724H145z"/><glyph glyph-name="uni02D80300" d="M41 698h87q16-50 72-50 58 0 72 50h86q-10-57-48.5-92T199 571 88.5 608 41 698zM31 836h131l99-112H160z"/><glyph glyph-name="uni02D80309" d="M233 718h-85q55 42 55 69 0 28-31 28-27 0-52-18l-21 56q40 33 96 33 46 0 70-21.5t24-59.5q0-53-56-87zM41 698h87q16-50 72-50 58 0 72 50h86q-10-57-48.5-92T199 571 88.5 608 41 698z"/><glyph glyph-name="uni02D80303" d="M120 736H51v10q0 49 22 72t58 23q32 0 72.5-16.5T256 808q26 0 26 25v7h67v-13q0-92-82-92-27 0-67.5 16.5T145 768q-25 0-25-27v-5zm-69-45h82q20-43 67-43 52 0 67 43h83q-9-52-47-85.5T199 572q-67 0-104 35t-44 84z"/><glyph glyph-name="grave.cap" d="M-12 890h156l128-139H155z"/><glyph glyph-name="acute.cap" d="M273 890h154L252 751H133z"/><glyph glyph-name="circumflex.cap" d="M140 887h124l128-136H274l-73 75-74-75H8z"/><glyph glyph-name="caron.cap" d="M258 751H139L8 887h118l73-75 74 75h119z"/><glyph glyph-name="tilde.cap" d="M104 760H22v30q0 56 23.5 80t68.5 24q37 0 90-24t66-24q28 0 28 38v9h80v-23q0-64-24-89.5T283 755q-30 0-84 24t-69 24q-26 0-26-28v-15z"/><glyph glyph-name="dieresis.cap" d="M152 763H50v121h102V763zm198 0H248v121h102V763z"/><glyph glyph-name="macron.cap" d="M51 856h298v-90H51v90z"/><glyph glyph-name="breve.cap" d="M34 886h89q5-27 25.5-43.5T200 826q66 0 78 60h88q-8-60-49.5-100.5T199 745q-79 0-119.5 41.5T34 886z"/><glyph glyph-name="ring.cap" d="M201 742q-53 0-85 28.5T84 842q0 44 31 73t85 29 85-28 31-72q0-45-31.5-73.5T201 742zm-2 55q24 0 37 13.5t13 32.5-12.5 33-36.5 14-36.5-13.5T151 844t12-33 36-14z"/><glyph glyph-name="hungarumlaut.cap" d="M143 888h133L131 750H31zm201 0h132L331 750H231z"/><glyph glyph-name="dotaccent.cap" d="M262 762H138v121h124V762z"/><glyph glyph-name="uni00A80304.cap" d="M148 738H45v100h103V738zm193 147H58v81h283v-81zm13-147H252v100h102V738z"/><glyph glyph-name="uni00A80301.cap" d="M45 838h103V738H45v100zm96 32l97 117h148L247 870H141zm213-132H252v100h102V738z"/><glyph glyph-name="uni00A8030C.cap" d="M254 868H138L33 987h105l59-63 59 63h104zM148 738H45v100h103V738zm206 0H252v100h102V738z"/><glyph glyph-name="uni00A80300.cap" d="M45 839h103V739H45v100zm210 32H150L7 988h143zm99-132H252v100h102V739z"/><glyph glyph-name="uni02C60301.cap" d="M134 879h126l133-128H265l-66 65-63-65H8zm303 90h139L438 849H336z"/><glyph glyph-name="uni02C60300.cap" d="M134 879h126l133-128H265l-66 65-63-65H8zm131 79h142l97-114h-96z"/><glyph glyph-name="uni02C60309.cap" d="M439 846h-91q49 39 49 73 0 27-34 27-27 0-56-18l-23 58q43 35 104 35 46 0 72.5-23.5T487 937q0-51-48-91zm-305 33h126l133-128H265l-66 67-63-67H8z"/><glyph glyph-name="uni02C60303.cap" d="M100 878H31v11q0 95 85 95 34 0 87-16.5t73-16.5q26 0 26 24v7h68v-12q0-51-21-72t-61-21q-31 0-87.5 16.5T125 910q-25 0-25-26v-6zm33-35h134l117-102H264l-65 53-62-53H15z"/><glyph glyph-name="uni02D80301.cap" d="M32 867h91q18-48 78-48 58 0 79 48h91q-13-54-54-90t-117-37q-81 0-120.5 39.5T32 867zm212 128h149L250 893H143z"/><glyph glyph-name="uni02D80300.cap" d="M32 867h91q18-48 78-48 58 0 79 48h91q-31-127-171-127-81 0-120.5 39.5T32 867zM15 995h149l100-102H155z"/><glyph glyph-name="uni02D80309.cap" d="M242 884h-90q50 40 50 67 0 26-33 26-25 0-53-16l-24 56q40 32 101 32 45 0 70-22t25-59q0-46-46-84zM32 867h90q20-48 78-48t79 48h92q-40-127-171-127-43 0-76 12.5t-51.5 33-28 41T32 867z"/><glyph glyph-name="uni02D80303.cap" d="M101 885H32v10q0 95 85 95 34 0 87-16.5t73-16.5q26 0 26 25v7h68v-13q0-50-21-71t-61-21q-31 0-88 16.5T126 917q-25 0-25-27v-5zm-71-41h92q21-39 78-39 63 0 78 39h91q-29-108-170-108-77 0-117 32t-52 76z"/><glyph glyph-name="NULL" horiz-adv-x="0"/><glyph glyph-name="CR" horiz-adv-x="246"/></font>
</defs>
</svg>
